<?xml version="1.0" encoding="UTF-8"?>
<svg id="Capa_1" data-name="Capa 1" xmlns="http://www.w3.org/2000/svg" xmlns:xlink="http://www.w3.org/1999/xlink" version="1.1" viewBox="0 0 170.1 170.1">
  <defs>
    <style>
      .cls-1 {
        fill: #c1c1c1;
      }

      .cls-1, .cls-2, .cls-3, .cls-4, .cls-5, .cls-6, .cls-7, .cls-8, .cls-9, .cls-10 {
        stroke-width: 0px;
      }

      .cls-11 {
        clip-path: url(#clippath);
      }

      .cls-2 {
        fill: none;
      }

      .cls-3 {
        fill: #4f7cbd;
      }

      .cls-4 {
        fill: #e9e9ea;
      }

      .cls-5 {
        isolation: isolate;
        opacity: .5;
      }

      .cls-5, .cls-8 {
        fill: #fff;
      }

      .cls-6 {
        fill: #ea6a6a;
      }

      .cls-7 {
        fill: #f4f3f3;
      }

      .cls-9 {
        fill: #dadada;
      }

      .cls-10 {
        fill: #9870ae;
      }
    </style>
    <clipPath id="clippath">
      <rect class="cls-2" x="7.2" y="7.2" width="155.5" height="154"/>
    </clipPath>
  </defs>
  <rect class="cls-4" y="0" width="170.1" height="170.1" rx="7.6" ry="7.6"/>
  <g class="cls-11">
    <g>
      <path class="cls-5" d="M13.5-81.9h142.9c3.5,0,6.3,2.8,6.3,6.2V14.4c0,3.4-2.8,6.2-6.3,6.2H13.5c-3.5,0-6.3-2.8-6.3-6.2v-90.1c0-3.4,2.8-6.2,6.3-6.2Z"/>
      <rect class="cls-5" x="7.2" y="149.3" width="155.5" height="102.5" rx="6.2" ry="6.2"/>
      <g>
        <g>
          <rect class="cls-8" x="7.4" y="33.5" width="155" height="102.6" rx="6.2" ry="6.2"/>
          <path class="cls-1" d="M155.6,136.4H14.3c-3.9,0-7.1-3.2-7.1-7.1V40.4c0-3.9,3.2-7.1,7.1-7.1h141.3c3.9,0,7.1,3.2,7.1,7.1v88.9c0,3.9-3.2,7.1-7.1,7.1ZM14.3,33.7c-3.7,0-6.7,3-6.7,6.7v88.9c0,3.7,3,6.7,6.7,6.7h141.3c3.7,0,6.7-3,6.7-6.7V40.4c0-3.7-3-6.7-6.7-6.7H14.3Z"/>
        </g>
        <g>
          <path class="cls-7" d="M21.6,41.3h127.6c3.4,0,6.2,2.8,6.2,6.2v74.5c0,3.4-2.8,6.2-6.2,6.2H21.6c-3.4,0-6.2-2.8-6.2-6.2V47.5c0-3.4,2.8-6.2,6.2-6.2Z"/>
          <rect class="cls-9" x="15.4" y="96.9" width="139.9" height="7.1"/>
          <rect class="cls-8" x="26.9" y="41.3" width="5.5" height="55.6"/>
          <rect class="cls-8" x="55.9" y="41.3" width="5.5" height="55.6"/>
          <rect class="cls-8" x="70.9" y="41.3" width="5.5" height="32.6"/>
          <rect class="cls-8" x="100.5" y="111.3" width="5.5" height="16.9"/>
          <rect class="cls-8" x="128.5" y="41.3" width="5.5" height="46.4"/>
          <rect class="cls-8" x="56.7" y="70.2" width="34.1" height="5.5"/>
          <rect class="cls-8" x="27.2" y="111.3" width="34.1" height="5.5"/>
          <rect class="cls-8" x="84.9" y="41.3" width="5.5" height="55.6"/>
          <rect class="cls-8" x="114" y="41.3" width="5.5" height="55.6"/>
          <rect class="cls-8" x="143.1" y="41.3" width="5.5" height="55.6"/>
          <rect class="cls-8" x="26.9" y="104.1" width="5.5" height="24.1"/>
          <rect class="cls-8" x="55.9" y="104.1" width="5.5" height="24.1"/>
          <rect class="cls-8" x="84.9" y="104.1" width="5.5" height="24.1"/>
          <rect class="cls-8" x="114" y="104.1" width="5.5" height="24.1"/>
          <rect class="cls-8" x="143.3" y="104.1" width="5" height="24.1"/>
          <ellipse class="cls-6" cx="62.9" cy="100.3" rx="9.5" ry="9.4"/>
          <ellipse class="cls-10" cx="121.4" cy="88.2" rx="6.8" ry="6.7"/>
          <ellipse class="cls-3" cx="85.4" cy="68.5" rx="3.8" ry="3.8"/>
          <ellipse class="cls-3" cx="26.2" cy="75.9" rx="5" ry="4.9"/>
          <ellipse class="cls-3" cx="93" cy="104.1" rx="3.8" ry="3.8"/>
          <ellipse class="cls-3" cx="149.5" cy="94.9" rx="2.8" ry="2.8"/>
        </g>
      </g>
    </g>
  </g>
</svg>