<?xml version="1.0" encoding="UTF-8"?>
<svg id="Capa_1" data-name="Capa 1" xmlns="http://www.w3.org/2000/svg" xmlns:xlink="http://www.w3.org/1999/xlink" version="1.1" viewBox="0 0 170.1 170.1">
  <defs>
    <style>
      .cls-1 {
        fill: #58bcb7;
      }

      .cls-1, .cls-2, .cls-3, .cls-4, .cls-5, .cls-6, .cls-7, .cls-8, .cls-9, .cls-10, .cls-11, .cls-12, .cls-13, .cls-14 {
        stroke-width: 0px;
      }

      .cls-2 {
        fill: #c1c1c1;
      }

      .cls-15 {
        clip-path: url(#clippath);
      }

      .cls-3 {
        fill: none;
      }

      .cls-4 {
        fill: #4eb062;
      }

      .cls-5 {
        fill: #e9e9ea;
      }

      .cls-6 {
        isolation: isolate;
        opacity: .5;
      }

      .cls-6, .cls-13 {
        fill: #fff;
      }

      .cls-16 {
        clip-path: url(#clippath-1);
      }

      .cls-7 {
        fill: #9161a4;
      }

      .cls-8 {
        fill: #f29c3f;
      }

      .cls-9 {
        fill: #e6e6e4;
      }

      .cls-10 {
        fill: #49beed;
      }

      .cls-11 {
        fill: #3463ac;
      }

      .cls-12 {
        fill: #f4f3f3;
      }

      .cls-14 {
        fill: #dadada;
      }
    </style>
    <clipPath id="clippath">
      <rect class="cls-3" x="7.6" y="7.6" width="155.2" height="155.1"/>
    </clipPath>
    <clipPath id="clippath-1">
      <rect class="cls-3" x="11.6" y="41.3" width="94.6" height="91.1"/>
    </clipPath>
  </defs>
  <rect class="cls-5" y="0" width="170.1" height="170.1" rx="7.6" ry="7.6"/>
  <g class="cls-15">
    <g>
      <g>
        <g>
          <rect class="cls-13" x="8" y="33.5" width="154.4" height="103.3" rx="6.2" ry="6.2"/>
          <path class="cls-2" d="M155.6,136.9H14.8c-3.9,0-7.1-3.2-7.1-7.1V40.3c0-3.9,3.2-7.1,7.1-7.1h140.7c3.9,0,7.1,3.2,7.1,7.1v89.5c0,3.9-3.2,7.1-7.1,7.1h.1ZM14.8,33.7c-3.7,0-6.6,3-6.6,6.6v89.5c0,3.7,3,6.6,6.6,6.6h140.7c3.7,0,6.6-3,6.6-6.6V40.3c0-3.7-3-6.6-6.6-6.6H14.8Z"/>
        </g>
        <rect class="cls-6" x="8" y="-82.8" width="154.4" height="103.3" rx="6.2" ry="6.2"/>
        <rect class="cls-6" x="7.8" y="150" width="154.8" height="103.3" rx="6.2" ry="6.2"/>
        <g class="cls-16">
          <g>
            <rect class="cls-12" x="15.6" y="41.3" width="139.8" height="87.6" rx="6.2" ry="6.2"/>
            <rect class="cls-14" x="15.6" y="97.3" width="139.8" height="7.1"/>
            <rect class="cls-13" x="27" y="41.3" width="5.5" height="56"/>
            <rect class="cls-13" x="56.1" y="41.3" width="5.5" height="56"/>
            <rect class="cls-13" x="71.1" y="41.3" width="5.5" height="32.8"/>
            <rect class="cls-13" x="128.6" y="41.3" width="5.5" height="46.7"/>
            <rect class="cls-13" x="56.8" y="70.5" width="34.1" height="5.5"/>
            <rect class="cls-13" x="27.3" y="111.8" width="34.1" height="5.5"/>
            <rect class="cls-13" x="85.1" y="41.3" width="5.5" height="56"/>
            <rect class="cls-13" x="114.1" y="41.3" width="5.5" height="56"/>
            <rect class="cls-13" x="143.2" y="41.3" width="5.5" height="56"/>
            <rect class="cls-13" x="27" y="104.6" width="5.5" height="24.3"/>
            <rect class="cls-13" x="56.1" y="104.6" width="5.5" height="24.3"/>
            <rect class="cls-13" x="85.1" y="104.6" width="5.5" height="24.3"/>
            <rect class="cls-13" x="114.1" y="104.6" width="5.5" height="24.3"/>
            <rect class="cls-13" x="143.2" y="104.6" width="5.5" height="24.3"/>
            <circle class="cls-8" cx="85.6" cy="68.7" r="3.8"/>
            <circle class="cls-1" cx="93.1" cy="104.6" r="3.8"/>
            <circle class="cls-8" cx="61.3" cy="95.8" r="3.8"/>
            <circle class="cls-8" cx="26.2" cy="51.9" r="3.8"/>
            <circle class="cls-4" cx="26.2" cy="114.4" r="3.8"/>
            <circle class="cls-4" cx="70" cy="54.1" r="3.8"/>
            <circle class="cls-1" cx="92" cy="42" r="3.8"/>
          </g>
        </g>
      </g>
      <rect class="cls-9" x="112.5" y="40.7" width="44.3" height="4.4" rx="1.9" ry="1.9"/>
      <g>
        <g>
          <circle class="cls-8" cx="115.7" cy="64.9" r="2.2"/>
          <rect class="cls-9" x="118.6" y="62.6" width="28.7" height="4.4" rx="1.9" ry="1.9"/>
          <rect class="cls-9" x="151.8" y="62.4" width="4.4" height="4.4" rx="1.3" ry="1.3"/>
        </g>
        <g>
          <circle class="cls-10" cx="115.7" cy="76.5" r="2.2"/>
          <rect class="cls-9" x="118.6" y="74.4" width="28.7" height="4.4" rx="1.9" ry="1.9"/>
          <path class="cls-9" d="M154.9,79.3h-1.6c-1.1,0-2-.9-2-2v-1.6c0-1.1.9-2,2-2h1.6c1.1,0,2,.9,2,2v1.6c0,1.1-.9,2-2,2ZM153.3,74.9c-.5,0-.9.4-.9.9v1.6c0,.5.4.9.9.9h1.6c.5,0,.9-.4.9-.9v-1.6c0-.5-.4-.9-.9-.9h-1.6Z"/>
        </g>
        <g>
          <circle class="cls-4" cx="115.7" cy="88.3" r="2.2"/>
          <rect class="cls-9" x="118.6" y="86.1" width="28.7" height="4.4" rx="1.9" ry="1.9"/>
          <rect class="cls-9" x="151.8" y="86.1" width="4.4" height="4.4" rx="1.3" ry="1.3"/>
        </g>
        <g>
          <ellipse class="cls-11" cx="115.6" cy="100" rx="2.1" ry="2.2"/>
          <rect class="cls-9" x="119.3" y="97.8" width="27.8" height="4.4" rx="1.9" ry="1.9"/>
          <path class="cls-9" d="M154.9,102.8h-1.6c-1.1,0-2-.9-2-2v-1.6c0-1.1.9-2,2-2h1.6c1.1,0,2,.9,2,2v1.6c0,1.1-.9,2-2,2ZM153.3,98.4c-.5,0-.9.4-.9.9v1.6c0,.5.4.9.9.9h1.6c.5,0,.9-.4.9-.9v-1.6c0-.5-.4-.9-.9-.9h-1.6Z"/>
        </g>
        <g>
          <circle class="cls-7" cx="115.7" cy="111.7" r="2.2"/>
          <rect class="cls-9" x="119.7" y="109.5" width="27.6" height="4.4" rx="1.9" ry="1.9"/>
          <path class="cls-9" d="M154.8,114.2h-1.6c-1.1,0-2-.9-2-2v-1.6c0-1.1.9-2,2-2h1.6c1.1,0,2,.9,2,2v1.6c0,1.1-.9,2-2,2ZM153.3,109.8c-.5,0-.9.4-.9.9v1.6c0,.5.4.9.9.9h1.6c.5,0,.9-.4.9-.9v-1.6c0-.5-.4-.9-.9-.9h-1.6Z"/>
        </g>
        <g>
          <circle class="cls-1" cx="115.7" cy="123.5" r="2.2"/>
          <rect class="cls-9" x="119.7" y="121.3" width="27.9" height="4.4" rx="1.9" ry="1.9"/>
          <rect class="cls-9" x="151.9" y="121.3" width="4.4" height="4.4" rx="1.3" ry="1.3"/>
        </g>
      </g>
    </g>
  </g>
</svg>