<?xml version="1.0" encoding="UTF-8"?>
<svg id="Capa_1" data-name="Capa 1" xmlns="http://www.w3.org/2000/svg" xmlns:xlink="http://www.w3.org/1999/xlink" version="1.1" viewBox="0 0 170.1 170.1">
  <defs>
    <style>
      .cls-1 {
        fill: url(#Degradado_sin_nombre);
        fill-opacity: .3;
      }

      .cls-1, .cls-2, .cls-3, .cls-4, .cls-5, .cls-6, .cls-7, .cls-8 {
        stroke-width: 0px;
      }

      .cls-2 {
        fill: #cccbcb;
      }

      .cls-9 {
        clip-path: url(#clippath);
      }

      .cls-3 {
        fill: none;
      }

      .cls-4 {
        fill: #e9e9ea;
      }

      .cls-5 {
        isolation: isolate;
        opacity: .5;
      }

      .cls-5, .cls-10 {
        fill: #fff;
      }

      .cls-6 {
        fill: #e6e5e5;
      }

      .cls-11 {
        clip-path: url(#clippath-1);
      }

      .cls-10 {
        stroke: #c1c1c1;
        stroke-miterlimit: 10;
        stroke-width: .4px;
      }

      .cls-7 {
        fill: #e6e6e4;
      }

      .cls-8 {
        fill: #3663ac;
      }
    </style>
    <clipPath id="clippath">
      <rect class="cls-3" x="7.2" y="7.2" width="155.5" height="154"/>
    </clipPath>
    <clipPath id="clippath-1">
      <rect class="cls-3" x="7.7" y="61.5" width="147.5" height="64.9"/>
    </clipPath>
    <linearGradient id="Degradado_sin_nombre" data-name="Degradado sin nombre" x1="96.5" y1="131.5" x2="96.5" y2="51.7" gradientTransform="translate(0 172.9) scale(1 -1)" gradientUnits="userSpaceOnUse">
      <stop offset="0" stop-color="#3663ac"/>
      <stop offset="1" stop-color="#3663ac" stop-opacity="0"/>
    </linearGradient>
  </defs>
  <rect class="cls-4" y="0" width="170.1" height="170.1" rx="7.6" ry="7.6"/>
  <g class="cls-9">
    <g>
      <g>
        <path class="cls-5" d="M13.5-81.9h142.6c3.5,0,6.3,2.8,6.3,6.2V14.4c0,3.4-2.8,6.2-6.3,6.2H13.5c-3.5,0-6.3-2.8-6.3-6.2v-90.1c0-3.4,2.8-6.2,6.3-6.2Z"/>
        <rect class="cls-5" x="7.1" y="149.3" width="155.5" height="102.5" rx="6.2" ry="6.2"/>
      </g>
      <g>
        <rect class="cls-10" x="7.7" y="33.5" width="154.4" height="102.8" rx="6.1" ry="6.1"/>
        <g>
          <rect class="cls-7" x="13.3" y="43.4" width="78.9" height="5.3" rx="2.4" ry="2.4"/>
          <rect class="cls-7" x="13.3" y="52.2" width="49.9" height="5.3" rx="2.4" ry="2.4"/>
        </g>
        <g class="cls-11">
          <g>
            <path class="cls-6" d="M172.4,65.7h-1v-.2h1v.2ZM170.5,65.7h-1.4v-.2h1.4v.2ZM168.1,65.7h-1.4v-.2h1.4v.2ZM165.7,65.7h-1.4v-.2h1.4v.2ZM163.3,65.7h-1.4v-.2h1.4v.2ZM160.9,65.7h-1.4v-.2h1.4v.2ZM158.5,65.7h-1.4v-.2h1.4v.2ZM156,65.7h-1.4v-.2h1.4v.2ZM153.6,65.7h-1.4v-.2h1.4v.2ZM151.2,65.7h-1.4v-.2h1.4v.2ZM148.8,65.7h-1.4v-.2h1.4v.2ZM146.4,65.7h-1.4v-.2h1.4v.2ZM144,65.7h-1.4v-.2h1.4v.2ZM141.6,65.7h-1.4v-.2h1.4v.2ZM139.2,65.7h-1.4v-.2h1.4v.2ZM136.8,65.7h-1.4v-.2h1.4v.2ZM134.4,65.7h-1.4v-.2h1.4v.2ZM132,65.7h-1.4v-.2h1.4v.2ZM129.6,65.7h-1.4v-.2h1.4v.2ZM127.2,65.7h-1.4v-.2h1.4v.2ZM124.7,65.7h-1.4v-.2h1.4v.2ZM122.3,65.7h-1.4v-.2h1.4v.2ZM119.9,65.7h-1.4v-.2h1.4v.2ZM117.5,65.7h-1.4v-.2h1.4v.2ZM115.1,65.7h-1.4v-.2h1.4v.2ZM112.7,65.7h-1.4v-.2h1.4v.2ZM110.3,65.7h-1.4v-.2h1.4v.2ZM107.9,65.7h-1.4v-.2h1.4v.2ZM105.5,65.7h-1.4v-.2h1.4v.2ZM103.1,65.7h-1.4v-.2h1.4v.2ZM100.7,65.7h-1.4v-.2h1.4v.2ZM98.3,65.7h-1.4v-.2h1.4v.2ZM95.9,65.7h-1.4v-.2h1.4v.2ZM93.5,65.7h-1.4v-.2h1.4v.2ZM91,65.7h-1.4v-.2h1.4v.2ZM88.6,65.7h-1.4v-.2h1.4v.2ZM86.2,65.7h-1.4v-.2h1.4v.2ZM83.8,65.7h-1.4v-.2h1.4v.2ZM81.4,65.7h-1.4v-.2h1.4v.2ZM79,65.7h-1.4v-.2h1.4v.2ZM76.6,65.7h-1.4v-.2h1.4v.2ZM74.2,65.7h-1.4v-.2h1.4v.2ZM71.8,65.7h-1.4v-.2h1.4v.2ZM69.4,65.7h-1.4v-.2h1.4v.2ZM67,65.7h-1.4v-.2h1.4v.2ZM64.6,65.7h-1.4v-.2h1.4v.2ZM62.2,65.7h-1.4v-.2h1.4v.2ZM59.7,65.7h-1.4v-.2h1.4v.2ZM57.3,65.7h-1.4v-.2h1.4v.2ZM54.9,65.7h-1.4v-.2h1.4v.2ZM52.5,65.7h-1.4v-.2h1.4v.2ZM50.1,65.7h-1.4v-.2h1.4v.2ZM47.7,65.7h-1.4v-.2h1.4v.2ZM45.3,65.7h-1.4v-.2h1.4v.2ZM42.9,65.7h-1.4v-.2h1.4v.2ZM40.5,65.7h-1.4v-.2h1.4v.2ZM38.1,65.7h-1.4v-.2h1.4v.2ZM35.7,65.7h-1.4v-.2h1.4v.2ZM33.3,65.7h-1.4v-.2h1.4v.2ZM30.9,65.7h-1.4v-.2h1.4v.2ZM28.4,65.7h-1.4v-.2h1.4v.2ZM26,65.7h-1.4v-.2h1.4v.2ZM23.6,65.7h-1.4v-.2h1.4v.2Z"/>
            <path class="cls-6" d="M172.4,76.8h-1v-.2h1v.2ZM170.5,76.8h-1.4v-.2h1.4v.2ZM168.1,76.8h-1.4v-.2h1.4v.2ZM165.7,76.8h-1.4v-.2h1.4v.2ZM163.3,76.8h-1.4v-.2h1.4v.2ZM160.9,76.8h-1.4v-.2h1.4v.2ZM158.5,76.8h-1.4v-.2h1.4v.2ZM156,76.8h-1.4v-.2h1.4v.2ZM153.6,76.8h-1.4v-.2h1.4v.2ZM151.2,76.8h-1.4v-.2h1.4v.2ZM148.8,76.8h-1.4v-.2h1.4v.2ZM146.4,76.8h-1.4v-.2h1.4v.2ZM144,76.8h-1.4v-.2h1.4v.2ZM141.6,76.8h-1.4v-.2h1.4v.2ZM139.2,76.8h-1.4v-.2h1.4v.2ZM136.8,76.8h-1.4v-.2h1.4v.2ZM134.4,76.8h-1.4v-.2h1.4v.2ZM132,76.8h-1.4v-.2h1.4v.2ZM129.6,76.8h-1.4v-.2h1.4v.2ZM127.2,76.8h-1.4v-.2h1.4v.2ZM124.7,76.8h-1.4v-.2h1.4v.2ZM122.3,76.8h-1.4v-.2h1.4v.2ZM119.9,76.8h-1.4v-.2h1.4v.2ZM117.5,76.8h-1.4v-.2h1.4v.2ZM115.1,76.8h-1.4v-.2h1.4v.2ZM112.7,76.8h-1.4v-.2h1.4v.2ZM110.3,76.8h-1.4v-.2h1.4v.2ZM107.9,76.8h-1.4v-.2h1.4v.2ZM105.5,76.8h-1.4v-.2h1.4v.2ZM103.1,76.8h-1.4v-.2h1.4v.2ZM100.7,76.8h-1.4v-.2h1.4v.2ZM98.3,76.8h-1.4v-.2h1.4v.2ZM95.9,76.8h-1.4v-.2h1.4v.2ZM93.5,76.8h-1.4v-.2h1.4v.2ZM91,76.8h-1.4v-.2h1.4v.2ZM88.6,76.8h-1.4v-.2h1.4v.2ZM86.2,76.8h-1.4v-.2h1.4v.2ZM83.8,76.8h-1.4v-.2h1.4v.2ZM81.4,76.8h-1.4v-.2h1.4v.2ZM79,76.8h-1.4v-.2h1.4v.2ZM76.6,76.8h-1.4v-.2h1.4v.2ZM74.2,76.8h-1.4v-.2h1.4v.2ZM71.8,76.8h-1.4v-.2h1.4v.2ZM69.4,76.8h-1.4v-.2h1.4v.2ZM67,76.8h-1.4v-.2h1.4v.2ZM64.6,76.8h-1.4v-.2h1.4v.2ZM62.2,76.8h-1.4v-.2h1.4v.2ZM59.7,76.8h-1.4v-.2h1.4v.2ZM57.3,76.8h-1.4v-.2h1.4v.2ZM54.9,76.8h-1.4v-.2h1.4v.2ZM52.5,76.8h-1.4v-.2h1.4v.2ZM50.1,76.8h-1.4v-.2h1.4v.2ZM47.7,76.8h-1.4v-.2h1.4v.2ZM45.3,76.8h-1.4v-.2h1.4v.2ZM42.9,76.8h-1.4v-.2h1.4v.2ZM40.5,76.8h-1.4v-.2h1.4v.2ZM38.1,76.8h-1.4v-.2h1.4v.2ZM35.7,76.8h-1.4v-.2h1.4v.2ZM33.3,76.8h-1.4v-.2h1.4v.2ZM30.9,76.8h-1.4v-.2h1.4v.2ZM28.4,76.8h-1.4v-.2h1.4v.2ZM26,76.8h-1.4v-.2h1.4v.2ZM23.6,76.8h-1.4v-.2h1.4v.2Z"/>
            <path class="cls-6" d="M172.4,88h-1v-.2h1v.2ZM170.5,88h-1.4v-.2h1.4v.2ZM168.1,88h-1.4v-.2h1.4v.2ZM165.7,88h-1.4v-.2h1.4v.2ZM163.3,88h-1.4v-.2h1.4v.2ZM160.9,88h-1.4v-.2h1.4v.2ZM158.5,88h-1.4v-.2h1.4v.2ZM156,88h-1.4v-.2h1.4v.2ZM153.6,88h-1.4v-.2h1.4v.2ZM151.2,88h-1.4v-.2h1.4v.2ZM148.8,88h-1.4v-.2h1.4v.2ZM146.4,88h-1.4v-.2h1.4v.2ZM144,88h-1.4v-.2h1.4v.2ZM141.6,88h-1.4v-.2h1.4v.2ZM139.2,88h-1.4v-.2h1.4v.2ZM136.8,88h-1.4v-.2h1.4v.2ZM134.4,88h-1.4v-.2h1.4v.2ZM132,88h-1.4v-.2h1.4v.2ZM129.6,88h-1.4v-.2h1.4v.2ZM127.2,88h-1.4v-.2h1.4v.2ZM124.7,88h-1.4v-.2h1.4v.2ZM122.3,88h-1.4v-.2h1.4v.2ZM119.9,88h-1.4v-.2h1.4v.2ZM117.5,88h-1.4v-.2h1.4v.2ZM115.1,88h-1.4v-.2h1.4v.2ZM112.7,88h-1.4v-.2h1.4v.2ZM110.3,88h-1.4v-.2h1.4v.2ZM107.9,88h-1.4v-.2h1.4v.2ZM105.5,88h-1.4v-.2h1.4v.2ZM103.1,88h-1.4v-.2h1.4v.2ZM100.7,88h-1.4v-.2h1.4v.2ZM98.3,88h-1.4v-.2h1.4v.2ZM95.9,88h-1.4v-.2h1.4v.2ZM93.5,88h-1.4v-.2h1.4v.2ZM91,88h-1.4v-.2h1.4v.2ZM88.6,88h-1.4v-.2h1.4v.2ZM86.2,88h-1.4v-.2h1.4v.2ZM83.8,88h-1.4v-.2h1.4v.2ZM81.4,88h-1.4v-.2h1.4v.2ZM79,88h-1.4v-.2h1.4v.2ZM76.6,88h-1.4v-.2h1.4v.2ZM74.2,88h-1.4v-.2h1.4v.2ZM71.8,88h-1.4v-.2h1.4v.2ZM69.4,88h-1.4v-.2h1.4v.2ZM67,88h-1.4v-.2h1.4v.2ZM64.6,88h-1.4v-.2h1.4v.2ZM62.2,88h-1.4v-.2h1.4v.2ZM59.7,88h-1.4v-.2h1.4v.2ZM57.3,88h-1.4v-.2h1.4v.2ZM54.9,88h-1.4v-.2h1.4v.2ZM52.5,88h-1.4v-.2h1.4v.2ZM50.1,88h-1.4v-.2h1.4v.2ZM47.7,88h-1.4v-.2h1.4v.2ZM45.3,88h-1.4v-.2h1.4v.2ZM42.9,88h-1.4v-.2h1.4v.2ZM40.5,88h-1.4v-.2h1.4v.2ZM38.1,88h-1.4v-.2h1.4v.2ZM35.7,88h-1.4v-.2h1.4v.2ZM33.3,88h-1.4v-.2h1.4v.2ZM30.9,88h-1.4v-.2h1.4v.2ZM28.4,88h-1.4v-.2h1.4v.2ZM26,88h-1.4v-.2h1.4v.2ZM23.6,88h-1.4v-.2h1.4v.2Z"/>
            <path class="cls-6" d="M172.4,99.2h-1v-.2h1v.2ZM170.5,99.2h-1.4v-.2h1.4v.2ZM168.1,99.2h-1.4v-.2h1.4v.2ZM165.7,99.2h-1.4v-.2h1.4v.2ZM163.3,99.2h-1.4v-.2h1.4v.2ZM160.9,99.2h-1.4v-.2h1.4v.2ZM158.5,99.2h-1.4v-.2h1.4v.2ZM156,99.2h-1.4v-.2h1.4v.2ZM153.6,99.2h-1.4v-.2h1.4v.2ZM151.2,99.2h-1.4v-.2h1.4v.2ZM148.8,99.2h-1.4v-.2h1.4v.2ZM146.4,99.2h-1.4v-.2h1.4v.2ZM144,99.2h-1.4v-.2h1.4v.2ZM141.6,99.2h-1.4v-.2h1.4v.2ZM139.2,99.2h-1.4v-.2h1.4v.2ZM136.8,99.2h-1.4v-.2h1.4v.2ZM134.4,99.2h-1.4v-.2h1.4v.2ZM132,99.2h-1.4v-.2h1.4v.2ZM129.6,99.2h-1.4v-.2h1.4v.2ZM127.2,99.2h-1.4v-.2h1.4v.2ZM124.7,99.2h-1.4v-.2h1.4v.2ZM122.3,99.2h-1.4v-.2h1.4v.2ZM119.9,99.2h-1.4v-.2h1.4v.2ZM117.5,99.2h-1.4v-.2h1.4v.2ZM115.1,99.2h-1.4v-.2h1.4v.2ZM112.7,99.2h-1.4v-.2h1.4v.2ZM110.3,99.2h-1.4v-.2h1.4v.2ZM107.9,99.2h-1.4v-.2h1.4v.2ZM105.5,99.2h-1.4v-.2h1.4v.2ZM103.1,99.2h-1.4v-.2h1.4v.2ZM100.7,99.2h-1.4v-.2h1.4v.2ZM98.3,99.2h-1.4v-.2h1.4v.2ZM95.9,99.2h-1.4v-.2h1.4v.2ZM93.5,99.2h-1.4v-.2h1.4v.2ZM91,99.2h-1.4v-.2h1.4v.2ZM88.6,99.2h-1.4v-.2h1.4v.2ZM86.2,99.2h-1.4v-.2h1.4v.2ZM83.8,99.2h-1.4v-.2h1.4v.2ZM81.4,99.2h-1.4v-.2h1.4v.2ZM79,99.2h-1.4v-.2h1.4v.2ZM76.6,99.2h-1.4v-.2h1.4v.2ZM74.2,99.2h-1.4v-.2h1.4v.2ZM71.8,99.2h-1.4v-.2h1.4v.2ZM69.4,99.2h-1.4v-.2h1.4v.2ZM67,99.2h-1.4v-.2h1.4v.2ZM64.6,99.2h-1.4v-.2h1.4v.2ZM62.2,99.2h-1.4v-.2h1.4v.2ZM59.7,99.2h-1.4v-.2h1.4v.2ZM57.3,99.2h-1.4v-.2h1.4v.2ZM54.9,99.2h-1.4v-.2h1.4v.2ZM52.5,99.2h-1.4v-.2h1.4v.2ZM50.1,99.2h-1.4v-.2h1.4v.2ZM47.7,99.2h-1.4v-.2h1.4v.2ZM45.3,99.2h-1.4v-.2h1.4v.2ZM42.9,99.2h-1.4v-.2h1.4v.2ZM40.5,99.2h-1.4v-.2h1.4v.2ZM38.1,99.2h-1.4v-.2h1.4v.2ZM35.7,99.2h-1.4v-.2h1.4v.2ZM33.3,99.2h-1.4v-.2h1.4v.2ZM30.9,99.2h-1.4v-.2h1.4v.2ZM28.4,99.2h-1.4v-.2h1.4v.2ZM26,99.2h-1.4v-.2h1.4v.2ZM23.6,99.2h-1.4v-.2h1.4v.2Z"/>
            <path class="cls-6" d="M172.4,110.3h-1v-.2h1v.2ZM170.5,110.3h-1.4v-.2h1.4v.2ZM168.1,110.3h-1.4v-.2h1.4v.2ZM165.7,110.3h-1.4v-.2h1.4v.2ZM163.3,110.3h-1.4v-.2h1.4v.2ZM160.9,110.3h-1.4v-.2h1.4v.2ZM158.5,110.3h-1.4v-.2h1.4v.2ZM156,110.3h-1.4v-.2h1.4v.2ZM153.6,110.3h-1.4v-.2h1.4v.2ZM151.2,110.3h-1.4v-.2h1.4v.2ZM148.8,110.3h-1.4v-.2h1.4v.2ZM146.4,110.3h-1.4v-.2h1.4v.2ZM144,110.3h-1.4v-.2h1.4v.2ZM141.6,110.3h-1.4v-.2h1.4v.2ZM139.2,110.3h-1.4v-.2h1.4v.2ZM136.8,110.3h-1.4v-.2h1.4v.2ZM134.4,110.3h-1.4v-.2h1.4v.2ZM132,110.3h-1.4v-.2h1.4v.2ZM129.6,110.3h-1.4v-.2h1.4v.2ZM127.2,110.3h-1.4v-.2h1.4v.2ZM124.7,110.3h-1.4v-.2h1.4v.2ZM122.3,110.3h-1.4v-.2h1.4v.2ZM119.9,110.3h-1.4v-.2h1.4v.2ZM117.5,110.3h-1.4v-.2h1.4v.2ZM115.1,110.3h-1.4v-.2h1.4v.2ZM112.7,110.3h-1.4v-.2h1.4v.2ZM110.3,110.3h-1.4v-.2h1.4v.2ZM107.9,110.3h-1.4v-.2h1.4v.2ZM105.5,110.3h-1.4v-.2h1.4v.2ZM103.1,110.3h-1.4v-.2h1.4v.2ZM100.7,110.3h-1.4v-.2h1.4v.2ZM98.3,110.3h-1.4v-.2h1.4v.2ZM95.9,110.3h-1.4v-.2h1.4v.2ZM93.5,110.3h-1.4v-.2h1.4v.2ZM91,110.3h-1.4v-.2h1.4v.2ZM88.6,110.3h-1.4v-.2h1.4v.2ZM86.2,110.3h-1.4v-.2h1.4v.2ZM83.8,110.3h-1.4v-.2h1.4v.2ZM81.4,110.3h-1.4v-.2h1.4v.2ZM79,110.3h-1.4v-.2h1.4v.2ZM76.6,110.3h-1.4v-.2h1.4v.2ZM74.2,110.3h-1.4v-.2h1.4v.2ZM71.8,110.3h-1.4v-.2h1.4v.2ZM69.4,110.3h-1.4v-.2h1.4v.2ZM67,110.3h-1.4v-.2h1.4v.2ZM64.6,110.3h-1.4v-.2h1.4v.2ZM62.2,110.3h-1.4v-.2h1.4v.2ZM59.7,110.3h-1.4v-.2h1.4v.2ZM57.3,110.3h-1.4v-.2h1.4v.2ZM54.9,110.3h-1.4v-.2h1.4v.2ZM52.5,110.3h-1.4v-.2h1.4v.2ZM50.1,110.3h-1.4v-.2h1.4v.2ZM47.7,110.3h-1.4v-.2h1.4v.2ZM45.3,110.3h-1.4v-.2h1.4v.2ZM42.9,110.3h-1.4v-.2h1.4v.2ZM40.5,110.3h-1.4v-.2h1.4v.2ZM38.1,110.3h-1.4v-.2h1.4v.2ZM35.7,110.3h-1.4v-.2h1.4v.2ZM33.3,110.3h-1.4v-.2h1.4v.2ZM30.9,110.3h-1.4v-.2h1.4v.2ZM28.4,110.3h-1.4v-.2h1.4v.2ZM26,110.3h-1.4v-.2h1.4v.2ZM23.6,110.3h-1.4v-.2h1.4v.2Z"/>
            <rect class="cls-2" x="22.2" y="121.2" width="150.2" height=".2"/>
            <rect class="cls-7" x="15.4" y="108.8" width="4.2" height="2.4" rx=".9" ry=".9"/>
            <rect class="cls-7" x="23.8" y="123.2" width="128.4" height="2.4" rx=".9" ry=".9"/>
            <rect class="cls-7" x="15.4" y="97.9" width="4.2" height="2.4" rx=".9" ry=".9"/>
            <rect class="cls-7" x="15.4" y="86.9" width="4.2" height="2.4" rx=".9" ry=".9"/>
            <rect class="cls-7" x="15.4" y="75.5" width="4.2" height="2.4" rx=".9" ry=".9"/>
            <rect class="cls-7" x="15.4" y="64.5" width="4.2" height="2.4" rx=".9" ry=".9"/>
            <path class="cls-1" d="M117.9,91.9l-.4-2.3c-.5-3-4.7-2.8-5,.1l-1.4,14c-.4,3.8-5.6,4.5-7,.9l-.6-1.5c-.2-.4-.4-.8-.7-1.2l-2.3-2.5c-1-1.1-2.6-1.1-3.7-.2-1.5,1.4-4,.6-4.3-1.5l-1.8-10c-.5-3-4.8-3.1-5.4-.1l-.7,3.3c-.4,2-3.2,2.1-3.8,0-.6-2.1-3.6-1.9-3.8.3l-1.9,17.5c-.4,3.9-5.8,4.5-7,.8v-.4c-.3-.4-.5-.7-.7-1.1l-1.9-2.4c-1.1-1.4-3.3-1.1-4,.5-.9,2.2-4.1,1.8-4.5-.6l-3.2-20.6c-.2-1.6-2.2-2.2-3.3-1.1-1,1.1-2.8.6-3.2-.8l-1.2-4.1c-1-3.3-5.5-3.5-6.8-.4l-1,2.4-1.1,2c-1.5,2.8-5.7,2.1-6.3-1-.7-3.9-6.3-3.6-6.7.3l-1.3,15.1v20.1c0,2,1.6,3.6,3.6,3.6h139.1c2,0,3.6-1.6,3.6-3.6v-48.1c0-.2,0-.4,0-.5l-.9-6c-.6-4.2-6.7-4.1-7.2.1l-1.9,17.6c0,.2,0,.4-.1.6l-2.5,8.6c-.8,2.6-4.4,2.9-5.5.4-.8-1.9-3.3-2.3-4.7-.9l-2.1,2.1-1.3,1.6c-1.5,1.8-4.5,1.1-5-1.3-.7-3.2-5.3-3-5.6.3l-.5,4.4c-.4,3.4-5.2,3.4-5.6,0l-.6-4.1c-.3-2.3-3.5-2.5-4.1-.2-.5,2.2-3.7,2.1-4.1-.2Z"/>
            <path class="cls-8" d="M71.8,112.4c-1.5,0-3.2-.8-3.9-2.8v-.4c-.3-.3-.4-.6-.6-.9l-1.9-2.4c-.4-.5-1-.8-1.7-.7-.7,0-1.2.5-1.5,1.1-.5,1.2-1.7,1.9-2.9,1.7-1.3-.2-2.2-1.1-2.4-2.4l-3.2-20.6c0-.6-.5-1-1-1.2-.5-.2-1.1,0-1.5.4-.6.6-1.5.9-2.3.7-.8-.2-1.5-.8-1.7-1.7l-1.2-4.1c-.5-1.6-1.8-2.2-2.8-2.3-1.1,0-2.4.4-3.1,1.9l-1,2.5-1.1,2c-.8,1.5-2.4,2.2-4,2-1.6-.3-2.9-1.5-3.2-3.1-.3-1.7-1.7-2.4-3-2.4-1.3,0-2.6.9-2.7,2.7l-1.3,15.1h-1c0,0,1.3-15.1,1.3-15.1.2-2.3,2-3.5,3.6-3.5,1.7,0,3.6.9,4,3.2.3,1.5,1.4,2.2,2.4,2.3,1,.2,2.3-.2,3-1.5l1.1-2,1-2.4c.7-1.6,2.2-2.6,4-2.5,1.8,0,3.2,1.3,3.7,3l1.2,4.1c.1.5.5.9,1,1,.5.1,1,0,1.4-.4.6-.7,1.6-.9,2.5-.6.9.3,1.5,1,1.7,1.9l3.2,20.6c.2,1,1,1.5,1.6,1.6.6,0,1.5-.2,1.9-1.1.4-.9,1.2-1.6,2.2-1.7,1-.1,2,.3,2.6,1.1l1.9,2.4c.3.4.5.8.6,1.2v.4c.7,1.8,2.3,2.3,3.5,2.1,1.2-.1,2.6-.9,2.8-2.8l1.9-17.5c.1-1.4,1.2-2.1,2.2-2.2,1,0,2.2.4,2.5,1.8.2.8.9,1.1,1.4,1.1.5,0,1.2-.3,1.4-1.2l.7-3.3c.4-1.8,1.9-2.6,3.2-2.6,1.3,0,2.8.9,3.1,2.7l1.8,10c.1.8.7,1.4,1.4,1.7.7.3,1.5,0,2.1-.4,1.3-1.2,3.2-1.1,4.4.2l2.3,2.5c.4.4.6.8.8,1.3l.6,1.5c.6,1.7,2.2,2.2,3.3,2,1.1-.1,2.5-1,2.7-2.8l1.4-14c.2-1.8,1.6-2.7,2.9-2.7,1.3,0,2.8.8,3.1,2.6l.4,2.3c.1,1,.9,1.3,1.5,1.4.6,0,1.4-.3,1.6-1.2.3-1.4,1.6-2,2.6-2,1.1,0,2.2.8,2.4,2.2l.6,4.1c.2,1.4,1.3,2.1,2.3,2.1s0,0,0,0c1,0,2.2-.7,2.3-2.1l.5-4.4c.2-2,1.7-2.9,3.2-3,1.4,0,3,.7,3.4,2.7.2.9.8,1.6,1.7,1.8.9.2,1.8,0,2.4-.8l1.4-1.6,2.1-2.1c.8-.8,1.9-1.1,3-.9,1.1.2,2,.9,2.5,2,.5,1.2,1.6,1.5,2.4,1.5.8,0,1.8-.5,2.2-1.8l2.5-8.6c0-.2,0-.4.1-.6l1.9-17.3c.3-2.5,2.3-3.6,4-3.7,0,0,0,0,0,0,1.7,0,3.7,1.1,4.1,3.5l.9,5.9h-1c0,.1-.9-5.8-.9-5.8-.3-1.9-1.8-2.7-3.2-2.7-1.4,0-2.9.9-3.1,2.8l-1.9,17.3c0,.2,0,.5-.1.7l-2.5,8.6c-.4,1.4-1.6,2.4-3,2.4-1.4,0-2.7-.7-3.3-2-.3-.7-1-1.3-1.8-1.4-.8-.2-1.6,0-2.2.7l-2.1,2.1-1.3,1.6c-.8,1-2.1,1.4-3.4,1.1-1.2-.3-2.2-1.3-2.5-2.6-.3-1.5-1.5-2-2.4-1.9-.9,0-2.1.6-2.3,2.1l-.5,4.4c-.2,2-1.8,3-3.3,3,0,0,0,0,0,0-1.4,0-3-.9-3.3-2.9l-.6-4.1c-.1-1-.9-1.4-1.5-1.4-.6,0-1.4.3-1.6,1.2-.3,1.4-1.5,2-2.6,2-1,0-2.2-.7-2.4-2.2l-.4-2.3c-.2-1.2-1.2-1.8-2.1-1.7-.9,0-1.9.6-2,1.9l-1.4,14c-.2,2.3-1.9,3.5-3.5,3.7-1.6.2-3.6-.5-4.4-2.7l-.6-1.5c-.1-.4-.3-.7-.6-1l-2.3-2.5c-.8-.9-2.1-.9-3-.1-.8.8-2,1-3.1.6-1.1-.4-1.8-1.3-2-2.4l-1.8-10c-.2-1.4-1.3-1.9-2.2-1.9-.9,0-2,.4-2.3,1.8l-.7,3.3c-.2,1.1-1.2,1.9-2.3,1.9-1.1,0-2.1-.7-2.4-1.8-.2-.9-1-1.1-1.5-1.1-.6,0-1.2.4-1.3,1.3l-1.9,17.5c-.2,2.3-2,3.5-3.6,3.7-.1,0-.3,0-.4,0Z"/>
          </g>
        </g>
      </g>
    </g>
  </g>
</svg>