<?xml version="1.0" encoding="UTF-8"?>
<svg id="Capa_1" data-name="Capa 1" xmlns="http://www.w3.org/2000/svg" xmlns:xlink="http://www.w3.org/1999/xlink" version="1.1" viewBox="0 0 170.1 170.1">
  <defs>
    <style>
      .cls-1 {
        fill: #e54040;
      }

      .cls-1, .cls-2, .cls-3, .cls-4, .cls-5, .cls-6, .cls-7, .cls-8, .cls-9, .cls-10 {
        stroke-width: 0px;
      }

      .cls-1, .cls-4, .cls-6, .cls-10 {
        isolation: isolate;
      }

      .cls-1, .cls-4, .cls-10 {
        opacity: .7;
      }

      .cls-2 {
        fill: #c1c1c1;
      }

      .cls-11 {
        clip-path: url(#clippath);
      }

      .cls-3 {
        fill: none;
      }

      .cls-4 {
        fill: #65b563;
      }

      .cls-5 {
        fill: #e9e9ea;
      }

      .cls-6 {
        opacity: .5;
      }

      .cls-6, .cls-8 {
        fill: #fff;
      }

      .cls-7 {
        fill: #f4f3f3;
      }

      .cls-9 {
        fill: #dadada;
      }

      .cls-10 {
        fill: #eedd3b;
      }
    </style>
    <clipPath id="clippath">
      <rect class="cls-3" x="7.5" y="7.5" width="155.1" height="153.7"/>
    </clipPath>
  </defs>
  <rect class="cls-5" y="0" width="170.1" height="170.1" rx="7.6" ry="7.6"/>
  <g class="cls-11">
    <g>
      <g>
        <path class="cls-8" d="M13.9,33.1h142.1c3.4,0,6.2,2.8,6.2,6.2v90.2c0,3.4-2.8,6.2-6.2,6.2H13.9c-3.4,0-6.2-2.8-6.2-6.2V39.3c0-3.4,2.8-6.2,6.2-6.2Z"/>
        <path class="cls-2" d="M155.4,136H14.6c-3.9,0-7.1-3.2-7.1-7.1V40c0-3.9,3.2-7.1,7.1-7.1h140.8c3.9,0,7.1,3.2,7.1,7.1v88.9c0,3.9-3.2,7.1-7.1,7.1h0ZM14.6,33.3c-3.7,0-6.7,3-6.7,6.7v88.9c0,3.7,3,6.7,6.7,6.7h140.8c3.7,0,6.7-3,6.7-6.7V40c0-3.7-3-6.7-6.7-6.7H14.6Z"/>
      </g>
      <path class="cls-6" d="M14.2-82.1h142.1c3.5,0,6.3,2.8,6.3,6.2V13.9c0,3.4-2.8,6.2-6.3,6.2H14.2c-3.5,0-6.3-2.8-6.3-6.2v-89.8c0-3.4,2.8-6.2,6.3-6.2Z"/>
      <path class="cls-6" d="M14.2,148.6h142.2c3.5,0,6.3,2.8,6.3,6.2v86.3c0,3.4-2.8,6.2-6.3,6.2H14.2c-3.5,0-6.3-2.8-6.3-6.2v-86.3c0-3.4,2.8-6.2,6.3-6.2Z"/>
      <g>
        <rect class="cls-7" x="15.5" y="40.9" width="138.5" height="86.8" rx="6.2" ry="6.2"/>
        <rect class="cls-9" x="15.5" y="96.4" width="138.5" height="7.1"/>
        <rect class="cls-8" x="26.7" y="40.9" width="5.5" height="55.5"/>
        <rect class="cls-8" x="55.5" y="40.9" width="5.5" height="55.5"/>
        <rect class="cls-8" x="70.4" y="40.9" width="5.5" height="32.5"/>
        <rect class="cls-8" x="99.6" y="110.8" width="5.5" height="16.9"/>
        <rect class="cls-8" x="127.4" y="40.9" width="5.5" height="46.3"/>
        <rect class="cls-8" x="56.3" y="69.8" width="33.7" height="5.5"/>
        <rect class="cls-8" x="27.1" y="110.8" width="33.7" height="5.5"/>
        <rect class="cls-8" x="84.3" y="40.9" width="5.5" height="55.5"/>
        <rect class="cls-8" x="113" y="40.9" width="5.5" height="55.5"/>
        <rect class="cls-8" x="141.8" y="40.9" width="5.5" height="55.5"/>
        <rect class="cls-8" x="26.7" y="103.6" width="5.5" height="24.1"/>
        <rect class="cls-8" x="55.5" y="103.6" width="5.5" height="24.1"/>
        <rect class="cls-8" x="84.3" y="103.6" width="5.5" height="24.1"/>
        <rect class="cls-8" x="113" y="103.6" width="5.5" height="24.1"/>
        <rect class="cls-8" x="141.8" y="103.6" width="5.5" height="24.1"/>
        <circle class="cls-4" cx="35.2" cy="99.9" r="3.9"/>
        <circle class="cls-4" cx="39.6" cy="99.9" r="3.9"/>
        <circle class="cls-4" cx="48.3" cy="99.9" r="3.9"/>
        <circle class="cls-4" cx="49.4" cy="99.9" r="3.9"/>
        <circle class="cls-4" cx="50.4" cy="99.9" r="3.9"/>
        <circle class="cls-4" cx="52.6" cy="99.9" r="3.9"/>
        <circle class="cls-4" cx="63.5" cy="99.9" r="3.9"/>
        <circle class="cls-4" cx="67.8" cy="99.9" r="3.9"/>
        <circle class="cls-4" cx="83" cy="99.9" r="3.9"/>
        <circle class="cls-4" cx="61.3" cy="93.4" r="3.9"/>
        <circle class="cls-4" cx="61.3" cy="82.5" r="3.9"/>
        <circle class="cls-4" cx="53.7" cy="108.6" r="3.9"/>
        <circle class="cls-4" cx="26.5" cy="65.2" r="3.9"/>
        <circle class="cls-4" cx="83" cy="67.3" r="3.9"/>
        <circle class="cls-4" cx="83" cy="64.1" r="3.9"/>
        <circle class="cls-4" cx="112.4" cy="85.8" r="3.9"/>
        <circle class="cls-4" cx="123.3" cy="99.9" r="3.9"/>
        <circle class="cls-4" cx="124.3" cy="99.9" r="3.9"/>
        <circle class="cls-4" cx="127.6" cy="99.9" r="3.9"/>
        <circle class="cls-10" cx="55.9" cy="99.9" r="3.9"/>
        <circle class="cls-10" cx="62.4" cy="99.9" r="3.9"/>
        <circle class="cls-1" cx="59.1" cy="99.9" r="3.9"/>
        <circle class="cls-4" cx="115.8" cy="99.9" r="3.9"/>
        <circle class="cls-10" cx="117.8" cy="99.9" r="3.9"/>
        <circle class="cls-1" cx="120" cy="99.9" r="3.9"/>
      </g>
    </g>
  </g>
</svg>