<?xml version="1.0" encoding="UTF-8"?>
<svg id="Capa_1" data-name="Capa 1" xmlns="http://www.w3.org/2000/svg" xmlns:xlink="http://www.w3.org/1999/xlink" version="1.1" viewBox="0 0 170.1 170.1">
  <defs>
    <style>
      .cls-1 {
        clip-path: url(#clippath);
      }

      .cls-2 {
        fill: none;
      }

      .cls-2, .cls-3, .cls-4, .cls-5, .cls-6, .cls-7, .cls-8 {
        stroke-width: 0px;
      }

      .cls-3 {
        fill: #eaeaea;
      }

      .cls-4 {
        opacity: .5;
      }

      .cls-4, .cls-9 {
        isolation: isolate;
      }

      .cls-4, .cls-8 {
        fill: #fff;
      }

      .cls-5 {
        fill: #c2c1c1;
      }

      .cls-6 {
        fill: #3364ae;
      }

      .cls-7 {
        fill: #e6e6e5;
      }
    </style>
    <clipPath id="clippath">
      <rect class="cls-2" x="7.5" y="7.7" width="155.6" height="155.6"/>
    </clipPath>
  </defs>
  <rect class="cls-3" y="0" width="170.1" height="170.1" rx="8.4" ry="8.4"/>
  <g class="cls-1">
    <g>
      <path class="cls-4" d="M151.4,8.1h88c3.8,0,6.8,3,6.8,6.8v58.6c0,3.7-3,6.8-6.8,6.8h-88c-3.8,0-6.8-3-6.8-6.8V14.9c0-3.7,3-6.8,6.8-6.8Z"/>
      <path class="cls-4" d="M151.4,90.4h88c3.8,0,6.8,3,6.8,6.8v58.6c0,3.7-3,6.8-6.8,6.8h-88c-3.8,0-6.8-3-6.8-6.8v-58.6c0-3.7,3-6.8,6.8-6.8Z"/>
      <path class="cls-4" d="M-65.5,8.1H19.4c3.8,0,6.8,3,6.8,6.8v141.6c0,3.7-3,6.8-6.8,6.8h-84.9c-3.8,0-6.8-3-6.8-6.8V14.9c0-3.7,3-6.8,6.8-6.8Z"/>
      <g>
        <path class="cls-8" d="M45.6,8.1h80c3.8,0,6.8,3,6.8,6.8v141.3c0,3.7-3,6.8-6.8,6.8H45.6c-3.8,0-6.8-3-6.8-6.8V14.9c0-3.7,3-6.8,6.8-6.8Z"/>
        <path class="cls-5" d="M125.6,163.1H45.6c-3.9,0-7-3.2-7-7V14.9c0-3.9,3.2-7,7-7h79.9c3.9,0,7,3.2,7,7v141.3c0,3.9-3.2,7-7,7h0ZM45.6,8.3c-3.6,0-6.6,3-6.6,6.6v141.3c0,3.6,3,6.6,6.6,6.6h79.9c3.6,0,6.6-3,6.6-6.6V14.9c0-3.6-3-6.6-6.6-6.6H45.6Z"/>
      </g>
    </g>
  </g>
  <g class="cls-9">
    <path class="cls-6" d="M52,30h-1.4v-5.4l-1.7.5v-1.1l2.9-1h0v7h.1Z"/>
  </g>
  <path class="cls-7" d="M60,20.3h33.2c1.5,0,2.7,1.2,2.7,2.6h0c0,1.5-1.2,2.6-2.7,2.6h-33.2c-1.5,0-2.7-1.2-2.7-2.6h0c0-1.5,1.2-2.6,2.7-2.6Z"/>
  <path class="cls-7" d="M116.8,20.3h4c1.5,0,2.7,1.2,2.7,2.6h0c0,1.5-1.2,2.6-2.7,2.6h-4c-1.5,0-2.7-1.2-2.7-2.6h0c0-1.5,1.2-2.6,2.7-2.6Z"/>
  <path class="cls-7" d="M60,29.1h33.2c1.5,0,2.7,1.2,2.7,2.6h0c0,1.5-1.2,2.7-2.7,2.7h-33.2c-1.5,0-2.7-1.2-2.7-2.6h0c0-1.5,1.2-2.7,2.7-2.7Z"/>
  <g class="cls-9">
    <path class="cls-6" d="M53.4,58.9h-4.8v-1l2.3-2.4c.3-.3.5-.6.7-.9,0-.3.2-.5.2-.7s0-.6-.2-.7-.4-.3-.7-.3-.6,0-.7.3c-.2.2-.3.5-.3.9h-1.4c0-.4,0-.8.3-1.2s.5-.6.9-.8.8-.3,1.3-.3,1.3.2,1.7.5.6.8.6,1.5,0,.7-.3,1.1-.5.8-.9,1.3l-1.6,1.7h3v1.1h0Z"/>
  </g>
  <path class="cls-7" d="M60,49.2h33.2c1.5,0,2.7,1.2,2.7,2.7h0c0,1.5-1.2,2.6-2.7,2.6h-33.2c-1.5,0-2.7-1.2-2.7-2.7h0c0-1.5,1.2-2.6,2.7-2.6Z"/>
  <path class="cls-7" d="M116.8,49.2h4c1.5,0,2.7,1.2,2.7,2.7h0c0,1.5-1.2,2.6-2.7,2.6h-4c-1.5,0-2.7-1.2-2.7-2.7h0c0-1.5,1.2-2.6,2.7-2.6Z"/>
  <path class="cls-7" d="M60,58h33.2c1.5,0,2.7,1.2,2.7,2.7h0c0,1.5-1.2,2.6-2.7,2.6h-33.2c-1.5,0-2.7-1.2-2.7-2.7h0c0-1.5,1.2-2.6,2.7-2.6Z"/>
  <g class="cls-9">
    <path class="cls-6" d="M50,84.8h.7c.4,0,.6,0,.8-.3.2-.2.3-.4.3-.7s0-.5-.3-.7c-.2-.2-.4-.2-.7-.2s-.5,0-.7.2-.3.3-.3.6h-1.4c0-.4,0-.7.3-1s.5-.5.8-.7.7-.2,1.2-.2,1.3.2,1.7.5.6.8.6,1.5,0,.6-.3.9-.5.5-.8.6c.4,0,.7.4.9.6s.3.6.3,1c0,.6-.2,1.1-.7,1.5s-1.1.6-1.8.6-1.3-.2-1.7-.6-.7-.9-.7-1.5h1.4c0,.3,0,.5.3.6s.4.3.7.3.6,0,.8-.3c.2-.2.3-.4.3-.7,0-.7-.4-1.1-1.2-1.1h-.7v-1.1h0l.2.2Z"/>
  </g>
  <path class="cls-7" d="M60,78h33.2c1.5,0,2.7,1.2,2.7,2.7h0c0,1.5-1.2,2.7-2.7,2.7h-33.2c-1.5,0-2.7-1.2-2.7-2.7h0c0-1.5,1.2-2.7,2.7-2.7Z"/>
  <path class="cls-7" d="M116.8,78h4c1.5,0,2.7,1.2,2.7,2.7h0c0,1.5-1.2,2.7-2.7,2.7h-4c-1.5,0-2.7-1.2-2.7-2.7h0c0-1.5,1.2-2.7,2.7-2.7Z"/>
  <path class="cls-7" d="M60,86.8h33.2c1.5,0,2.7,1.2,2.7,2.7h0c0,1.5-1.2,2.7-2.7,2.7h-33.2c-1.5,0-2.7-1.2-2.7-2.7h0c0-1.5,1.2-2.7,2.7-2.7Z"/>
  <g class="cls-9">
    <path class="cls-6" d="M52.7,115.1h.8v1.1h-.8v1.5h-1.4v-1.5h-2.9v-.9l2.9-4.6h1.4v4.4h0ZM49.8,115.1h1.6v-2.5.2l-1.6,2.3h0Z"/>
  </g>
  <path class="cls-7" d="M60,106.9h33.2c1.5,0,2.7,1.2,2.7,2.7h0c0,1.5-1.2,2.7-2.7,2.7h-33.2c-1.5,0-2.7-1.2-2.7-2.7h0c0-1.5,1.2-2.7,2.7-2.7Z"/>
  <path class="cls-7" d="M116.8,106.9h4c1.5,0,2.7,1.2,2.7,2.7h0c0,1.5-1.2,2.7-2.7,2.7h-4c-1.5,0-2.7-1.2-2.7-2.7h0c0-1.5,1.2-2.7,2.7-2.7Z"/>
  <path class="cls-7" d="M60,115.7h33.2c1.5,0,2.7,1.2,2.7,2.7h0c0,1.5-1.2,2.7-2.7,2.7h-33.2c-1.5,0-2.7-1.2-2.7-2.7h0c0-1.5,1.2-2.7,2.7-2.7Z"/>
  <g class="cls-9">
    <path class="cls-6" d="M48.8,143.2l.4-3.6h3.9v1.2h-2.8l-.2,1.5c.3-.2.7-.3,1.1-.3.7,0,1.2.2,1.6.6.4.4.6,1,.6,1.7s0,.9-.3,1.2c-.2.4-.5.6-.8.8-.4.2-.8.3-1.3.3s-.8,0-1.2-.3-.7-.4-.9-.7-.3-.7-.3-1.1h1.4c0,.3,0,.5.3.7s.4.2.7.2.6-.1.7-.3c.2-.2.3-.5.3-1s0-.7-.3-.9-.5-.3-.8-.3-.6,0-.8.3h0c0,.1-1.1-.2-1.1-.2h0v.2Z"/>
  </g>
  <path class="cls-7" d="M60,135.8h33.2c1.5,0,2.7,1.2,2.7,2.6h0c0,1.5-1.2,2.7-2.7,2.7h-33.2c-1.5,0-2.7-1.2-2.7-2.6h0c0-1.5,1.2-2.7,2.7-2.7Z"/>
  <path class="cls-7" d="M116.8,135.8h4c1.5,0,2.7,1.2,2.7,2.6h0c0,1.5-1.2,2.7-2.7,2.7h-4c-1.5,0-2.7-1.2-2.7-2.6h0c0-1.5,1.2-2.7,2.7-2.7Z"/>
  <path class="cls-7" d="M60,144.6h33.2c1.5,0,2.7,1.2,2.7,2.6h0c0,1.5-1.2,2.7-2.7,2.7h-33.2c-1.5,0-2.7-1.2-2.7-2.6h0c0-1.5,1.2-2.7,2.7-2.7Z"/>
</svg>