<?xml version="1.0" encoding="UTF-8"?>
<svg id="Capa_1" data-name="Capa 1" xmlns="http://www.w3.org/2000/svg" xmlns:xlink="http://www.w3.org/1999/xlink" version="1.1" viewBox="0 0 170.1 170.1">
  <defs>
    <style>
      .cls-1 {
        fill: #c1c1c1;
      }

      .cls-1, .cls-2, .cls-3, .cls-4, .cls-5, .cls-6, .cls-7, .cls-8 {
        stroke-width: 0px;
      }

      .cls-9 {
        clip-path: url(#clippath);
      }

      .cls-2 {
        fill: none;
      }

      .cls-3 {
        fill: #eaeaea;
      }

      .cls-4 {
        fill: #2f56a3;
      }

      .cls-5 {
        fill: #676767;
      }

      .cls-10 {
        opacity: .5;
      }

      .cls-6 {
        fill: #e7e6e6;
      }

      .cls-11 {
        isolation: isolate;
      }

      .cls-7 {
        fill: #fff;
      }

      .cls-8 {
        fill: #e5f4fd;
      }
    </style>
    <clipPath id="clippath">
      <rect class="cls-2" x="7.2" y="7.2" width="155.6" height="155.6"/>
    </clipPath>
  </defs>
  <rect class="cls-3" y="0" width="170.1" height="170.1" rx="8.4" ry="8.4"/>
  <g class="cls-9">
    <g>
      <g>
        <rect class="cls-7" x="7.5" y="44.6" width="155" height="80.6" rx="6.2" ry="6.2"/>
        <rect class="cls-6" x="17.3" y="102.9" width="42.4" height="5.5" rx="2.4" ry="2.4"/>
        <rect class="cls-6" x="65.8" y="102.9" width="42.4" height="5.5" rx="2.4" ry="2.4"/>
        <rect class="cls-6" x="114.2" y="102.9" width="42.4" height="5.5" rx="2.4" ry="2.4"/>
        <path class="cls-8" d="M67.4,65.2h22.7c4.9,0,8.9,4,8.9,8.9h0c0,4.9-4,8.9-8.9,8.9h-22.7c-4.9,0-8.9-4-8.9-8.9h0c0-4.9,4-8.9,8.9-8.9Z"/>
        <g class="cls-11">
          <path class="cls-5" d="M34.4,75.6c0,2.6-.5,4.6-1.6,6-1.1,1.4-2.7,2.1-4.8,2.1s-3.6-.7-4.7-2c-1.1-1.4-1.7-3.3-1.7-5.9v-3.5c0-2.6.5-4.7,1.6-6s2.7-2.1,4.7-2.1,3.6.7,4.7,2c1.1,1.3,1.7,3.3,1.7,5.8v3.5h0ZM30.6,71.8c0-1.6-.2-2.7-.6-3.4-.4-.7-1.1-1.1-2-1.1s-1.5.3-2,1c-.4.7-.6,1.7-.7,3.2v4.6c0,1.5.2,2.7.6,3.4s1.1,1.1,2,1.1,1.6-.4,2-1.1.6-1.8.6-3.3v-4.5h.1Z"/>
          <path class="cls-5" d="M45.7,75.9c-1,1-2.1,1.4-3.4,1.4s-3-.6-4-1.7-1.5-2.7-1.5-4.7.3-2.4.8-3.4,1.3-1.8,2.3-2.4,2.1-.9,3.3-.9,2.4.3,3.3.9c1,.6,1.7,1.5,2.3,2.7.5,1.2.8,2.5.8,4v1.4c0,3.2-.8,5.6-2.4,7.4s-3.8,2.8-6.7,2.9h-.9v-3.1h.8c3.3-.2,5-1.7,5.3-4.6h0ZM43.2,74.5c.6,0,1.1-.2,1.6-.5s.8-.7,1-1.1v-1.5c0-1.3-.2-2.3-.7-3s-1.1-1.1-2-1.1-1.4.3-1.9,1-.7,1.6-.7,2.6.2,1.9.7,2.5,1.1,1,2,1h0Z"/>
        </g>
        <g class="cls-11">
          <path class="cls-4" d="M77.6,72.8l1-1.7h1.7l-1.7,2.8,1.7,3h-1.7l-1-1.8-1,1.8h-1.7l1.7-3-1.6-2.8h1.7l1,1.7h0Z"/>
          <path class="cls-4" d="M83.2,72.8l1-1.7h1.7l-1.7,2.8,1.7,3h-1.7l-1-1.8-1,1.8h-1.7l1.7-3-1.6-2.8h1.7l1,1.7h0Z"/>
        </g>
        <g class="cls-11">
          <path class="cls-4" d="M86.4,71.2c0-.4,0-.8.4-1.1s.6-.4,1.1-.4.8,0,1.1.4.4.6.4,1.1v.3c0,.4,0,.8-.4,1-.3.3-.6.4-1.1.4s-.8,0-1.1-.4-.4-.6-.4-1.1v-.3h0ZM87.4,71.6c0,.2,0,.3.2.5s.3.2.4.2.3,0,.4-.2.2-.3.2-.5v-.4c0-.2,0-.3-.2-.5s-.3-.2-.4-.2-.3,0-.4.2-.2.3-.2.5v.4h0ZM88.2,76.4l-.7-.4,3.4-5.5.7.4-3.4,5.5ZM89.8,75.2c0-.4,0-.8.4-1.1.3-.3.7-.4,1.1-.4s.8,0,1.1.4.4.6.4,1.1v.3c0,.4,0,.8-.4,1s-.6.4-1.1.4-.8,0-1.1-.4-.4-.6-.4-1.1v-.4h0v.2ZM90.7,75.6c0,.2,0,.3.2.5s.3.2.4.2c.4,0,.6-.2.6-.7v-.4c0-.2,0-.3-.2-.5s-.3-.2-.4-.2-.3,0-.4.2-.2.3-.2.5v.4Z"/>
        </g>
        <g>
          <polygon class="cls-4" points="70.5 73.7 68.1 71.1 65.6 73.7 65.4 73.6 68.1 70.7 68.1 70.8 70.7 73.6 70.5 73.7"/>
          <rect class="cls-4" x="67.9" y="70.9" width=".2" height="6.4"/>
        </g>
      </g>
      <g class="cls-10">
        <rect class="cls-7" x="7.2" y="-41.6" width="155.6" height="76.4" rx="6.8" ry="6.8"/>
      </g>
      <g class="cls-10">
        <rect class="cls-7" x="7.2" y="135.5" width="155.6" height="76.4" rx="6.8" ry="6.8"/>
      </g>
    </g>
  </g>
  <path class="cls-1" d="M155.7,125.5H14.4c-3.9,0-7.1-3.2-7.1-7.1V51.5c0-3.9,3.2-7.1,7.1-7.1h141.3c3.9,0,7.1,3.2,7.1,7.1v66.9c0,3.9-3.2,7.1-7.1,7.1h0ZM14.4,44.8c-3.7,0-6.7,3-6.7,6.7v66.9c0,3.7,3,6.7,6.7,6.7h141.3c3.7,0,6.7-3,6.7-6.7V51.5c0-3.7-3-6.7-6.7-6.7H14.4Z"/>
</svg>