<?xml version="1.0" encoding="UTF-8"?>
<svg id="Capa_1" data-name="Capa 1" xmlns="http://www.w3.org/2000/svg" xmlns:xlink="http://www.w3.org/1999/xlink" version="1.1" viewBox="0 0 170.1 170.1">
  <defs>
    <style>
      .cls-1 {
        fill: #c1c1c1;
      }

      .cls-1, .cls-2, .cls-3, .cls-4, .cls-5, .cls-6, .cls-7, .cls-8, .cls-9, .cls-10, .cls-11 {
        stroke-width: 0px;
      }

      .cls-12 {
        clip-path: url(#clippath);
      }

      .cls-2 {
        fill: none;
      }

      .cls-3 {
        fill: #eaeaea;
      }

      .cls-4 {
        isolation: isolate;
        opacity: .5;
      }

      .cls-4, .cls-9 {
        fill: #fff;
      }

      .cls-5, .cls-11 {
        fill: #46c1f1;
      }

      .cls-6 {
        fill: #53b263;
      }

      .cls-7 {
        fill: #e6e6e5;
      }

      .cls-8, .cls-10 {
        fill: #3763ad;
      }

      .cls-10, .cls-11 {
        fill-opacity: .3;
        fill-rule: evenodd;
      }
    </style>
    <clipPath id="clippath">
      <rect class="cls-2" x="7.2" y="7.2" width="155.6" height="155.6"/>
    </clipPath>
  </defs>
  <rect class="cls-3" y="0" width="170.1" height="170.1" rx="8.4" ry="8.4"/>
  <g class="cls-12">
    <g>
      <rect class="cls-4" x="7.6" y="-83.5" width="154.9" height="103.6" rx="6.9" ry="6.9"/>
      <rect class="cls-4" x="7.6" y="146.5" width="155.2" height="103.6" rx="6.9" ry="6.9"/>
      <g>
        <path class="cls-9" d="M13.6,30.9h142.6c3.4,0,6.2,2.8,6.2,6.2v90.9c0,3.5-2.8,6.2-6.2,6.2H13.6c-3.4,0-6.2-2.8-6.2-6.2V37.1c0-3.5,2.8-6.2,6.2-6.2Z"/>
        <path class="cls-1" d="M155.6,134.6H14.3c-3.9,0-7.1-3.2-7.1-7.2V37.9c0-3.9,3.2-7.2,7.1-7.2h141.3c3.9,0,7.1,3.2,7.1,7.2v89.6c0,3.9-3.2,7.2-7.1,7.2h0ZM14.3,31.1c-3.7,0-6.7,3-6.7,6.8v89.6c0,3.7,3,6.8,6.7,6.8h141.3c3.7,0,6.7-3,6.7-6.8V37.9c0-3.7-3-6.8-6.7-6.8H14.3Z"/>
      </g>
    </g>
  </g>
  <g>
    <path class="cls-7" d="M20.6,39.2h74.3c1.5,0,2.7,1.2,2.7,2.7h0c0,1.5-1.2,2.6-2.7,2.6H20.6c-1.5,0-2.7-1.2-2.7-2.7h0c0-1.5,1.2-2.6,2.7-2.6Z"/>
    <path class="cls-7" d="M20.6,48h45c1.5,0,2.7,1.2,2.7,2.7h0c0,1.5-1.2,2.6-2.7,2.6H20.6c-1.5,0-2.7-1.2-2.7-2.7h0c0-1.5,1.2-2.6,2.7-2.6Z"/>
  </g>
  <g>
    <path class="cls-10" d="M22,66.1v-4.4h60v4.4H22Z"/>
    <path class="cls-10" d="M41.7,77c-4.7-1.3-10.9-2.2-19.7-2.2v-8.7c9.8,0,17.4,1,23.5,2.7,6.2,1.7,10.7,3.9,14.5,5.9.8.4,1.5.8,2.3,1.2,6.3,3.4,10.6,5.8,19.7,5.8v8.7c-12.9,0-20.1-3.9-26.5-7.5-.7-.4-1.4-.8-2.2-1.2-3.5-1.9-7-3.6-11.8-4.8h.2Z"/>
    <path class="cls-10" d="M60.8,84c-8.4,3.3-18.6,6.5-38.7,6.5v-13.1c17,0,24.5-2.6,30.8-5,.7-.3,1.4-.6,2.2-.9,6.5-2.6,13.9-5.5,27.1-5.5v12.9c-8.8,0-12.9,1.6-19,4.1-.7.3-1.5.6-2.3.9h0Z"/>
    <path class="cls-10" d="M82.1,129.4H22v-38.9h60v38.9h0Z"/>
    <path class="cls-8" d="M17.4,61.7h4.6v13.1h-4.6v-13.1Z"/>
    <path class="cls-8" d="M17.4,77.4h4.6v52h-4.6s0-52,0-52Z"/>
    <path class="cls-11" d="M146.9,75.2h-60.2v-13.5h60.2v13.5Z"/>
    <path class="cls-11" d="M128.1,125.1c-9.5,2.2-20.4,4.3-41.5,4.3v-47.7c13.5,0,18.2-1.1,22.6-2.1h.4c.2,0,.4,0,.6,0,8.2-1.9,18-4.2,36.9-4.2v47.7c-9.5,0-12.8.8-17.7,1.9-.4,0-.8.2-1.3.3h0Z"/>
    <path class="cls-11" d="M104.7,86.2c-4.6-4.4-10.3-7.2-18-7.2v-3.8c9.7,0,16.6,3.5,21.9,8.6,5.2,5,9,11.5,12.5,17.8.3.5.6,1,.9,1.5,3.2,5.8,6.2,11.3,10,15.4,4.1,4.5,8.7,7.1,14.9,7.1v3.8c-8.5,0-14.5-3.7-19-8.7-4.1-4.5-7.3-10.3-10.5-16.1-.3-.5-.6-1.1-.9-1.6-3.5-6.3-7.1-12.4-11.8-16.9h0Z"/>
    <rect class="cls-5" x="82.1" y="61.7" width="4.6" height="17.3"/>
    <rect class="cls-5" x="82.1" y="81.8" width="4.6" height="47.7"/>
    <rect class="cls-6" x="146.9" y="61.9" width="4.6" height="61.2"/>
    <rect class="cls-6" x="146.9" y="125.8" width="4.6" height="3.8"/>
  </g>
</svg>