<?xml version="1.0" encoding="UTF-8"?>
<svg id="Capa_1" data-name="Capa 1" xmlns="http://www.w3.org/2000/svg" xmlns:xlink="http://www.w3.org/1999/xlink" version="1.1" viewBox="0 0 170.1 170.1">
  <defs>
    <style>
      .cls-1 {
        fill: #1e1e1e;
      }

      .cls-1, .cls-2, .cls-3, .cls-4, .cls-5, .cls-6, .cls-7, .cls-8, .cls-9 {
        stroke-width: 0px;
      }

      .cls-10 {
        clip-path: url(#clippath);
      }

      .cls-2 {
        fill: none;
      }

      .cls-3 {
        fill: #e84747;
      }

      .cls-4 {
        fill: #393a3a;
      }

      .cls-5 {
        fill: #c97cb1;
      }

      .cls-6 {
        fill: #444;
      }

      .cls-7 {
        fill: #2b2b2b;
      }

      .cls-8 {
        fill: #1f1f1f;
        isolation: isolate;
        opacity: .7;
      }

      .cls-9 {
        fill: #719bd1;
      }
    </style>
    <clipPath id="clippath">
      <rect class="cls-2" x="7.2" y="7.2" width="155.5" height="154"/>
    </clipPath>
  </defs>
  <rect class="cls-4" y="0" width="170.1" height="170.1" rx="7.6" ry="7.6"/>
  <g class="cls-10">
    <g>
      <path class="cls-8" d="M13.4-81.9h142.8c3.5,0,6.3,2.8,6.3,6.2V14.4c0,3.4-2.8,6.2-6.3,6.2H13.4c-3.5,0-6.3-2.8-6.3-6.2v-90.1c0-3.4,2.8-6.2,6.3-6.2Z"/>
      <rect class="cls-8" x="7.1" y="149.3" width="155.5" height="102.5" rx="6.2" ry="6.2"/>
      <g>
        <g>
          <path class="cls-1" d="M13.6,33.5h142.7c3.4,0,6.2,2.8,6.2,6.2v90.1c0,3.4-2.8,6.2-6.2,6.2H13.6c-3.4,0-6.2-2.8-6.2-6.2V39.7c0-3.4,2.8-6.2,6.2-6.2Z"/>
          <path class="cls-7" d="M156.3,136.2H13.6c-3.5,0-6.4-2.9-6.4-6.4V39.7c0-3.5,2.9-6.4,6.4-6.4h142.7c3.5,0,6.4,2.9,6.4,6.4v90.1c0,3.5-2.9,6.4-6.4,6.4ZM13.6,33.7c-3.3,0-6,2.7-6,6v90.1c0,3.3,2.7,6,6,6h142.7c3.3,0,6-2.7,6-6V39.7c0-3.3-2.7-6-6-6H13.6Z"/>
        </g>
        <g>
          <path class="cls-6" d="M21.5,41.3h127.5c3.4,0,6.2,2.8,6.2,6.2v74.5c0,3.4-2.8,6.2-6.2,6.2H21.5c-3.4,0-6.2-2.8-6.2-6.2V47.5c0-3.4,2.8-6.2,6.2-6.2Z"/>
          <rect class="cls-1" x="15.3" y="96.9" width="139.9" height="7.1"/>
          <rect class="cls-1" x="26.9" y="41.3" width="5" height="55.6"/>
          <rect class="cls-1" x="56.1" y="41.3" width="5" height="55.6"/>
          <rect class="cls-1" x="71.1" y="41.3" width="5" height="32.6"/>
          <rect class="cls-1" x="100.5" y="111.3" width="5" height="16.9"/>
          <rect class="cls-1" x="128.6" y="41.3" width="5" height="46.4"/>
          <rect class="cls-1" x="56.6" y="70.5" width="34.1" height="5"/>
          <rect class="cls-1" x="27.1" y="111.5" width="34.1" height="5"/>
          <rect class="cls-1" x="85.1" y="41.3" width="5" height="55.6"/>
          <rect class="cls-1" x="114.1" y="41.3" width="5" height="55.6"/>
          <rect class="cls-1" x="143.2" y="41.3" width="5" height="55.6"/>
          <rect class="cls-1" x="26.9" y="104.1" width="5" height="24.1"/>
          <rect class="cls-1" x="56.1" y="104.1" width="5" height="24.1"/>
          <rect class="cls-1" x="85.1" y="104.1" width="5" height="24.1"/>
          <rect class="cls-1" x="114.1" y="104.1" width="5" height="24.1"/>
          <rect class="cls-1" x="143.2" y="104.1" width="5" height="24.1"/>
          <ellipse class="cls-3" cx="62.7" cy="100.3" rx="9.5" ry="9.4"/>
          <ellipse class="cls-5" cx="121.3" cy="88.2" rx="6.8" ry="6.7"/>
          <circle class="cls-9" cx="85.3" cy="68.5" r="3.8"/>
          <ellipse class="cls-9" cx="26.1" cy="75.9" rx="5" ry="4.9"/>
          <circle class="cls-9" cx="92.9" cy="104.1" r="3.8"/>
          <circle class="cls-9" cx="149.4" cy="94.9" r="2.8"/>
        </g>
      </g>
    </g>
  </g>
</svg>