<?xml version="1.0" encoding="UTF-8"?>
<svg id="Capa_1" data-name="Capa 1" xmlns="http://www.w3.org/2000/svg" xmlns:xlink="http://www.w3.org/1999/xlink" version="1.1" viewBox="0 0 170.1 170.1">
  <defs>
    <style>
      .cls-1 {
        fill: #333;
      }

      .cls-1, .cls-2, .cls-3, .cls-4, .cls-5, .cls-6, .cls-7, .cls-8 {
        stroke-width: 0px;
      }

      .cls-9 {
        clip-path: url(#clippath);
      }

      .cls-2 {
        fill: none;
      }

      .cls-3 {
        fill: #4eb062;
      }

      .cls-10 {
        clip-path: url(#clippath-1);
      }

      .cls-4 {
        fill: #f29c3f;
      }

      .cls-5 {
        fill: #202020;
        isolation: isolate;
        opacity: .7;
      }

      .cls-6 {
        fill: #393a3a;
      }

      .cls-7 {
        fill: #49beed;
      }

      .cls-8 {
        fill: #3463ac;
      }

      .cls-11 {
        fill: #1e1e1e;
        stroke: #2b2b2b;
        stroke-miterlimit: 10;
        stroke-width: .4px;
      }
    </style>
    <clipPath id="clippath">
      <rect class="cls-2" x="7.4" y="7.5" width="155.2" height="155.3"/>
    </clipPath>
    <clipPath id="clippath-1">
      <path class="cls-2" d="M85.4,52.6l-33.1,6.9c3.2,15.4,16.8,27,33.1,27s18-4.4,23.6-9.6l-23.6-24.4h0Z"/>
    </clipPath>
  </defs>
  <rect class="cls-6" y="0" width="170.1" height="170.1" rx="7.6" ry="7.6"/>
  <g class="cls-9">
    <g>
      <rect class="cls-5" x="-72.2" y="7.5" width="98.3" height="155.3" rx="6.1" ry="6.1"/>
      <g>
        <path class="cls-11" d="M44.7,7.8h81.2c3.4,0,6.1,2.7,6.1,6.1v142.9c0,3.4-2.7,6.1-6.1,6.1H44.7c-3.4,0-6.1-2.7-6.1-6.1V13.9c0-3.4,2.7-6.1,6.1-6.1Z"/>
        <circle class="cls-4" cx="54.7" cy="117.3" r="2.2"/>
        <circle class="cls-3" cx="54.7" cy="137.3" r="2.2"/>
        <circle class="cls-7" cx="54.7" cy="127.4" r="2.2"/>
        <circle class="cls-8" cx="54.7" cy="147.4" r="2.2"/>
        <path class="cls-1" d="M61.6,115.1h34.3c1,0,1.9.9,1.9,1.9v.6c0,1-.8,1.9-1.9,1.9h-34.3c-1,0-1.9-.9-1.9-1.9v-.6c0-1,.8-1.9,1.9-1.9Z"/>
        <path class="cls-1" d="M108.2,115.1h.6c1,0,1.9.9,1.9,1.9v.6c0,1-.8,1.9-1.9,1.9h-.6c-1,0-1.9-.9-1.9-1.9v-.6c0-1,.8-1.9,1.9-1.9Z"/>
        <path class="cls-1" d="M113.7,115.1h3.9c1,0,1.9.9,1.9,1.9v.6c0,1-.8,1.9-1.9,1.9h-3.9c-1,0-1.9-.9-1.9-1.9v-.6c0-1,.8-1.9,1.9-1.9Z"/>
        <path class="cls-1" d="M108.2,125.2h.6c1,0,1.9.9,1.9,1.9v.6c0,1-.8,1.9-1.9,1.9h-.6c-1,0-1.9-.9-1.9-1.9v-.6c0-1,.8-1.9,1.9-1.9Z"/>
        <path class="cls-1" d="M113.7,125.2h3.9c1,0,1.9.9,1.9,1.9v.6c0,1-.8,1.9-1.9,1.9h-3.9c-1,0-1.9-.9-1.9-1.9v-.6c0-1,.8-1.9,1.9-1.9Z"/>
        <path class="cls-1" d="M108.2,135.1h.6c1,0,1.9.9,1.9,1.9v.6c0,1-.8,1.9-1.9,1.9h-.6c-1,0-1.9-.9-1.9-1.9v-.6c0-1,.8-1.9,1.9-1.9Z"/>
        <rect class="cls-1" x="111.8" y="135.1" width="7.7" height="4.4" rx="1.9" ry="1.9"/>
        <path class="cls-1" d="M108.2,145.1h.6c1,0,1.9.9,1.9,1.9v.6c0,1-.8,1.9-1.9,1.9h-.6c-1,0-1.9-.9-1.9-1.9v-.6c0-1,.8-1.9,1.9-1.9Z"/>
        <path class="cls-1" d="M113.7,145.1h3.9c1,0,1.9.9,1.9,1.9v.6c0,1-.8,1.9-1.9,1.9h-3.9c-1,0-1.9-.9-1.9-1.9v-.6c0-1,.8-1.9,1.9-1.9Z"/>
        <path class="cls-1" d="M61.6,125.2h25.2c1,0,1.9.9,1.9,1.9v.6c0,1-.8,1.9-1.9,1.9h-25.2c-1,0-1.9-.9-1.9-1.9v-.6c0-1,.8-1.9,1.9-1.9Z"/>
        <path class="cls-1" d="M61.6,135.1h31.7c1,0,1.9.9,1.9,1.9v.6c0,1-.8,1.9-1.9,1.9h-31.7c-1,0-1.9-.9-1.9-1.9v-.6c0-1,.8-1.9,1.9-1.9Z"/>
        <path class="cls-1" d="M61.6,145.1h34.3c1,0,1.9.9,1.9,1.9v.6c0,1-.8,1.9-1.9,1.9h-34.3c-1,0-1.9-.9-1.9-1.9v-.6c0-1,.8-1.9,1.9-1.9Z"/>
        <g>
          <g>
            <path class="cls-7" d="M85.4,18.8c-18.7,0-33.8,15.2-33.8,33.9s15.1,33.8,33.8,33.8,33.8-15.2,33.8-33.8-15.1-33.9-33.8-33.9Z"/>
            <path class="cls-3" d="M96.3,20.6l-10.9,32.1,32.7,8.9c.8-2.8,1.2-5.8,1.2-8.9,0-14.9-9.6-27.5-23-32.1Z"/>
            <path class="cls-8" d="M85.4,52.6l23.6,24.3c4.3-4.2,7.5-9.5,9.1-15.4,0,0-32.7-8.9-32.7-8.9Z"/>
            <g class="cls-10">
              <path class="cls-4" d="M85.4,18.8c-18.7,0-33.8,15.2-33.8,33.9s15.1,33.8,33.8,33.8,33.8-15.2,33.8-33.8-15.1-33.9-33.8-33.9Z"/>
            </g>
          </g>
          <circle class="cls-11" cx="85.4" cy="52.7" r="23.4"/>
        </g>
      </g>
      <rect class="cls-5" x="145.1" y="7.5" width="98.3" height="72.3" rx="6.1" ry="6.1"/>
      <path class="cls-5" d="M151.2,89.8h86.1c3.4,0,6.1,2.8,6.1,6.2v60.7c0,3.4-2.7,6.2-6.1,6.2h-86.1c-3.4,0-6.1-2.8-6.1-6.2v-60.7c0-3.4,2.7-6.2,6.1-6.2h0Z"/>
    </g>
  </g>
</svg>