<?xml version="1.0" encoding="UTF-8"?>
<svg id="Capa_1" data-name="Capa 1" xmlns="http://www.w3.org/2000/svg" xmlns:xlink="http://www.w3.org/1999/xlink" version="1.1" viewBox="0 0 170.1 170.1">
  <defs>
    <style>
      .cls-1 {
        fill: #1e1e1e;
      }

      .cls-1, .cls-2, .cls-3, .cls-4, .cls-5, .cls-6, .cls-7, .cls-8 {
        stroke-width: 0px;
      }

      .cls-9 {
        clip-path: url(#clippath);
      }

      .cls-2 {
        fill: none;
      }

      .cls-10 {
        clip-path: url(#clippath-1);
      }

      .cls-3 {
        fill: url(#Degradado_sin_nombre_3);
        fill-opacity: .3;
      }

      .cls-4 {
        fill: #3f3f3f;
      }

      .cls-5 {
        fill: #393a3a;
      }

      .cls-6 {
        fill: #2b2b2b;
      }

      .cls-7 {
        fill: #3663ac;
      }

      .cls-8 {
        fill: #1f1f1f;
        isolation: isolate;
        opacity: .7;
      }
    </style>
    <clipPath id="clippath">
      <rect class="cls-2" x="7.2" y="7.2" width="155.5" height="154"/>
    </clipPath>
    <clipPath id="clippath-1">
      <rect class="cls-2" x="8.2" y="61.5" width="147.5" height="64.9"/>
    </clipPath>
    <linearGradient id="Degradado_sin_nombre_3" data-name="Degradado sin nombre 3" x1="96.5" y1="131.5" x2="96.5" y2="51.7" gradientTransform="translate(0 172.9) scale(1 -1)" gradientUnits="userSpaceOnUse">
      <stop offset="0" stop-color="#3663ac"/>
      <stop offset="1" stop-color="#3663ac" stop-opacity="0"/>
    </linearGradient>
  </defs>
  <rect class="cls-5" y="0" width="170.1" height="170.1" rx="7.6" ry="7.6"/>
  <g class="cls-9">
    <g>
      <path class="cls-8" d="M13.5-81.9h143c3.5,0,6.3,2.8,6.3,6.2V14.4c0,3.4-2.8,6.2-6.3,6.2H13.5c-3.5,0-6.3-2.8-6.3-6.2v-90.1c0-3.4,2.8-6.2,6.3-6.2Z"/>
      <rect class="cls-8" x="7.1" y="149.3" width="155.5" height="102.5" rx="6.2" ry="6.2"/>
      <g>
        <g>
          <path class="cls-1" d="M13.6,33.5h142.7c3.4,0,6.2,2.8,6.2,6.2v90.1c0,3.4-2.8,6.2-6.2,6.2H13.6c-3.4,0-6.2-2.8-6.2-6.2V39.7c0-3.4,2.8-6.2,6.2-6.2Z"/>
          <path class="cls-6" d="M156.3,136.2H13.6c-3.5,0-6.4-2.9-6.4-6.4V39.7c0-3.5,2.9-6.4,6.4-6.4h142.7c3.5,0,6.4,2.9,6.4,6.4v90.1c0,3.5-2.9,6.4-6.4,6.4ZM13.6,33.7c-3.3,0-6,2.7-6,6v90.1c0,3.3,2.7,6,6,6h142.7c3.3,0,6-2.7,6-6V39.7c0-3.3-2.7-6-6-6H13.6Z"/>
        </g>
        <g>
          <rect class="cls-4" x="13.8" y="43.4" width="78.9" height="5.3" rx="2.4" ry="2.4"/>
          <rect class="cls-4" x="13.8" y="52.2" width="49.9" height="5.3" rx="2.4" ry="2.4"/>
        </g>
        <g class="cls-10">
          <g>
            <path class="cls-4" d="M172.9,65.7h-1v-.2h1v.2ZM171,65.7h-1.4v-.2h1.4v.2ZM168.6,65.7h-1.4v-.2h1.4v.2ZM166.2,65.7h-1.4v-.2h1.4v.2ZM163.7,65.7h-1.4v-.2h1.4v.2ZM161.3,65.7h-1.4v-.2h1.4v.2ZM158.9,65.7h-1.4v-.2h1.4v.2ZM156.5,65.7h-1.4v-.2h1.4v.2ZM154.1,65.7h-1.4v-.2h1.4v.2ZM151.7,65.7h-1.4v-.2h1.4v.2ZM149.3,65.7h-1.4v-.2h1.4v.2ZM146.9,65.7h-1.4v-.2h1.4v.2ZM144.5,65.7h-1.4v-.2h1.4v.2ZM142.1,65.7h-1.4v-.2h1.4v.2ZM139.7,65.7h-1.4v-.2h1.4v.2ZM137.3,65.7h-1.4v-.2h1.4v.2ZM134.9,65.7h-1.4v-.2h1.4v.2ZM132.4,65.7h-1.4v-.2h1.4v.2ZM130,65.7h-1.4v-.2h1.4v.2ZM127.6,65.7h-1.4v-.2h1.4v.2ZM125.2,65.7h-1.4v-.2h1.4v.2ZM122.8,65.7h-1.4v-.2h1.4v.2ZM120.4,65.7h-1.4v-.2h1.4v.2ZM118,65.7h-1.4v-.2h1.4v.2ZM115.6,65.7h-1.4v-.2h1.4v.2ZM113.2,65.7h-1.4v-.2h1.4v.2ZM110.8,65.7h-1.4v-.2h1.4v.2ZM108.4,65.7h-1.4v-.2h1.4v.2ZM106,65.7h-1.4v-.2h1.4v.2ZM103.6,65.7h-1.4v-.2h1.4v.2ZM101.1,65.7h-1.4v-.2h1.4v.2ZM98.7,65.7h-1.4v-.2h1.4v.2ZM96.3,65.7h-1.4v-.2h1.4v.2ZM93.9,65.7h-1.4v-.2h1.4v.2ZM91.5,65.7h-1.4v-.2h1.4v.2ZM89.1,65.7h-1.4v-.2h1.4v.2ZM86.7,65.7h-1.4v-.2h1.4v.2ZM84.3,65.7h-1.4v-.2h1.4v.2ZM81.9,65.7h-1.4v-.2h1.4v.2ZM79.5,65.7h-1.4v-.2h1.4v.2ZM77.1,65.7h-1.4v-.2h1.4v.2ZM74.7,65.7h-1.4v-.2h1.4v.2ZM72.3,65.7h-1.4v-.2h1.4v.2ZM69.8,65.7h-1.4v-.2h1.4v.2ZM67.4,65.7h-1.4v-.2h1.4v.2ZM65,65.7h-1.4v-.2h1.4v.2ZM62.6,65.7h-1.4v-.2h1.4v.2ZM60.2,65.7h-1.4v-.2h1.4v.2ZM57.8,65.7h-1.4v-.2h1.4v.2ZM55.4,65.7h-1.4v-.2h1.4v.2ZM53,65.7h-1.4v-.2h1.4v.2ZM50.6,65.7h-1.4v-.2h1.4v.2ZM48.2,65.7h-1.4v-.2h1.4v.2ZM45.8,65.7h-1.4v-.2h1.4v.2ZM43.4,65.7h-1.4v-.2h1.4v.2ZM41,65.7h-1.4v-.2h1.4v.2ZM38.5,65.7h-1.4v-.2h1.4v.2ZM36.1,65.7h-1.4v-.2h1.4v.2ZM33.7,65.7h-1.4v-.2h1.4v.2ZM31.3,65.7h-1.4v-.2h1.4v.2ZM28.9,65.7h-1.4v-.2h1.4v.2ZM26.5,65.7h-1.4v-.2h1.4v.2ZM24.1,65.7h-1.4v-.2h1.4v.2Z"/>
            <path class="cls-4" d="M172.9,76.9h-1v-.2h1v.2ZM171,76.9h-1.4v-.2h1.4v.2ZM168.6,76.9h-1.4v-.2h1.4v.2ZM166.2,76.9h-1.4v-.2h1.4v.2ZM163.7,76.9h-1.4v-.2h1.4v.2ZM161.3,76.9h-1.4v-.2h1.4v.2ZM158.9,76.9h-1.4v-.2h1.4v.2ZM156.5,76.9h-1.4v-.2h1.4v.2ZM154.1,76.9h-1.4v-.2h1.4v.2ZM151.7,76.9h-1.4v-.2h1.4v.2ZM149.3,76.9h-1.4v-.2h1.4v.2ZM146.9,76.9h-1.4v-.2h1.4v.2ZM144.5,76.9h-1.4v-.2h1.4v.2ZM142.1,76.9h-1.4v-.2h1.4v.2ZM139.7,76.9h-1.4v-.2h1.4v.2ZM137.3,76.9h-1.4v-.2h1.4v.2ZM134.9,76.9h-1.4v-.2h1.4v.2ZM132.4,76.9h-1.4v-.2h1.4v.2ZM130,76.9h-1.4v-.2h1.4v.2ZM127.6,76.9h-1.4v-.2h1.4v.2ZM125.2,76.9h-1.4v-.2h1.4v.2ZM122.8,76.9h-1.4v-.2h1.4v.2ZM120.4,76.9h-1.4v-.2h1.4v.2ZM118,76.9h-1.4v-.2h1.4v.2ZM115.6,76.9h-1.4v-.2h1.4v.2ZM113.2,76.9h-1.4v-.2h1.4v.2ZM110.8,76.9h-1.4v-.2h1.4v.2ZM108.4,76.9h-1.4v-.2h1.4v.2ZM106,76.9h-1.4v-.2h1.4v.2ZM103.6,76.9h-1.4v-.2h1.4v.2ZM101.1,76.9h-1.4v-.2h1.4v.2ZM98.7,76.9h-1.4v-.2h1.4v.2ZM96.3,76.9h-1.4v-.2h1.4v.2ZM93.9,76.9h-1.4v-.2h1.4v.2ZM91.5,76.9h-1.4v-.2h1.4v.2ZM89.1,76.9h-1.4v-.2h1.4v.2ZM86.7,76.9h-1.4v-.2h1.4v.2ZM84.3,76.9h-1.4v-.2h1.4v.2ZM81.9,76.9h-1.4v-.2h1.4v.2ZM79.5,76.9h-1.4v-.2h1.4v.2ZM77.1,76.9h-1.4v-.2h1.4v.2ZM74.7,76.9h-1.4v-.2h1.4v.2ZM72.3,76.9h-1.4v-.2h1.4v.2ZM69.8,76.9h-1.4v-.2h1.4v.2ZM67.4,76.9h-1.4v-.2h1.4v.2ZM65,76.9h-1.4v-.2h1.4v.2ZM62.6,76.9h-1.4v-.2h1.4v.2ZM60.2,76.9h-1.4v-.2h1.4v.2ZM57.8,76.9h-1.4v-.2h1.4v.2ZM55.4,76.9h-1.4v-.2h1.4v.2ZM53,76.9h-1.4v-.2h1.4v.2ZM50.6,76.9h-1.4v-.2h1.4v.2ZM48.2,76.9h-1.4v-.2h1.4v.2ZM45.8,76.9h-1.4v-.2h1.4v.2ZM43.4,76.9h-1.4v-.2h1.4v.2ZM41,76.9h-1.4v-.2h1.4v.2ZM38.5,76.9h-1.4v-.2h1.4v.2ZM36.1,76.9h-1.4v-.2h1.4v.2ZM33.7,76.9h-1.4v-.2h1.4v.2ZM31.3,76.9h-1.4v-.2h1.4v.2ZM28.9,76.9h-1.4v-.2h1.4v.2ZM26.5,76.9h-1.4v-.2h1.4v.2ZM24.1,76.9h-1.4v-.2h1.4v.2Z"/>
            <path class="cls-4" d="M172.9,88h-1v-.2h1v.2ZM171,88h-1.4v-.2h1.4v.2ZM168.6,88h-1.4v-.2h1.4v.2ZM166.2,88h-1.4v-.2h1.4v.2ZM163.7,88h-1.4v-.2h1.4v.2ZM161.3,88h-1.4v-.2h1.4v.2ZM158.9,88h-1.4v-.2h1.4v.2ZM156.5,88h-1.4v-.2h1.4v.2ZM154.1,88h-1.4v-.2h1.4v.2ZM151.7,88h-1.4v-.2h1.4v.2ZM149.3,88h-1.4v-.2h1.4v.2ZM146.9,88h-1.4v-.2h1.4v.2ZM144.5,88h-1.4v-.2h1.4v.2ZM142.1,88h-1.4v-.2h1.4v.2ZM139.7,88h-1.4v-.2h1.4v.2ZM137.3,88h-1.4v-.2h1.4v.2ZM134.9,88h-1.4v-.2h1.4v.2ZM132.4,88h-1.4v-.2h1.4v.2ZM130,88h-1.4v-.2h1.4v.2ZM127.6,88h-1.4v-.2h1.4v.2ZM125.2,88h-1.4v-.2h1.4v.2ZM122.8,88h-1.4v-.2h1.4v.2ZM120.4,88h-1.4v-.2h1.4v.2ZM118,88h-1.4v-.2h1.4v.2ZM115.6,88h-1.4v-.2h1.4v.2ZM113.2,88h-1.4v-.2h1.4v.2ZM110.8,88h-1.4v-.2h1.4v.2ZM108.4,88h-1.4v-.2h1.4v.2ZM106,88h-1.4v-.2h1.4v.2ZM103.6,88h-1.4v-.2h1.4v.2ZM101.1,88h-1.4v-.2h1.4v.2ZM98.7,88h-1.4v-.2h1.4v.2ZM96.3,88h-1.4v-.2h1.4v.2ZM93.9,88h-1.4v-.2h1.4v.2ZM91.5,88h-1.4v-.2h1.4v.2ZM89.1,88h-1.4v-.2h1.4v.2ZM86.7,88h-1.4v-.2h1.4v.2ZM84.3,88h-1.4v-.2h1.4v.2ZM81.9,88h-1.4v-.2h1.4v.2ZM79.5,88h-1.4v-.2h1.4v.2ZM77.1,88h-1.4v-.2h1.4v.2ZM74.7,88h-1.4v-.2h1.4v.2ZM72.3,88h-1.4v-.2h1.4v.2ZM69.8,88h-1.4v-.2h1.4v.2ZM67.4,88h-1.4v-.2h1.4v.2ZM65,88h-1.4v-.2h1.4v.2ZM62.6,88h-1.4v-.2h1.4v.2ZM60.2,88h-1.4v-.2h1.4v.2ZM57.8,88h-1.4v-.2h1.4v.2ZM55.4,88h-1.4v-.2h1.4v.2ZM53,88h-1.4v-.2h1.4v.2ZM50.6,88h-1.4v-.2h1.4v.2ZM48.2,88h-1.4v-.2h1.4v.2ZM45.8,88h-1.4v-.2h1.4v.2ZM43.4,88h-1.4v-.2h1.4v.2ZM41,88h-1.4v-.2h1.4v.2ZM38.5,88h-1.4v-.2h1.4v.2ZM36.1,88h-1.4v-.2h1.4v.2ZM33.7,88h-1.4v-.2h1.4v.2ZM31.3,88h-1.4v-.2h1.4v.2ZM28.9,88h-1.4v-.2h1.4v.2ZM26.5,88h-1.4v-.2h1.4v.2ZM24.1,88h-1.4v-.2h1.4v.2Z"/>
            <path class="cls-4" d="M172.9,99.2h-1v-.2h1v.2ZM171,99.2h-1.4v-.2h1.4v.2ZM168.6,99.2h-1.4v-.2h1.4v.2ZM166.2,99.2h-1.4v-.2h1.4v.2ZM163.7,99.2h-1.4v-.2h1.4v.2ZM161.3,99.2h-1.4v-.2h1.4v.2ZM158.9,99.2h-1.4v-.2h1.4v.2ZM156.5,99.2h-1.4v-.2h1.4v.2ZM154.1,99.2h-1.4v-.2h1.4v.2ZM151.7,99.2h-1.4v-.2h1.4v.2ZM149.3,99.2h-1.4v-.2h1.4v.2ZM146.9,99.2h-1.4v-.2h1.4v.2ZM144.5,99.2h-1.4v-.2h1.4v.2ZM142.1,99.2h-1.4v-.2h1.4v.2ZM139.7,99.2h-1.4v-.2h1.4v.2ZM137.3,99.2h-1.4v-.2h1.4v.2ZM134.9,99.2h-1.4v-.2h1.4v.2ZM132.4,99.2h-1.4v-.2h1.4v.2ZM130,99.2h-1.4v-.2h1.4v.2ZM127.6,99.2h-1.4v-.2h1.4v.2ZM125.2,99.2h-1.4v-.2h1.4v.2ZM122.8,99.2h-1.4v-.2h1.4v.2ZM120.4,99.2h-1.4v-.2h1.4v.2ZM118,99.2h-1.4v-.2h1.4v.2ZM115.6,99.2h-1.4v-.2h1.4v.2ZM113.2,99.2h-1.4v-.2h1.4v.2ZM110.8,99.2h-1.4v-.2h1.4v.2ZM108.4,99.2h-1.4v-.2h1.4v.2ZM106,99.2h-1.4v-.2h1.4v.2ZM103.6,99.2h-1.4v-.2h1.4v.2ZM101.1,99.2h-1.4v-.2h1.4v.2ZM98.7,99.2h-1.4v-.2h1.4v.2ZM96.3,99.2h-1.4v-.2h1.4v.2ZM93.9,99.2h-1.4v-.2h1.4v.2ZM91.5,99.2h-1.4v-.2h1.4v.2ZM89.1,99.2h-1.4v-.2h1.4v.2ZM86.7,99.2h-1.4v-.2h1.4v.2ZM84.3,99.2h-1.4v-.2h1.4v.2ZM81.9,99.2h-1.4v-.2h1.4v.2ZM79.5,99.2h-1.4v-.2h1.4v.2ZM77.1,99.2h-1.4v-.2h1.4v.2ZM74.7,99.2h-1.4v-.2h1.4v.2ZM72.3,99.2h-1.4v-.2h1.4v.2ZM69.8,99.2h-1.4v-.2h1.4v.2ZM67.4,99.2h-1.4v-.2h1.4v.2ZM65,99.2h-1.4v-.2h1.4v.2ZM62.6,99.2h-1.4v-.2h1.4v.2ZM60.2,99.2h-1.4v-.2h1.4v.2ZM57.8,99.2h-1.4v-.2h1.4v.2ZM55.4,99.2h-1.4v-.2h1.4v.2ZM53,99.2h-1.4v-.2h1.4v.2ZM50.6,99.2h-1.4v-.2h1.4v.2ZM48.2,99.2h-1.4v-.2h1.4v.2ZM45.8,99.2h-1.4v-.2h1.4v.2ZM43.4,99.2h-1.4v-.2h1.4v.2ZM41,99.2h-1.4v-.2h1.4v.2ZM38.5,99.2h-1.4v-.2h1.4v.2ZM36.1,99.2h-1.4v-.2h1.4v.2ZM33.7,99.2h-1.4v-.2h1.4v.2ZM31.3,99.2h-1.4v-.2h1.4v.2ZM28.9,99.2h-1.4v-.2h1.4v.2ZM26.5,99.2h-1.4v-.2h1.4v.2ZM24.1,99.2h-1.4v-.2h1.4v.2Z"/>
            <path class="cls-4" d="M172.9,110.3h-1v-.2h1v.2ZM171,110.3h-1.4v-.2h1.4v.2ZM168.6,110.3h-1.4v-.2h1.4v.2ZM166.2,110.3h-1.4v-.2h1.4v.2ZM163.7,110.3h-1.4v-.2h1.4v.2ZM161.3,110.3h-1.4v-.2h1.4v.2ZM158.9,110.3h-1.4v-.2h1.4v.2ZM156.5,110.3h-1.4v-.2h1.4v.2ZM154.1,110.3h-1.4v-.2h1.4v.2ZM151.7,110.3h-1.4v-.2h1.4v.2ZM149.3,110.3h-1.4v-.2h1.4v.2ZM146.9,110.3h-1.4v-.2h1.4v.2ZM144.5,110.3h-1.4v-.2h1.4v.2ZM142.1,110.3h-1.4v-.2h1.4v.2ZM139.7,110.3h-1.4v-.2h1.4v.2ZM137.3,110.3h-1.4v-.2h1.4v.2ZM134.9,110.3h-1.4v-.2h1.4v.2ZM132.4,110.3h-1.4v-.2h1.4v.2ZM130,110.3h-1.4v-.2h1.4v.2ZM127.6,110.3h-1.4v-.2h1.4v.2ZM125.2,110.3h-1.4v-.2h1.4v.2ZM122.8,110.3h-1.4v-.2h1.4v.2ZM120.4,110.3h-1.4v-.2h1.4v.2ZM118,110.3h-1.4v-.2h1.4v.2ZM115.6,110.3h-1.4v-.2h1.4v.2ZM113.2,110.3h-1.4v-.2h1.4v.2ZM110.8,110.3h-1.4v-.2h1.4v.2ZM108.4,110.3h-1.4v-.2h1.4v.2ZM106,110.3h-1.4v-.2h1.4v.2ZM103.6,110.3h-1.4v-.2h1.4v.2ZM101.1,110.3h-1.4v-.2h1.4v.2ZM98.7,110.3h-1.4v-.2h1.4v.2ZM96.3,110.3h-1.4v-.2h1.4v.2ZM93.9,110.3h-1.4v-.2h1.4v.2ZM91.5,110.3h-1.4v-.2h1.4v.2ZM89.1,110.3h-1.4v-.2h1.4v.2ZM86.7,110.3h-1.4v-.2h1.4v.2ZM84.3,110.3h-1.4v-.2h1.4v.2ZM81.9,110.3h-1.4v-.2h1.4v.2ZM79.5,110.3h-1.4v-.2h1.4v.2ZM77.1,110.3h-1.4v-.2h1.4v.2ZM74.7,110.3h-1.4v-.2h1.4v.2ZM72.3,110.3h-1.4v-.2h1.4v.2ZM69.8,110.3h-1.4v-.2h1.4v.2ZM67.4,110.3h-1.4v-.2h1.4v.2ZM65,110.3h-1.4v-.2h1.4v.2ZM62.6,110.3h-1.4v-.2h1.4v.2ZM60.2,110.3h-1.4v-.2h1.4v.2ZM57.8,110.3h-1.4v-.2h1.4v.2ZM55.4,110.3h-1.4v-.2h1.4v.2ZM53,110.3h-1.4v-.2h1.4v.2ZM50.6,110.3h-1.4v-.2h1.4v.2ZM48.2,110.3h-1.4v-.2h1.4v.2ZM45.8,110.3h-1.4v-.2h1.4v.2ZM43.4,110.3h-1.4v-.2h1.4v.2ZM41,110.3h-1.4v-.2h1.4v.2ZM38.5,110.3h-1.4v-.2h1.4v.2ZM36.1,110.3h-1.4v-.2h1.4v.2ZM33.7,110.3h-1.4v-.2h1.4v.2ZM31.3,110.3h-1.4v-.2h1.4v.2ZM28.9,110.3h-1.4v-.2h1.4v.2ZM26.5,110.3h-1.4v-.2h1.4v.2ZM24.1,110.3h-1.4v-.2h1.4v.2Z"/>
            <rect class="cls-4" x="22.7" y="121.2" width="150.2" height=".2"/>
            <rect class="cls-4" x="15.9" y="108.9" width="4.2" height="2.4" rx=".9" ry=".9"/>
            <rect class="cls-4" x="24.3" y="123.2" width="128.4" height="2.4" rx=".9" ry=".9"/>
            <rect class="cls-4" x="15.9" y="97.9" width="4.2" height="2.4" rx=".9" ry=".9"/>
            <rect class="cls-4" x="15.9" y="86.9" width="4.2" height="2.4" rx=".9" ry=".9"/>
            <rect class="cls-4" x="15.9" y="75.5" width="4.2" height="2.4" rx=".9" ry=".9"/>
            <rect class="cls-4" x="15.9" y="64.5" width="4.2" height="2.4" rx=".9" ry=".9"/>
            <path class="cls-3" d="M117.9,91.9l-.4-2.3c-.5-3-4.7-2.8-5,.1l-1.4,14c-.4,3.8-5.6,4.5-7,.9l-.6-1.5c-.2-.4-.4-.8-.7-1.2l-2.3-2.5c-1-1.1-2.6-1.1-3.7-.2-1.5,1.4-4,.6-4.3-1.5l-1.8-10c-.5-3-4.8-3.1-5.4-.1l-.7,3.3c-.4,2-3.2,2.1-3.8,0-.6-2.1-3.6-1.9-3.8.3l-1.9,17.5c-.4,3.9-5.8,4.5-7,.8v-.4c-.3-.4-.5-.7-.7-1.1l-1.9-2.4c-1.1-1.4-3.3-1.1-4,.5-.9,2.2-4.1,1.8-4.5-.6l-3.2-20.6c-.2-1.6-2.2-2.2-3.3-1.1-1,1.1-2.8.6-3.2-.8l-1.2-4.1c-1-3.3-5.5-3.5-6.8-.4l-1,2.4-1.1,2c-1.5,2.8-5.7,2.1-6.3-1-.7-3.9-6.3-3.6-6.7.3l-1.3,15.1v20.1c0,2,1.6,3.6,3.6,3.6h139.1c2,0,3.6-1.6,3.6-3.6v-48.1c0-.2,0-.4,0-.5l-.9-6c-.6-4.2-6.7-4.1-7.2.1l-1.9,17.6c0,.2,0,.4-.1.6l-2.5,8.6c-.8,2.6-4.4,2.9-5.5.4-.8-1.9-3.3-2.3-4.7-.9l-2.1,2.1-1.3,1.6c-1.5,1.8-4.5,1.1-5-1.3-.7-3.2-5.3-3-5.6.3l-.5,4.4c-.4,3.4-5.2,3.4-5.6,0l-.6-4.1c-.3-2.3-3.5-2.5-4.1-.2-.5,2.2-3.7,2.1-4.1-.2Z"/>
            <path class="cls-7" d="M71.8,112.4c-1.5,0-3.2-.8-3.9-2.8v-.4c-.3-.3-.4-.6-.6-.9l-1.9-2.4c-.4-.5-1-.8-1.7-.7-.7,0-1.2.5-1.5,1.1-.5,1.2-1.7,1.9-2.9,1.7-1.3-.2-2.2-1.1-2.4-2.4l-3.2-20.6c0-.6-.5-1-1-1.2-.5-.2-1.1,0-1.5.4-.6.6-1.5.9-2.3.7-.8-.2-1.5-.8-1.7-1.7l-1.2-4.1c-.5-1.6-1.8-2.2-2.8-2.3-1.1,0-2.4.4-3.1,1.9l-1,2.5-1.1,2c-.8,1.5-2.4,2.2-4,2-1.6-.3-2.9-1.5-3.2-3.1-.3-1.7-1.7-2.4-3-2.4-1.3,0-2.6.9-2.7,2.7l-1.3,15.1h-1c0,0,1.3-15.1,1.3-15.1.2-2.3,2-3.5,3.6-3.5,1.7,0,3.6.9,4,3.2.3,1.5,1.4,2.2,2.4,2.3,1,.2,2.3-.2,3-1.5l1.1-2,1-2.4c.7-1.6,2.2-2.6,4-2.5,1.8,0,3.2,1.3,3.7,3l1.2,4.1c.1.5.5.9,1,1,.5.1,1,0,1.4-.4.6-.7,1.6-.9,2.5-.6.9.3,1.5,1,1.7,1.9l3.2,20.6c.2,1,1,1.5,1.6,1.6.6,0,1.5-.2,1.9-1.1.4-.9,1.2-1.6,2.2-1.7,1-.1,2,.3,2.6,1.1l1.9,2.4c.3.4.5.8.6,1.2v.4c.7,1.8,2.3,2.3,3.5,2.1,1.2-.1,2.6-.9,2.8-2.8l1.9-17.5c.1-1.4,1.2-2.1,2.2-2.2,1,0,2.2.4,2.5,1.8.2.8.9,1.1,1.4,1.1.5,0,1.2-.3,1.4-1.2l.7-3.3c.4-1.8,1.9-2.6,3.2-2.6,1.3,0,2.8.9,3.1,2.7l1.8,10c.1.8.7,1.4,1.4,1.7.7.3,1.5,0,2.1-.4,1.3-1.2,3.2-1.1,4.4.2l2.3,2.5c.4.4.6.8.8,1.3l.6,1.5c.6,1.7,2.2,2.2,3.3,2,1.1-.1,2.5-1,2.7-2.8l1.4-14c.2-1.8,1.6-2.7,2.9-2.7,1.3,0,2.8.8,3.1,2.6l.4,2.3c.1,1,.9,1.3,1.5,1.4.6,0,1.4-.3,1.6-1.2.3-1.4,1.6-2,2.6-2,1.1,0,2.2.8,2.4,2.2l.6,4.1c.2,1.4,1.3,2.1,2.3,2.1s0,0,0,0c1,0,2.2-.7,2.3-2.1l.5-4.4c.2-2,1.7-2.9,3.2-3,1.4,0,3,.7,3.4,2.7.2.9.8,1.6,1.7,1.8.9.2,1.8,0,2.4-.8l1.4-1.6,2.1-2.1c.8-.8,1.9-1.1,3-.9,1.1.2,2,.9,2.5,2,.5,1.2,1.6,1.5,2.4,1.5.8,0,1.8-.5,2.2-1.8l2.5-8.6c0-.2,0-.4.1-.6l1.9-17.3c.3-2.5,2.3-3.6,4-3.7,0,0,0,0,0,0,1.7,0,3.7,1.1,4.1,3.5l.9,5.9h-1c0,.1-.9-5.8-.9-5.8-.3-1.9-1.8-2.7-3.2-2.7-1.4,0-2.9.9-3.1,2.8l-1.9,17.3c0,.2,0,.5-.1.7l-2.5,8.6c-.4,1.4-1.6,2.4-3,2.4-1.4,0-2.7-.7-3.3-2-.3-.7-1-1.3-1.8-1.4-.8-.2-1.6,0-2.2.7l-2.1,2.1-1.3,1.6c-.8,1-2.1,1.4-3.4,1.1-1.2-.3-2.2-1.3-2.5-2.6-.3-1.5-1.5-2-2.4-1.9-.9,0-2.1.6-2.3,2.1l-.5,4.4c-.2,2-1.8,3-3.3,3,0,0,0,0,0,0-1.4,0-3-.9-3.3-2.9l-.6-4.1c-.1-1-.9-1.4-1.5-1.4-.6,0-1.4.3-1.6,1.2-.3,1.4-1.5,2-2.6,2-1,0-2.2-.7-2.4-2.2l-.4-2.3c-.2-1.2-1.2-1.8-2.1-1.7-.9,0-1.9.6-2,1.9l-1.4,14c-.2,2.3-1.9,3.5-3.5,3.7-1.6.2-3.6-.5-4.4-2.7l-.6-1.5c-.1-.4-.3-.7-.6-1l-2.3-2.5c-.8-.9-2.1-.9-3-.1-.8.8-2,1-3.1.6-1.1-.4-1.8-1.3-2-2.4l-1.8-10c-.2-1.4-1.3-1.9-2.2-1.9-.9,0-2,.4-2.3,1.8l-.7,3.3c-.2,1.1-1.2,1.9-2.3,1.9-1.1,0-2.1-.7-2.4-1.8-.2-.9-1-1.1-1.5-1.1-.6,0-1.2.4-1.3,1.3l-1.9,17.5c-.2,2.3-2,3.5-3.6,3.7-.1,0-.3,0-.4,0Z"/>
          </g>
        </g>
      </g>
    </g>
  </g>
</svg>