<?xml version="1.0" encoding="UTF-8"?>
<svg id="Capa_1" data-name="Capa 1" xmlns="http://www.w3.org/2000/svg" xmlns:xlink="http://www.w3.org/1999/xlink" version="1.1" viewBox="0 0 170.1 170.1">
  <defs>
    <style>
      .cls-1 {
        fill: #1e1e1e;
      }

      .cls-1, .cls-2, .cls-3, .cls-4, .cls-5, .cls-6, .cls-7, .cls-8, .cls-9 {
        stroke-width: 0px;
      }

      .cls-10 {
        clip-path: url(#clippath);
      }

      .cls-2 {
        fill: none;
      }

      .cls-3 {
        fill: #3869b0;
      }

      .cls-11 {
        clip-path: url(#clippath-1);
      }

      .cls-4 {
        fill: #393a3a;
      }

      .cls-5 {
        fill: #444;
      }

      .cls-6 {
        fill: #2b2b2b;
      }

      .cls-7 {
        fill: #4b494a;
      }

      .cls-8 {
        fill: #fff;
      }

      .cls-9 {
        fill: #1f1f1f;
        isolation: isolate;
        opacity: .7;
      }
    </style>
    <clipPath id="clippath">
      <rect class="cls-2" x="7.2" y="7.6" width="155.5" height="155.1"/>
    </clipPath>
    <clipPath id="clippath-1">
      <rect class="cls-2" x="11.1" y="39.5" width="94.8" height="91.1"/>
    </clipPath>
  </defs>
  <rect class="cls-4" y="0" width="170.1" height="170.1" rx="7.6" ry="7.6"/>
  <g class="cls-10">
    <g>
      <g>
        <rect class="cls-1" x="7" y="33.4" width="155.2" height="103.2" rx="6.2" ry="6.2"/>
        <path class="cls-6" d="M156,136.8H13.3c-3.6,0-6.4-2.9-6.4-6.4V39.6c0-3.6,2.9-6.4,6.4-6.4h142.7c3.6,0,6.4,2.9,6.4,6.4v90.7c0,3.6-2.9,6.4-6.4,6.4h0ZM13.3,33.6c-3.3,0-6,2.7-6,6v90.7c0,3.3,2.7,6,6,6h142.7c3.3,0,6-2.7,6-6V39.6c0-3.3-2.7-6-6-6H13.3Z"/>
      </g>
      <g class="cls-11">
        <g>
          <g>
            <g>
              <rect class="cls-1" x="7.5" y="31.9" width="155.6" height="102.3" rx="6.2" ry="6.2"/>
              <path class="cls-6" d="M156.8,134.4H13.8c-3.6,0-6.4-2.9-6.4-6.4V38.1c0-3.6,2.9-6.4,6.4-6.4h143.1c3.6,0,6.4,2.9,6.4,6.4v89.8c0,3.6-2.9,6.4-6.4,6.4h-.1ZM13.8,32.1c-3.3,0-6,2.7-6,6v89.8c0,3.3,2.7,6,6,6h143.1c3.3,0,6-2.7,6-6V38.1c0-3.3-2.7-6-6-6H13.8Z"/>
            </g>
            <g>
              <rect class="cls-5" x="15.5" y="39.7" width="140.4" height="86.8" rx="6.2" ry="6.2"/>
              <rect class="cls-1" x="15.5" y="95.1" width="140.4" height="7.1"/>
              <rect class="cls-1" x="27.2" y="39.7" width="5" height="55.5"/>
              <rect class="cls-1" x="56.3" y="39.7" width="5" height="55.5"/>
              <rect class="cls-1" x="71.4" y="39.7" width="5" height="32.5"/>
              <rect class="cls-1" x="129.2" y="39.7" width="5" height="46.3"/>
              <rect class="cls-1" x="56.8" y="68.8" width="34.2" height="5"/>
              <rect class="cls-1" x="27.2" y="109.7" width="34.2" height="5"/>
              <rect class="cls-1" x="85.5" y="39.7" width="5" height="55.5"/>
              <rect class="cls-1" x="114.6" y="39.7" width="5" height="55.5"/>
              <rect class="cls-1" x="143.8" y="39.7" width="5" height="55.5"/>
              <rect class="cls-1" x="27.2" y="102.3" width="5" height="24.1"/>
              <rect class="cls-1" x="56.3" y="102.3" width="5" height="24.1"/>
              <rect class="cls-1" x="85.5" y="102.3" width="5" height="24.1"/>
              <rect class="cls-1" x="114.6" y="102.3" width="5" height="24.1"/>
              <rect class="cls-1" x="143.8" y="102.3" width="5" height="24.1"/>
            </g>
          </g>
          <rect class="cls-8" x="114.2" y="39.5" width="5" height="56"/>
          <rect class="cls-8" x="143.3" y="39.5" width="5" height="56"/>
          <rect class="cls-8" x="114.2" y="102.8" width="5" height="24.3"/>
          <rect class="cls-8" x="143.3" y="102.8" width="5" height="24.3"/>
        </g>
      </g>
      <circle class="cls-3" cx="92.8" cy="102.3" r="5.8"/>
      <circle class="cls-3" cx="82.2" cy="71.9" r="5.8"/>
      <circle class="cls-3" cx="27" cy="50.8" r="5.8"/>
      <circle class="cls-3" cx="26.9" cy="112.2" r="5.8"/>
      <path class="cls-8" d="M28.1,53.6h-1.5v-4.7l-1.4.4v-1.1l2.8-1h.1v6.3h0Z"/>
      <path class="cls-8" d="M84.4,74.6h-4.4v-1l2-2.1c.5-.6.8-1,.8-1.4s0-.5-.2-.6c0,0-.3-.2-.5-.2s-.4,0-.5.3-.2.4-.2.7h-1.5c0-.4,0-.7.3-1.1.2-.3.5-.6.8-.8.3-.2.7-.3,1.2-.3s1.2.2,1.6.5.6.8.6,1.4,0,.5,0,.7c0,.2-.2.5-.4.7-.2.3-.5.6-.9,1l-.8.9h2.5v1.1l-.3.2Z"/>
      <path class="cls-8" d="M28.6,112.6h.6v1.1h-.6v1.3h-1.5v-1.3h-2.4v-.9l2.4-4.1h1.5v3.8h0ZM26,112.6h1.1v-1.9h0c0,0-1,1.9-1,1.9h-.1Z"/>
      <path class="cls-8" d="M92,101.7h.7c.5,0,.8-.3.8-.8s0-.4-.2-.5c0,0-.3-.2-.6-.2s-.4,0-.5.2c0,0-.2.3-.2.4h-1.5c0-.3,0-.6.3-.9.2-.3.4-.5.8-.6.3,0,.7-.2,1.1-.2.7,0,1.3.2,1.7.5.4.3.6.8.6,1.3s0,.5-.2.8c-.2.2-.4.4-.7.6.3,0,.6.3.8.6.2.2.3.6.3.9,0,.6-.2,1-.7,1.3-.4.3-1,.5-1.7.5s-.8,0-1.2-.2c-.4-.2-.6-.4-.8-.7-.2-.3-.3-.6-.3-1h1.5c0,.2,0,.4.2.5s.3.2.6.2.5,0,.6-.2.2-.3.2-.5c0-.3,0-.5-.2-.7-.2,0-.4-.2-.7-.2h-.7v-1.1h0Z"/>
      <path class="cls-9" d="M13.1-82.8h143.4c3.4,0,6.1,2.8,6.1,6.2V13.9c0,3.4-2.8,6.2-6.1,6.2H13.1c-3.4,0-6.1-2.8-6.1-6.2v-90.5c0-3.4,2.8-6.2,6.1-6.2Z"/>
      <rect class="cls-9" x="7" y="149.8" width="157" height="99.8" rx="6.2" ry="6.2"/>
      <g>
        <rect class="cls-7" x="112.3" y="42.8" width="44.4" height="4.4" rx="1.9" ry="1.9"/>
        <g>
          <g>
            <rect class="cls-7" x="118.4" y="58.1" width="28.8" height="4.4" rx="1.9" ry="1.9"/>
            <rect class="cls-7" x="118.4" y="64.8" width="24.2" height="4.4" rx="1.9" ry="1.9"/>
            <path class="cls-3" d="M115.2,65.4h-1.5v-4.7l-1.4.4v-1.1l2.8-1h0v6.3h0Z"/>
          </g>
          <g>
            <rect class="cls-7" x="118.4" y="76.1" width="28.7" height="4.4" rx="1.9" ry="1.9"/>
            <rect class="cls-7" x="118.4" y="82.8" width="28.7" height="4.4" rx="1.9" ry="1.9"/>
            <path class="cls-3" d="M116.3,83.1h-4.4v-1l2-2.1c.5-.6.8-1,.8-1.4s0-.5-.2-.6c0,0-.3-.2-.5-.2s-.4,0-.5.3c0,.2-.2.4-.2.7h-1.5c0-.4,0-.7.3-1.1.2-.3.5-.6.8-.8.3-.2.7-.3,1.2-.3s1.2.2,1.6.5.6.8.6,1.4,0,.5,0,.7c0,.2-.2.5-.4.7-.2.3-.5.6-.9,1l-.8.9h2.5v1.1l-.3.2Z"/>
          </g>
          <g>
            <rect class="cls-7" x="118.4" y="94.1" width="28.8" height="4.4" rx="1.9" ry="1.9"/>
            <rect class="cls-7" x="118.4" y="100.8" width="22.9" height="4.4" rx="1.9" ry="1.9"/>
            <path class="cls-3" d="M113.3,98.2h.7c.5,0,.8-.3.8-.8s0-.4-.2-.5c0,0-.3-.2-.6-.2s-.4,0-.5.2c0,0-.2.3-.2.4h-1.5c0-.3,0-.6.3-.9.2-.3.4-.5.8-.6.3,0,.7-.2,1.1-.2.7,0,1.3.2,1.7.5.4.3.6.8.6,1.3s0,.5-.2.8c-.2.2-.4.4-.7.6.3,0,.6.3.8.6.2.2.3.6.3.9,0,.6-.2,1-.7,1.3-.4.3-1,.5-1.7.5s-.8,0-1.2-.2c-.4-.2-.6-.4-.8-.7-.2-.3-.3-.6-.3-1h1.5c0,.2,0,.4.2.5s.3.2.6.2.5,0,.6-.2.2-.3.2-.5c0-.3,0-.5-.2-.7-.2,0-.4-.2-.7-.2h-.7v-1.1h0Z"/>
          </g>
          <g>
            <rect class="cls-7" x="119.1" y="112.1" width="27.9" height="4.4" rx="1.9" ry="1.9"/>
            <rect class="cls-7" x="119.1" y="118.8" width="13.1" height="4.4" rx="1.9" ry="1.9"/>
            <path class="cls-3" d="M115.8,117.2h.6v1.1h-.6v1.3h-1.5v-1.3h-2.4v-.9l2.4-4.1h1.5v3.8h0ZM113.2,117.2h1.1v-1.9h0c0,0-1,1.9-1,1.9h0Z"/>
          </g>
        </g>
      </g>
    </g>
  </g>
</svg>