<?xml version="1.0" encoding="UTF-8"?>
<svg id="Capa_1" data-name="Capa 1" xmlns="http://www.w3.org/2000/svg" xmlns:xlink="http://www.w3.org/1999/xlink" version="1.1" viewBox="0 0 170.1 170.1">
  <defs>
    <style>
      .cls-1 {
        fill: #1e1e1e;
      }

      .cls-1, .cls-2, .cls-3, .cls-4, .cls-5, .cls-6, .cls-7, .cls-8, .cls-9 {
        stroke-width: 0px;
      }

      .cls-10 {
        clip-path: url(#clippath);
      }

      .cls-2 {
        fill: none;
      }

      .cls-3 {
        fill: #4a494a;
      }

      .cls-4 {
        fill: #7c7c7c;
      }

      .cls-5 {
        fill: #393a3a;
      }

      .cls-11 {
        opacity: .7;
      }

      .cls-6 {
        fill: #86c0ea;
      }

      .cls-7 {
        fill: #2b2b2b;
      }

      .cls-8 {
        fill: #202020;
      }

      .cls-9 {
        fill: #223a80;
      }
    </style>
    <clipPath id="clippath">
      <rect class="cls-2" x="7.5" y="7.8" width="155.1" height="155.1"/>
    </clipPath>
  </defs>
  <rect class="cls-5" y=".3" width="170.1" height="170.1" rx="7.6" ry="7.6"/>
  <g class="cls-10">
    <g>
      <g>
        <g>
          <path class="cls-1" d="M14.4,45.3h141.7c3.4,0,6.1,2.7,6.1,6.1v67.7c0,3.4-2.7,6.1-6.1,6.1H14.2c-3.4,0-6.1-2.7-6.1-6.1V51.5c0-3.4,2.8-6.2,6.2-6.2h0Z"/>
          <path class="cls-7" d="M156,125.4H14.2c-3.5,0-6.3-2.8-6.3-6.3V51.5c0-3.5,2.8-6.4,6.4-6.4h141.8c3.5,0,6.3,2.8,6.3,6.3v67.7c0,3.5-2.7,6.3-6.3,6.3ZM14.3,45.5c-3.3,0-6,2.7-6,6v67.6c0,3.3,2.6,5.9,5.9,5.9h141.9c3.3,0,5.9-2.6,5.9-5.9V51.4c0-3.3-2.6-5.9-5.9-5.9H14.3Z"/>
        </g>
        <rect class="cls-3" x="17.6" y="103.2" width="42.1" height="5.5" rx="2.2" ry="2.2"/>
        <path class="cls-3" d="M67.9,103.2h37.8c1.2,0,2.2,1,2.2,2.2v1.1c0,1.2-1,2.2-2.2,2.2h-37.8c-1.2,0-2.2-1-2.2-2.2v-1.1c0-1.2,1-2.2,2.2-2.2Z"/>
        <path class="cls-3" d="M115.9,103.2h37.8c1.2,0,2.2,1,2.2,2.2v1.1c0,1.2-1,2.2-2.2,2.2h-37.8c-1.2,0-2.2-1-2.2-2.2v-1.1c0-1.2,1-2.2,2.2-2.2Z"/>
        <g>
          <path class="cls-9" d="M66.4,65.6h24.4c4.4,0,8,3.6,8,8v1.8c0,4.4-3.6,8-8,8h-24.4c-4.4,0-8-3.6-8-8v-1.8c0-4.4,3.6-8,8-8Z"/>
          <g>
            <path class="cls-4" d="M34.5,76c0,2.6-.5,4.6-1.6,6-1.1,1.4-2.7,2.1-4.8,2.1s-3.6-.7-4.7-2c-1.1-1.4-1.6-3.3-1.7-5.8v-3.5c0-2.6.5-4.6,1.6-6s2.7-2.1,4.7-2.1,3.6.7,4.7,2c1.1,1.3,1.6,3.3,1.7,5.8v3.5h0ZM30.7,72.2c0-1.6-.2-2.7-.6-3.4s-1.1-1.1-2-1.1-1.5.3-2,1-.6,1.7-.7,3.2v4.6c0,1.5.2,2.7.6,3.4.4.7,1.1,1.1,2,1.1s1.6-.4,2-1.1.6-1.8.6-3.3v-4.5h0Z"/>
            <path class="cls-4" d="M45.8,76.3c-1,1-2.1,1.4-3.4,1.4s-3-.6-4-1.7-1.5-2.7-1.5-4.6.3-2.4.8-3.4,1.3-1.8,2.3-2.4,2.1-.9,3.3-.9,2.4.3,3.3.9,1.7,1.5,2.3,2.7c.5,1.2.8,2.5.8,4v1.4c0,3.1-.8,5.6-2.3,7.4-1.6,1.8-3.8,2.8-6.7,2.9h-.9v-3.1h.8c3.3-.2,5-1.7,5.3-4.6h0ZM43.3,74.8c.6,0,1.1-.2,1.6-.5.4-.3.8-.7,1-1.1v-1.5c0-1.3-.2-2.3-.7-3s-1.1-1.1-1.9-1.1-1.4.3-1.9,1-.7,1.6-.7,2.6.2,1.9.7,2.5,1.1,1,2,1h0Z"/>
          </g>
          <g>
            <path class="cls-6" d="M77.4,73.2l1-1.7h1.7l-1.6,2.8,1.7,3h-1.7l-1-1.8-1,1.8h-1.7l1.7-3-1.6-2.8h1.7l1,1.7h-.2Z"/>
            <path class="cls-6" d="M82.9,73.2l1-1.7h1.7l-1.6,2.8,1.7,3h-1.7l-1-1.8-1,1.8h-1.7l1.7-3-1.6-2.8h1.7l1,1.7h-.2Z"/>
            <path class="cls-6" d="M86.2,71.6c0-.4,0-.8.4-1,.3-.3.6-.4,1.1-.4s.8,0,1.1.4c.3.3.4.6.4,1.1v.3c0,.4,0,.8-.4,1-.3.3-.6.4-1.1.4s-.8,0-1.1-.4c-.3-.3-.4-.6-.4-1.1v-.3ZM87.1,72c0,.2,0,.3.2.5s.3.2.4.2.3,0,.4-.2c0,0,.2-.3.2-.5v-.4c0-.2,0-.3-.2-.5s-.3-.2-.4-.2-.3,0-.4.2-.2.3-.2.5v.4ZM88,76.8l-.7-.4,3.4-5.5.7.4-3.4,5.5ZM89.5,75.6c0-.4,0-.8.4-1,.3-.3.6-.4,1.1-.4s.8,0,1.1.4c.3.3.4.6.4,1.1v.3c0,.4,0,.8-.4,1s-.6.4-1.1.4-.8,0-1.1-.4c-.3-.3-.4-.6-.4-1.1v-.4h0ZM90.5,75.9c0,.2,0,.3.2.5s.3.2.4.2c.4,0,.6-.2.6-.7v-.4c0-.2,0-.3-.2-.5s-.3-.2-.4-.2-.3,0-.4.2-.2.3-.2.5v.4Z"/>
          </g>
          <g>
            <polygon class="cls-6" points="70.4 74.1 68 71.4 65.5 74.1 65.3 73.9 68 71.1 70.6 73.9 70.4 74.1"/>
            <rect class="cls-6" x="67.9" y="71.3" width=".2" height="6.4"/>
          </g>
        </g>
      </g>
      <g class="cls-11">
        <path class="cls-8" d="M13.6-40.9h142.3c3.4,0,6.1,2.7,6.1,6.1V25.9c0,3.4-2.7,6.1-6.1,6.1H13.6c-3.4,0-6.1-2.7-6.1-6.1v-60.7c0-3.4,2.7-6.1,6.1-6.1Z"/>
      </g>
      <g class="cls-11">
        <path class="cls-8" d="M13.6,138.6h142.3c3.4,0,6.1,2.7,6.1,6.1v61c0,3.4-2.7,6.1-6.1,6.1H13.6c-3.4,0-6.1-2.7-6.1-6.1v-61c0-3.4,2.7-6.1,6.1-6.1Z"/>
      </g>
    </g>
  </g>
</svg>