<svg width="301" height="466" viewBox="0 0 301 466" fill="none" xmlns="http://www.w3.org/2000/svg">
<rect width="60" height="14" rx="7" fill="#E6E6E6"/>
<rect x="68" width="14" height="14" rx="7" fill="#E6E6E6"/>
<rect x="231" width="70" height="14" rx="7" fill="#E6E6E6"/>
<path d="M0 26H301" stroke="#E6E6E6" stroke-width="2"/>
<g clip-path="url(#clip0_12961_252861)">
<path d="M6.39844 43.6172V55H3.95312V46.3984L1.3125 47.2031V45.3125L6.15625 43.6172H6.39844ZM10.1641 46.8438V46.2422C10.1641 45.7005 10.2734 45.2214 10.4922 44.8047C10.7161 44.388 11.0286 44.0625 11.4297 43.8281C11.8307 43.5885 12.3073 43.4688 12.8594 43.4688C13.4219 43.4688 13.9036 43.5885 14.3047 43.8281C14.7109 44.0625 15.0208 44.388 15.2344 44.8047C15.4531 45.2214 15.5625 45.7005 15.5625 46.2422V46.8438C15.5625 47.3802 15.4531 47.8568 15.2344 48.2734C15.0208 48.6901 14.7135 49.0182 14.3125 49.2578C13.9115 49.4922 13.4323 49.6094 12.875 49.6094C12.3177 49.6094 11.8359 49.4922 11.4297 49.2578C11.0286 49.0182 10.7161 48.6901 10.4922 48.2734C10.2734 47.8568 10.1641 47.3802 10.1641 46.8438ZM11.5156 46.2422V46.8438C11.5156 47.151 11.5651 47.4297 11.6641 47.6797C11.763 47.9297 11.9141 48.125 12.1172 48.2656C12.3203 48.4062 12.5729 48.4766 12.875 48.4766C13.1771 48.4766 13.4271 48.4062 13.625 48.2656C13.8229 48.125 13.9688 47.9297 14.0625 47.6797C14.1615 47.4297 14.2109 47.151 14.2109 46.8438V46.2422C14.2109 45.9297 14.1615 45.6536 14.0625 45.4141C13.9635 45.1693 13.8151 44.9766 13.6172 44.8359C13.4193 44.6901 13.1667 44.6172 12.8594 44.6172C12.5625 44.6172 12.3125 44.6901 12.1094 44.8359C11.9115 44.9766 11.763 45.1693 11.6641 45.4141C11.5651 45.6536 11.5156 45.9297 11.5156 46.2422Z" fill="#0066FF"/>
<rect x="29" y="44" width="60" height="14" rx="7" fill="#E6E6E6"/>
<rect x="29" y="70" width="60" height="14" rx="7" fill="#E6E6E6"/>
<rect x="29" y="96" width="60" height="14" rx="7" fill="#E6E6E6"/>
<rect x="271" y="44" width="30" height="14" rx="7" fill="#E6E6E6"/>
<path d="M0 128H301" stroke="#E6E6E6"/>
<path d="M8.60156 155.102V157H0.742188V155.391L4.41406 151.5C4.75781 151.104 5.03125 150.755 5.23438 150.453C5.44271 150.151 5.59375 149.878 5.6875 149.633C5.78125 149.383 5.82812 149.154 5.82812 148.945C5.82812 148.607 5.77344 148.32 5.66406 148.086C5.5599 147.852 5.40625 147.672 5.20312 147.547C5 147.422 4.7526 147.359 4.46094 147.359C4.14844 147.359 3.88021 147.44 3.65625 147.602C3.43229 147.763 3.26042 147.987 3.14062 148.273C3.02083 148.555 2.96094 148.875 2.96094 149.234H0.507812C0.507812 148.542 0.674479 147.911 1.00781 147.344C1.34115 146.771 1.80729 146.315 2.40625 145.977C3.00521 145.633 3.70573 145.461 4.50781 145.461C5.33073 145.461 6.02083 145.591 6.57812 145.852C7.13542 146.112 7.55729 146.484 7.84375 146.969C8.13021 147.453 8.27344 148.036 8.27344 148.719C8.27344 149.104 8.21094 149.477 8.08594 149.836C7.96615 150.195 7.79167 150.552 7.5625 150.906C7.33333 151.26 7.05729 151.622 6.73438 151.992C6.41146 152.357 6.04688 152.742 5.64062 153.148L3.92188 155.102H8.60156ZM10.1641 148.844V148.242C10.1641 147.701 10.2734 147.221 10.4922 146.805C10.7161 146.388 11.0286 146.062 11.4297 145.828C11.8307 145.589 12.3073 145.469 12.8594 145.469C13.4219 145.469 13.9036 145.589 14.3047 145.828C14.7109 146.062 15.0208 146.388 15.2344 146.805C15.4531 147.221 15.5625 147.701 15.5625 148.242V148.844C15.5625 149.38 15.4531 149.857 15.2344 150.273C15.0208 150.69 14.7135 151.018 14.3125 151.258C13.9115 151.492 13.4323 151.609 12.875 151.609C12.3177 151.609 11.8359 151.492 11.4297 151.258C11.0286 151.018 10.7161 150.69 10.4922 150.273C10.2734 149.857 10.1641 149.38 10.1641 148.844ZM11.5156 148.242V148.844C11.5156 149.151 11.5651 149.43 11.6641 149.68C11.763 149.93 11.9141 150.125 12.1172 150.266C12.3203 150.406 12.5729 150.477 12.875 150.477C13.1771 150.477 13.4271 150.406 13.625 150.266C13.8229 150.125 13.9688 149.93 14.0625 149.68C14.1615 149.43 14.2109 149.151 14.2109 148.844V148.242C14.2109 147.93 14.1615 147.654 14.0625 147.414C13.9635 147.169 13.8151 146.977 13.6172 146.836C13.4193 146.69 13.1667 146.617 12.8594 146.617C12.5625 146.617 12.3125 146.69 12.1094 146.836C11.9115 146.977 11.763 147.169 11.6641 147.414C11.5651 147.654 11.5156 147.93 11.5156 148.242Z" fill="#0066FF"/>
<rect x="29" y="146" width="60" height="14" rx="7" fill="#E6E6E6"/>
<rect x="29" y="166" width="90" height="8" rx="4" fill="#E6E6E6"/>
<rect x="29" y="186" width="60" height="14" rx="7" fill="#E6E6E6"/>
<rect x="29" y="206" width="90" height="8" rx="4" fill="#E6E6E6"/>
<rect x="271" y="146" width="30" height="14" rx="7" fill="#E6E6E6"/>
<path d="M0 232H301" stroke="#E6E6E6"/>
<path d="M3.09375 254.273H4.33594C4.6901 254.273 4.98177 254.211 5.21094 254.086C5.44531 253.961 5.61719 253.784 5.72656 253.555C5.84115 253.326 5.89844 253.057 5.89844 252.75C5.89844 252.484 5.84635 252.247 5.74219 252.039C5.63802 251.831 5.47917 251.667 5.26562 251.547C5.05729 251.422 4.78646 251.359 4.45312 251.359C4.21354 251.359 3.98438 251.409 3.76562 251.508C3.55208 251.602 3.3776 251.74 3.24219 251.922C3.10677 252.099 3.03906 252.312 3.03906 252.562H0.59375C0.59375 251.927 0.765625 251.378 1.10938 250.914C1.45833 250.451 1.91927 250.094 2.49219 249.844C3.07031 249.589 3.70052 249.461 4.38281 249.461C5.16927 249.461 5.85938 249.586 6.45312 249.836C7.05208 250.081 7.51562 250.445 7.84375 250.93C8.17708 251.409 8.34375 252.003 8.34375 252.711C8.34375 253.081 8.25521 253.438 8.07812 253.781C7.90625 254.12 7.65885 254.422 7.33594 254.688C7.01823 254.948 6.63802 255.156 6.19531 255.312C5.75781 255.464 5.27083 255.539 4.73438 255.539H3.09375V254.273ZM3.09375 256.109V254.867H4.73438C5.32812 254.867 5.85938 254.935 6.32812 255.07C6.79688 255.206 7.19531 255.401 7.52344 255.656C7.85156 255.911 8.10156 256.221 8.27344 256.586C8.44531 256.951 8.53125 257.357 8.53125 257.805C8.53125 258.336 8.42708 258.81 8.21875 259.227C8.01042 259.643 7.71875 259.995 7.34375 260.281C6.96875 260.568 6.52865 260.786 6.02344 260.938C5.51823 261.083 4.97135 261.156 4.38281 261.156C3.90885 261.156 3.4375 261.091 2.96875 260.961C2.5 260.831 2.07552 260.633 1.69531 260.367C1.3151 260.096 1.01042 259.755 0.78125 259.344C0.552083 258.927 0.4375 258.432 0.4375 257.859H2.88281C2.88281 258.125 2.95052 258.365 3.08594 258.578C3.22656 258.786 3.41667 258.953 3.65625 259.078C3.90104 259.198 4.16667 259.258 4.45312 259.258C4.79688 259.258 5.08854 259.195 5.32812 259.07C5.57292 258.94 5.75781 258.763 5.88281 258.539C6.01302 258.315 6.07812 258.057 6.07812 257.766C6.07812 257.37 6.00781 257.052 5.86719 256.812C5.73177 256.568 5.53385 256.391 5.27344 256.281C5.01302 256.167 4.70052 256.109 4.33594 256.109H3.09375ZM10.1641 252.844V252.242C10.1641 251.701 10.2734 251.221 10.4922 250.805C10.7161 250.388 11.0286 250.062 11.4297 249.828C11.8307 249.589 12.3073 249.469 12.8594 249.469C13.4219 249.469 13.9036 249.589 14.3047 249.828C14.7109 250.062 15.0208 250.388 15.2344 250.805C15.4531 251.221 15.5625 251.701 15.5625 252.242V252.844C15.5625 253.38 15.4531 253.857 15.2344 254.273C15.0208 254.69 14.7135 255.018 14.3125 255.258C13.9115 255.492 13.4323 255.609 12.875 255.609C12.3177 255.609 11.8359 255.492 11.4297 255.258C11.0286 255.018 10.7161 254.69 10.4922 254.273C10.2734 253.857 10.1641 253.38 10.1641 252.844ZM11.5156 252.242V252.844C11.5156 253.151 11.5651 253.43 11.6641 253.68C11.763 253.93 11.9141 254.125 12.1172 254.266C12.3203 254.406 12.5729 254.477 12.875 254.477C13.1771 254.477 13.4271 254.406 13.625 254.266C13.8229 254.125 13.9688 253.93 14.0625 253.68C14.1615 253.43 14.2109 253.151 14.2109 252.844V252.242C14.2109 251.93 14.1615 251.654 14.0625 251.414C13.9635 251.169 13.8151 250.977 13.6172 250.836C13.4193 250.69 13.1667 250.617 12.8594 250.617C12.5625 250.617 12.3125 250.69 12.1094 250.836C11.9115 250.977 11.763 251.169 11.6641 251.414C11.5651 251.654 11.5156 251.93 11.5156 252.242Z" fill="#0066FF"/>
<rect x="29" y="250" width="60" height="14" rx="7" fill="#E6E6E6"/>
<rect x="29" y="270" width="90" height="8" rx="4" fill="#E6E6E6"/>
<rect x="271" y="250" width="30" height="14" rx="7" fill="#E6E6E6"/>
<path d="M0 296H301" stroke="#E6E6E6"/>
<path d="M8.77344 320.656V322.547H0.585938L0.453125 321.062L5.10938 313.625H7.03906L4.94531 317.094L2.82812 320.656H8.77344ZM7.55469 313.625V325H5.11719V313.625H7.55469ZM10.1641 316.844V316.242C10.1641 315.701 10.2734 315.221 10.4922 314.805C10.7161 314.388 11.0286 314.062 11.4297 313.828C11.8307 313.589 12.3073 313.469 12.8594 313.469C13.4219 313.469 13.9036 313.589 14.3047 313.828C14.7109 314.062 15.0208 314.388 15.2344 314.805C15.4531 315.221 15.5625 315.701 15.5625 316.242V316.844C15.5625 317.38 15.4531 317.857 15.2344 318.273C15.0208 318.69 14.7135 319.018 14.3125 319.258C13.9115 319.492 13.4323 319.609 12.875 319.609C12.3177 319.609 11.8359 319.492 11.4297 319.258C11.0286 319.018 10.7161 318.69 10.4922 318.273C10.2734 317.857 10.1641 317.38 10.1641 316.844ZM11.5156 316.242V316.844C11.5156 317.151 11.5651 317.43 11.6641 317.68C11.763 317.93 11.9141 318.125 12.1172 318.266C12.3203 318.406 12.5729 318.477 12.875 318.477C13.1771 318.477 13.4271 318.406 13.625 318.266C13.8229 318.125 13.9688 317.93 14.0625 317.68C14.1615 317.43 14.2109 317.151 14.2109 316.844V316.242C14.2109 315.93 14.1615 315.654 14.0625 315.414C13.9635 315.169 13.8151 314.977 13.6172 314.836C13.4193 314.69 13.1667 314.617 12.8594 314.617C12.5625 314.617 12.3125 314.69 12.1094 314.836C11.9115 314.977 11.763 315.169 11.6641 315.414C11.5651 315.654 11.5156 315.93 11.5156 316.242Z" fill="#0066FF"/>
<rect x="29" y="314" width="60" height="14" rx="7" fill="#E6E6E6"/>
<rect x="29" y="334" width="90" height="8" rx="4" fill="#E6E6E6"/>
<rect x="271" y="314" width="30" height="14" rx="7" fill="#E6E6E6"/>
<path d="M0 360H301" stroke="#E6E6E6"/>
<path d="M2.92188 383.875L0.984375 383.414L1.64844 377.625H8.16406V379.555H3.64844L3.375 381.953C3.51562 381.87 3.73698 381.779 4.03906 381.68C4.34115 381.576 4.67969 381.523 5.05469 381.523C5.61198 381.523 6.10677 381.609 6.53906 381.781C6.97135 381.953 7.33594 382.203 7.63281 382.531C7.9349 382.854 8.16146 383.253 8.3125 383.727C8.46875 384.201 8.54688 384.74 8.54688 385.344C8.54688 385.844 8.46875 386.323 8.3125 386.781C8.15625 387.234 7.91667 387.641 7.59375 388C7.27604 388.354 6.8724 388.635 6.38281 388.844C5.89323 389.052 5.31771 389.156 4.65625 389.156C4.15625 389.156 3.67188 389.081 3.20312 388.93C2.73438 388.779 2.3125 388.56 1.9375 388.273C1.56771 387.982 1.27344 387.628 1.05469 387.211C0.841146 386.794 0.731771 386.326 0.726562 385.805H3.16406C3.1901 386.107 3.26562 386.367 3.39062 386.586C3.51562 386.799 3.6849 386.966 3.89844 387.086C4.11198 387.201 4.35938 387.258 4.64062 387.258C4.91146 387.258 5.14062 387.206 5.32812 387.102C5.51562 386.992 5.66406 386.844 5.77344 386.656C5.88802 386.469 5.97135 386.25 6.02344 386C6.07552 385.75 6.10156 385.482 6.10156 385.195C6.10156 384.898 6.06771 384.633 6 384.398C5.93229 384.159 5.82812 383.956 5.6875 383.789C5.54688 383.617 5.36719 383.487 5.14844 383.398C4.9349 383.305 4.67708 383.258 4.375 383.258C3.97917 383.258 3.66927 383.323 3.44531 383.453C3.22135 383.583 3.04688 383.724 2.92188 383.875ZM10.1641 380.844V380.242C10.1641 379.701 10.2734 379.221 10.4922 378.805C10.7161 378.388 11.0286 378.062 11.4297 377.828C11.8307 377.589 12.3073 377.469 12.8594 377.469C13.4219 377.469 13.9036 377.589 14.3047 377.828C14.7109 378.062 15.0208 378.388 15.2344 378.805C15.4531 379.221 15.5625 379.701 15.5625 380.242V380.844C15.5625 381.38 15.4531 381.857 15.2344 382.273C15.0208 382.69 14.7135 383.018 14.3125 383.258C13.9115 383.492 13.4323 383.609 12.875 383.609C12.3177 383.609 11.8359 383.492 11.4297 383.258C11.0286 383.018 10.7161 382.69 10.4922 382.273C10.2734 381.857 10.1641 381.38 10.1641 380.844ZM11.5156 380.242V380.844C11.5156 381.151 11.5651 381.43 11.6641 381.68C11.763 381.93 11.9141 382.125 12.1172 382.266C12.3203 382.406 12.5729 382.477 12.875 382.477C13.1771 382.477 13.4271 382.406 13.625 382.266C13.8229 382.125 13.9688 381.93 14.0625 381.68C14.1615 381.43 14.2109 381.151 14.2109 380.844V380.242C14.2109 379.93 14.1615 379.654 14.0625 379.414C13.9635 379.169 13.8151 378.977 13.6172 378.836C13.4193 378.69 13.1667 378.617 12.8594 378.617C12.5625 378.617 12.3125 378.69 12.1094 378.836C11.9115 378.977 11.763 379.169 11.6641 379.414C11.5651 379.654 11.5156 379.93 11.5156 380.242Z" fill="#0066FF"/>
<rect x="29" y="378" width="60" height="14" rx="7" fill="#E6E6E6"/>
<rect x="29" y="398" width="90" height="8" rx="4" fill="#E6E6E6"/>
<rect x="271" y="378" width="30" height="14" rx="7" fill="#E6E6E6"/>
<path d="M0 424H301" stroke="#E6E6E6"/>
<path d="M6.60938 441.484H6.98438V443.422H6.84375C6.29688 443.422 5.79688 443.5 5.34375 443.656C4.89583 443.812 4.50781 444.044 4.17969 444.352C3.85156 444.654 3.59896 445.029 3.42188 445.477C3.25 445.919 3.16406 446.43 3.16406 447.008V448.945C3.16406 449.336 3.19792 449.677 3.26562 449.969C3.33854 450.255 3.44271 450.495 3.57812 450.688C3.71875 450.875 3.88802 451.018 4.08594 451.117C4.28385 451.211 4.50781 451.258 4.75781 451.258C4.98177 451.258 5.1875 451.208 5.375 451.109C5.5625 451.01 5.72396 450.87 5.85938 450.688C5.99479 450.505 6.09896 450.294 6.17188 450.055C6.24479 449.81 6.28125 449.544 6.28125 449.258C6.28125 448.956 6.24219 448.682 6.16406 448.438C6.09115 448.188 5.98438 447.974 5.84375 447.797C5.70833 447.62 5.54167 447.484 5.34375 447.391C5.14583 447.292 4.92708 447.242 4.6875 447.242C4.34375 447.242 4.04688 447.32 3.79688 447.477C3.54688 447.633 3.35417 447.833 3.21875 448.078C3.08333 448.323 3.01302 448.573 3.00781 448.828L2.35938 448.289C2.35938 447.935 2.42969 447.586 2.57031 447.242C2.71615 446.893 2.92188 446.578 3.1875 446.297C3.45312 446.01 3.77865 445.784 4.16406 445.617C4.55469 445.445 5 445.359 5.5 445.359C6.02604 445.359 6.48958 445.461 6.89062 445.664C7.29167 445.862 7.6276 446.138 7.89844 446.492C8.17448 446.846 8.38021 447.26 8.51562 447.734C8.65625 448.203 8.72656 448.706 8.72656 449.242C8.72656 449.794 8.63021 450.31 8.4375 450.789C8.25 451.263 7.98438 451.677 7.64062 452.031C7.29688 452.385 6.88542 452.661 6.40625 452.859C5.93229 453.057 5.40365 453.156 4.82031 453.156C4.21615 453.156 3.66406 453.049 3.16406 452.836C2.66927 452.622 2.23698 452.318 1.86719 451.922C1.5026 451.521 1.21875 451.042 1.01562 450.484C0.817708 449.927 0.71875 449.302 0.71875 448.609V447.695C0.71875 446.747 0.864583 445.893 1.15625 445.133C1.45312 444.372 1.86458 443.721 2.39062 443.18C2.92188 442.633 3.54688 442.214 4.26562 441.922C4.98438 441.63 5.76562 441.484 6.60938 441.484ZM10.1641 444.844V444.242C10.1641 443.701 10.2734 443.221 10.4922 442.805C10.7161 442.388 11.0286 442.062 11.4297 441.828C11.8307 441.589 12.3073 441.469 12.8594 441.469C13.4219 441.469 13.9036 441.589 14.3047 441.828C14.7109 442.062 15.0208 442.388 15.2344 442.805C15.4531 443.221 15.5625 443.701 15.5625 444.242V444.844C15.5625 445.38 15.4531 445.857 15.2344 446.273C15.0208 446.69 14.7135 447.018 14.3125 447.258C13.9115 447.492 13.4323 447.609 12.875 447.609C12.3177 447.609 11.8359 447.492 11.4297 447.258C11.0286 447.018 10.7161 446.69 10.4922 446.273C10.2734 445.857 10.1641 445.38 10.1641 444.844ZM11.5156 444.242V444.844C11.5156 445.151 11.5651 445.43 11.6641 445.68C11.763 445.93 11.9141 446.125 12.1172 446.266C12.3203 446.406 12.5729 446.477 12.875 446.477C13.1771 446.477 13.4271 446.406 13.625 446.266C13.8229 446.125 13.9688 445.93 14.0625 445.68C14.1615 445.43 14.2109 445.151 14.2109 444.844V444.242C14.2109 443.93 14.1615 443.654 14.0625 443.414C13.9635 443.169 13.8151 442.977 13.6172 442.836C13.4193 442.69 13.1667 442.617 12.8594 442.617C12.5625 442.617 12.3125 442.69 12.1094 442.836C11.9115 442.977 11.763 443.169 11.6641 443.414C11.5651 443.654 11.5156 443.93 11.5156 444.242Z" fill="#0066FF"/>
<rect x="29" y="442" width="60" height="14" rx="7" fill="#E6E6E6"/>
<rect x="29" y="462" width="90" height="8" rx="4" fill="#E6E6E6"/>
<rect x="271" y="442" width="30" height="14" rx="7" fill="#E6E6E6"/>
</g>
<defs>
<clipPath id="clip0_12961_252861">
<rect width="301" height="440" fill="white" transform="translate(0 26)"/>
</clipPath>
</defs>
</svg>
