<svg width="301" height="466" viewBox="0 0 301 466" fill="none" xmlns="http://www.w3.org/2000/svg">
<mask id="path-1-inside-1_9829_330278" fill="white">
<path d="M150.5 52.5C170.265 52.5 189.836 56.3931 208.096 63.957L193.121 100.108C179.608 94.5109 165.126 91.63 150.5 91.63L150.5 52.5Z"/>
</mask>
<path d="M150.5 52.5C170.265 52.5 189.836 56.3931 208.096 63.957L193.121 100.108C179.608 94.5109 165.126 91.63 150.5 91.63L150.5 52.5Z" stroke="#EB4747" stroke-width="92" mask="url(#path-1-inside-1_9829_330278)"/>
<mask id="path-2-inside-2_9829_330278" fill="white">
<path d="M208.099 63.9583C236.005 75.5187 259.787 95.2088 276.352 120.468C292.916 145.727 301.497 175.386 300.978 205.587C300.459 235.788 290.863 265.135 273.44 289.809C256.017 314.484 231.573 333.345 203.286 343.939L189.561 307.295C210.494 299.455 228.583 285.498 241.476 267.239C254.369 248.98 261.469 227.263 261.854 204.914C262.238 182.565 255.888 160.618 243.63 141.926C231.373 123.235 213.774 108.664 193.123 100.109L208.099 63.9583Z"/>
</mask>
<path d="M208.099 63.9583C236.005 75.5187 259.787 95.2088 276.352 120.468C292.916 145.727 301.497 175.386 300.978 205.587C300.459 235.788 290.863 265.135 273.44 289.809C256.017 314.484 231.573 333.345 203.286 343.939L189.561 307.295C210.494 299.455 228.583 285.498 241.476 267.239C254.369 248.98 261.469 227.263 261.854 204.914C262.238 182.565 255.888 160.618 243.63 141.926C231.373 123.235 213.774 108.664 193.123 100.109L208.099 63.9583Z" stroke="#F59C3D" stroke-width="92" mask="url(#path-2-inside-2_9829_330278)"/>
<mask id="path-3-inside-3_9829_330278" fill="white">
<path d="M203.29 343.938C169.813 356.477 132.965 356.69 99.3454 344.54C65.7254 332.389 37.5284 308.667 19.8031 277.623C2.0779 246.578 -4.01798 210.238 2.60699 175.109C9.23196 139.98 28.1451 108.356 55.96 85.8999L80.5404 116.346C59.9574 132.963 45.9616 156.365 41.0592 182.361C36.1567 208.356 40.6676 235.248 53.7843 258.221C66.901 281.194 87.7668 298.748 112.646 307.739C137.524 316.731 164.791 316.573 189.564 307.294L203.29 343.938Z"/>
</mask>
<path d="M203.29 343.938C169.813 356.477 132.965 356.69 99.3454 344.54C65.7254 332.389 37.5284 308.667 19.8031 277.623C2.0779 246.578 -4.01798 210.238 2.60699 175.109C9.23196 139.98 28.1451 108.356 55.96 85.8999L80.5404 116.346C59.9574 132.963 45.9616 156.365 41.0592 182.361C36.1567 208.356 40.6676 235.248 53.7843 258.221C66.901 281.194 87.7668 298.748 112.646 307.739C137.524 316.731 164.791 316.573 189.564 307.294L203.29 343.938Z" stroke="#F5D93D" stroke-width="92" mask="url(#path-3-inside-3_9829_330278)"/>
<mask id="path-4-inside-4_9829_330278" fill="white">
<path d="M55.9567 85.9026C59.9397 82.6867 64.0842 79.6762 68.374 76.8827L89.7268 109.673C86.5523 111.74 83.4854 113.968 80.538 116.348L55.9567 85.9026Z"/>
</mask>
<path d="M55.9567 85.9026C59.9397 82.6867 64.0842 79.6762 68.374 76.8827L89.7268 109.673C86.5523 111.74 83.4854 113.968 80.538 116.348L55.9567 85.9026Z" stroke="#40BF62" stroke-width="92" mask="url(#path-4-inside-4_9829_330278)"/>
<mask id="path-5-inside-5_9829_330278" fill="white">
<path d="M68.3376 76.9065C72.6266 74.1118 77.0554 71.5377 81.6067 69.1943L99.519 103.984C96.151 105.718 92.8737 107.623 89.6998 109.691L68.3376 76.9065Z"/>
</mask>
<path d="M68.3376 76.9065C72.6266 74.1118 77.0554 71.5377 81.6067 69.1943L99.519 103.984C96.151 105.718 92.8737 107.623 89.6998 109.691L68.3376 76.9065Z" stroke="#3DC4F5" stroke-width="92" mask="url(#path-5-inside-5_9829_330278)"/>
<mask id="path-6-inside-6_9829_330278" fill="white">
<path d="M81.5972 69.1992C102.92 58.2187 126.559 52.4932 150.543 52.5L150.532 91.63C132.783 91.625 115.291 95.8618 99.5119 103.987L81.5972 69.1992Z"/>
</mask>
<path d="M81.5972 69.1992C102.92 58.2187 126.559 52.4932 150.543 52.5L150.532 91.63C132.783 91.625 115.291 95.8618 99.5119 103.987L81.5972 69.1992Z" stroke="#0D69F2" stroke-width="92" mask="url(#path-6-inside-6_9829_330278)"/>
<circle cx="39.5" cy="436" r="6" fill="#EB4747"/>
<rect x="48.5" y="430" width="78" height="12" rx="6" fill="#E6E6E6"/>
<circle cx="144.5" cy="436" r="6" fill="#F59C3D"/>
<rect x="153.5" y="430" width="50" height="12" rx="6" fill="#E6E6E6"/>
<circle cx="221.5" cy="436" r="6" fill="#F5D93D"/>
<rect x="230.5" y="430" width="37" height="12" rx="6" fill="#E6E6E6"/>
<circle cx="39" cy="460" r="6" fill="#40BF62"/>
<rect x="48" y="454" width="50" height="12" rx="6" fill="#E6E6E6"/>
<circle cx="116" cy="460" r="6" fill="#3DC4F5"/>
<rect x="125" y="454" width="72" height="12" rx="6" fill="#E6E6E6"/>
<circle cx="215" cy="460" r="6" fill="#0D69F2"/>
<rect x="224" y="454" width="44" height="12" rx="6" fill="#E6E6E6"/>
</svg>
