<svg width="301" height="466" viewBox="0 0 301 466" fill="none" xmlns="http://www.w3.org/2000/svg">
<mask id="path-1-inside-1_10087_398197" fill="white">
<path d="M150.5 1.23544e-05C163.633 1.1973e-05 176.637 2.58678 188.77 7.61261L178.82 31.6333C169.841 27.9142 160.218 26 150.5 26L150.5 1.23544e-05Z"/>
</mask>
<path d="M150.5 1.23544e-05C163.633 1.1973e-05 176.637 2.58678 188.77 7.61261L178.82 31.6333C169.841 27.9142 160.218 26 150.5 26L150.5 1.23544e-05Z" stroke="#EB4747" stroke-width="92" mask="url(#path-1-inside-1_10087_398197)"/>
<mask id="path-2-inside-2_10087_398197" fill="white">
<path d="M188.772 7.61351C207.314 15.2948 223.116 28.3779 234.122 45.1613C245.129 61.9446 250.83 81.6515 250.485 101.719C250.14 121.786 243.765 141.286 232.188 157.681C220.611 174.076 204.369 186.608 185.574 193.647L176.454 169.299C190.363 164.09 202.382 154.816 210.949 142.684C219.516 130.551 224.234 116.122 224.489 101.272C224.744 86.4221 220.525 71.839 212.381 59.4193C204.236 46.9997 192.542 37.3182 178.821 31.634L188.772 7.61351Z"/>
</mask>
<path d="M188.772 7.61351C207.314 15.2948 223.116 28.3779 234.122 45.1613C245.129 61.9446 250.83 81.6515 250.485 101.719C250.14 121.786 243.765 141.286 232.188 157.681C220.611 174.076 204.369 186.608 185.574 193.647L176.454 169.299C190.363 164.09 202.382 154.816 210.949 142.684C219.516 130.551 224.234 116.122 224.489 101.272C224.744 86.4221 220.525 71.839 212.381 59.4193C204.236 46.9997 192.542 37.3182 178.821 31.634L188.772 7.61351Z" stroke="#F59C3D" stroke-width="92" mask="url(#path-2-inside-2_10087_398197)"/>
<mask id="path-3-inside-3_10087_398197" fill="white">
<path d="M185.576 193.646C163.332 201.978 138.849 202.12 116.51 194.046C94.1714 185.973 75.4358 170.211 63.6582 149.583C51.8807 128.956 47.8302 104.809 52.2322 81.4678C56.6342 58.1262 69.2011 37.1136 87.6827 22.1926L104.015 42.4225C90.3388 53.4641 81.0393 69.0134 77.7818 86.2862C74.5244 103.559 77.5217 121.427 86.2371 136.692C94.9525 151.956 108.817 163.62 125.348 169.594C141.878 175.569 159.996 175.464 176.456 169.298L185.576 193.646Z"/>
</mask>
<path d="M185.576 193.646C163.332 201.978 138.849 202.12 116.51 194.046C94.1714 185.973 75.4358 170.211 63.6582 149.583C51.8807 128.956 47.8302 104.809 52.2322 81.4678C56.6342 58.1262 69.2011 37.1136 87.6827 22.1926L104.015 42.4225C90.3388 53.4641 81.0393 69.0134 77.7818 86.2862C74.5244 103.559 77.5217 121.427 86.2371 136.692C94.9525 151.956 108.817 163.62 125.348 169.594C141.878 175.569 159.996 175.464 176.456 169.298L185.576 193.646Z" stroke="#F5D93D" stroke-width="92" mask="url(#path-3-inside-3_10087_398197)"/>
<mask id="path-4-inside-4_10087_398197" fill="white">
<path d="M87.6805 22.1944C90.3271 20.0576 93.0809 18.0573 95.9312 16.2011L110.119 37.9888C108.01 39.3624 105.972 40.8426 104.014 42.4238L87.6805 22.1944Z"/>
</mask>
<path d="M87.6805 22.1944C90.3271 20.0576 93.0809 18.0573 95.9312 16.2011L110.119 37.9888C108.01 39.3624 105.972 40.8426 104.014 42.4238L87.6805 22.1944Z" stroke="#40BF62" stroke-width="92" mask="url(#path-4-inside-4_10087_398197)"/>
<mask id="path-5-inside-5_10087_398197" fill="white">
<path d="M95.907 16.2169C98.7569 14.36 101.7 12.6496 104.724 11.0926L116.626 34.2085C114.388 35.3607 112.21 36.6264 110.101 38.0005L95.907 16.2169Z"/>
</mask>
<path d="M95.907 16.2169C98.7569 14.36 101.7 12.6496 104.724 11.0926L116.626 34.2085C114.388 35.3607 112.21 36.6264 110.101 38.0005L95.907 16.2169Z" stroke="#3DC4F5" stroke-width="92" mask="url(#path-5-inside-5_10087_398197)"/>
<mask id="path-6-inside-6_10087_398197" fill="white">
<path d="M104.717 11.0958C118.885 3.79976 134.592 -0.00451495 150.528 1.63969e-05L150.521 26C138.728 25.9967 127.105 28.8118 116.621 34.2109L104.717 11.0958Z"/>
</mask>
<path d="M104.717 11.0958C118.885 3.79976 134.592 -0.00451495 150.528 1.63969e-05L150.521 26C138.728 25.9967 127.105 28.8118 116.621 34.2109L104.717 11.0958Z" stroke="#0D69F2" stroke-width="92" mask="url(#path-6-inside-6_10087_398197)"/>
<rect y="224" width="60" height="14" rx="7" fill="#E6E6E6"/>
<rect x="231" y="224" width="70" height="14" rx="7" fill="#E6E6E6"/>
<path d="M0 250H301" stroke="#E6E6E6" stroke-width="2"/>
<g clip-path="url(#clip0_10087_398197)">
<circle cx="5" cy="267" r="5" fill="#EB4747"/>
<rect x="22" y="262" width="132" height="14" rx="7" fill="#E6E6E6"/>
<rect x="239" y="262" width="14" height="14" rx="7" fill="#E6E6E6"/>
<rect x="266" y="263" width="34" height="12" rx="6" fill="#E6E6E6" stroke="#E6E6E6" stroke-width="2"/>
<path d="M0 288H301" stroke="#E6E6E6"/>
<circle cx="5" cy="305" r="5" fill="#F59C3D"/>
<rect x="22" y="300" width="100" height="14" rx="7" fill="#E6E6E6"/>
<rect x="239" y="300" width="14" height="14" rx="7" fill="#E6E6E6"/>
<rect x="266" y="301" width="34" height="12" rx="6" fill="#E6E6E6" stroke="#E6E6E6" stroke-width="2"/>
<path d="M0 326H301" stroke="#E6E6E6"/>
<circle cx="5" cy="343" r="5" fill="#F5D93D"/>
<rect x="22" y="338" width="132" height="14" rx="7" fill="#E6E6E6"/>
<rect x="239" y="338" width="14" height="14" rx="7" fill="#E6E6E6"/>
<rect x="266" y="339" width="34" height="12" rx="6" fill="#E6E6E6" stroke="#E6E6E6" stroke-width="2"/>
<path d="M0 364H301" stroke="#E6E6E6"/>
<circle cx="5" cy="381" r="5" fill="#40BF62"/>
<rect x="22" y="376" width="100" height="14" rx="7" fill="#E6E6E6"/>
<rect x="239" y="376" width="14" height="14" rx="7" fill="#E6E6E6"/>
<rect x="266" y="377" width="34" height="12" rx="6" fill="#E6E6E6" stroke="#E6E6E6" stroke-width="2"/>
<path d="M0 402H301" stroke="#E6E6E6"/>
<circle cx="5" cy="419" r="5" fill="#3DC4F5"/>
<rect x="22" y="414" width="132" height="14" rx="7" fill="#E6E6E6"/>
<rect x="239" y="414" width="14" height="14" rx="7" fill="#E6E6E6"/>
<rect x="266" y="415" width="34" height="12" rx="6" fill="#E6E6E6" stroke="#E6E6E6" stroke-width="2"/>
</g>
<defs>
<clipPath id="clip0_10087_398197">
<rect width="301" height="166" fill="white" transform="translate(0 262)"/>
</clipPath>
</defs>
</svg>
