<svg width="699" height="466" viewBox="0 0 699 466" fill="none" xmlns="http://www.w3.org/2000/svg">
<rect width="12" height="12" rx="6" fill="#E6E6E6"/>
<rect y="86" width="12" height="12" rx="6" fill="#E6E6E6"/>
<rect y="172" width="12" height="12" rx="6" fill="#E6E6E6"/>
<rect y="258" width="12" height="12" rx="6" fill="#E6E6E6"/>
<rect y="344" width="12" height="12" rx="6" fill="#E6E6E6"/>
<rect y="430" width="12" height="12" rx="6" fill="#E6E6E6"/>
<path d="M24 6H698" stroke="#E6E6E6" stroke-dasharray="6 4"/>
<path d="M24 92H698" stroke="#E6E6E6" stroke-dasharray="6 4"/>
<path d="M24 178H698" stroke="#E6E6E6" stroke-dasharray="6 4"/>
<path d="M24 264H698" stroke="#E6E6E6" stroke-dasharray="6 4"/>
<path d="M24 350H698" stroke="#E6E6E6" stroke-dasharray="6 4"/>
<path d="M24 436H698" stroke="#CCCCCC"/>
<path d="M85.3865 251.123L31.9133 346.585C30.6588 348.825 30 351.349 30 353.916V436.001H692.5V234.722C692.5 232.459 691.988 230.225 691.002 228.188L641.013 124.892C635.303 113.093 618.271 113.779 613.527 125.997L566.956 245.958C563.001 256.145 549.831 258.82 542.216 250.984L506.816 214.558C500.198 207.748 488.998 208.723 483.657 216.574L444.639 273.929C437.826 283.943 422.566 282.17 418.231 270.86L368.153 140.207C364.731 131.279 353.943 127.788 345.94 133.019L309.302 156.968C301.722 161.922 291.514 159.082 287.582 150.924L247.585 67.9319C241.427 55.1543 222.614 57.2711 219.45 71.0977L170.103 286.715C167.273 299.081 151.324 302.569 143.591 292.513L110.363 249.309C103.8 240.775 90.6483 241.73 85.3865 251.123Z" fill="url(#paint0_linear_10087_398365)"/>
<path d="M30 350.001L85.3865 251.123C90.6483 241.73 103.8 240.775 110.363 249.309L143.591 292.513C151.324 302.569 167.273 299.081 170.103 286.715L219.45 71.0977C222.614 57.2711 241.427 55.1543 247.585 67.9319L287.582 150.924C291.514 159.082 301.722 161.922 309.302 156.968L345.94 133.019C353.943 127.788 364.731 131.279 368.153 140.207L418.231 270.86C422.566 282.17 437.826 283.943 444.639 273.929L483.657 216.574C488.998 208.723 500.198 207.748 506.816 214.558L542.216 250.984C549.831 258.82 563.001 256.145 566.956 245.958L613.527 125.997C618.271 113.779 635.303 113.093 641.013 124.892L692.5 231.283" stroke="#0D69F2" stroke-width="4"/>
<rect x="24" y="454" width="12" height="12" rx="6" fill="#E6E6E6"/>
<rect x="90.3008" y="454" width="12" height="12" rx="6" fill="#E6E6E6"/>
<rect x="156.6" y="454" width="12" height="12" rx="6" fill="#E6E6E6"/>
<rect x="222.9" y="454" width="12" height="12" rx="6" fill="#E6E6E6"/>
<rect x="289.199" y="454" width="12" height="12" rx="6" fill="#E6E6E6"/>
<rect x="355.5" y="454" width="12" height="12" rx="6" fill="#E6E6E6"/>
<rect x="421.801" y="454" width="12" height="12" rx="6" fill="#E6E6E6"/>
<rect x="488.1" y="454" width="12" height="12" rx="6" fill="#E6E6E6"/>
<rect x="554.4" y="454" width="12" height="12" rx="6" fill="#E6E6E6"/>
<rect x="620.699" y="454" width="12" height="12" rx="6" fill="#E6E6E6"/>
<rect x="687" y="454" width="12" height="12" rx="6" fill="#E6E6E6"/>
<defs>
<linearGradient id="paint0_linear_10087_398365" x1="361.25" y1="29.3701" x2="361.25" y2="467.316" gradientUnits="userSpaceOnUse">
<stop stop-color="#99CDFF" stop-opacity="0.4"/>
<stop offset="1" stop-color="#99E4FF" stop-opacity="0"/>
</linearGradient>
</defs>
</svg>
