<svg width="415" height="80" viewBox="0 0 415 80" fill="none" xmlns="http://www.w3.org/2000/svg">
<path d="M17.627 17.5322L7.95898 47H0.170898L13.3789 11.4531H18.335L17.627 17.5322ZM25.6592 47L15.9668 17.5322L15.1855 11.4531H20.1904L33.4717 47H25.6592ZM25.2197 33.7676V39.5049H6.44531V33.7676H25.2197ZM62.4756 41.2871V47H37.2803V41.2871H62.4756ZM62.1094 15.5303L40.5273 47H35.376V42.8008L57.1289 11.4531H62.1094V15.5303ZM59.5947 11.4531V17.1904H35.4004V11.4531H59.5947Z" fill="#666666"/>
<rect x="76" y="12.5" width="75" height="34" rx="16" fill="#E5F6FF"/>
<path d="M98.5 28.2539C98.4688 28.2539 98.4375 28.25 98.4062 28.2422C98.375 28.2266 98.3477 28.2031 98.3242 28.1719L94 23.8477L89.6758 28.1719C89.6289 28.2266 89.5703 28.2539 89.5 28.2539C89.4297 28.2539 89.3711 28.2266 89.3242 28.1719C89.2773 28.125 89.2539 28.0703 89.2539 28.0078C89.2539 27.9375 89.2773 27.875 89.3242 27.8203L93.8242 23.3203C93.8711 23.2734 93.9297 23.25 94 23.25C94.0703 23.25 94.1289 23.2734 94.1758 23.3203L98.6758 27.8203C98.7227 27.875 98.7461 27.9375 98.7461 28.0078C98.7461 28.0703 98.7227 28.125 98.6758 28.1719C98.6523 28.2031 98.625 28.2266 98.5938 28.2422C98.5625 28.25 98.5312 28.2539 98.5 28.2539ZM94 35.25C93.9297 35.25 93.8711 35.2227 93.8242 35.168C93.7773 35.1211 93.7539 35.0664 93.7539 35.0039V23.4961C93.7539 23.4336 93.7773 23.3789 93.8242 23.332C93.8711 23.2773 93.9297 23.25 94 23.25C94.0703 23.25 94.1289 23.2773 94.1758 23.332C94.2227 23.3789 94.2461 23.4336 94.2461 23.4961V35.0039C94.2461 35.0664 94.2227 35.1211 94.1758 35.168C94.1289 35.2227 94.0703 35.25 94 35.25Z" fill="#0066FF"/>
<path d="M109.477 23.125L111.477 27L113.477 23.125H116.383L113.148 28.7656L116.469 34.5H113.539L111.477 30.5547L109.422 34.5H106.484L109.812 28.7656L106.57 23.125H109.477ZM119.664 23.125L121.664 27L123.664 23.125H126.57L123.336 28.7656L126.656 34.5H123.727L121.664 30.5547L119.609 34.5H116.672L120 28.7656L116.758 23.125H119.664ZM127.484 25.9141V25.3125C127.484 24.8802 127.578 24.487 127.766 24.1328C127.953 23.7786 128.232 23.4948 128.602 23.2812C128.977 23.0677 129.435 22.9609 129.977 22.9609C130.539 22.9609 131.005 23.0677 131.375 23.2812C131.745 23.4948 132.021 23.7786 132.203 24.1328C132.391 24.487 132.484 24.8802 132.484 25.3125V25.9141C132.484 26.3359 132.391 26.724 132.203 27.0781C132.021 27.4323 131.745 27.7161 131.375 27.9297C131.01 28.1432 130.552 28.25 130 28.25C129.448 28.25 128.984 28.1432 128.609 27.9297C128.24 27.7161 127.958 27.4323 127.766 27.0781C127.578 26.724 127.484 26.3359 127.484 25.9141ZM129.078 25.3125V25.9141C129.078 26.0859 129.112 26.2474 129.18 26.3984C129.247 26.5495 129.349 26.6719 129.484 26.7656C129.62 26.8594 129.789 26.9062 129.992 26.9062C130.201 26.9062 130.37 26.8594 130.5 26.7656C130.63 26.6719 130.727 26.5495 130.789 26.3984C130.857 26.2474 130.891 26.0859 130.891 25.9141V25.3125C130.891 25.1354 130.857 24.9714 130.789 24.8203C130.727 24.6641 130.628 24.5391 130.492 24.4453C130.357 24.3516 130.185 24.3047 129.977 24.3047C129.779 24.3047 129.612 24.3516 129.477 24.4453C129.346 24.5391 129.247 24.6641 129.18 24.8203C129.112 24.9714 129.078 25.1354 129.078 25.3125ZM132.906 32.3125V31.7109C132.906 31.2839 133 30.8932 133.188 30.5391C133.38 30.1849 133.661 29.901 134.031 29.6875C134.406 29.474 134.867 29.3672 135.414 29.3672C135.971 29.3672 136.435 29.474 136.805 29.6875C137.174 29.901 137.451 30.1849 137.633 30.5391C137.82 30.8932 137.914 31.2839 137.914 31.7109V32.3125C137.914 32.7396 137.82 33.1302 137.633 33.4844C137.451 33.8385 137.174 34.1224 136.805 34.3359C136.44 34.5495 135.984 34.6562 135.438 34.6562C134.88 34.6562 134.414 34.5495 134.039 34.3359C133.664 34.1224 133.38 33.8385 133.188 33.4844C133 33.1302 132.906 32.7396 132.906 32.3125ZM134.508 31.7109V32.3125C134.508 32.4896 134.547 32.6536 134.625 32.8047C134.703 32.9557 134.812 33.0781 134.953 33.1719C135.094 33.2656 135.253 33.3125 135.43 33.3125C135.674 33.3125 135.859 33.2656 135.984 33.1719C136.115 33.0781 136.203 32.9557 136.25 32.8047C136.297 32.6536 136.32 32.4896 136.32 32.3125V31.7109C136.32 31.5339 136.286 31.3698 136.219 31.2188C136.156 31.0677 136.057 30.9453 135.922 30.8516C135.786 30.7578 135.617 30.7109 135.414 30.7109C135.211 30.7109 135.042 30.7578 134.906 30.8516C134.771 30.9453 134.669 31.0677 134.602 31.2188C134.539 31.3698 134.508 31.5339 134.508 31.7109ZM136.023 24.7578L130.469 33.6484L129.305 33.0469L134.859 24.1562L136.023 24.7578Z" fill="#0066FF"/>
<rect y="71" width="78" height="9" rx="4.5" fill="#E6E6E6"/>
<rect x="84" y="71" width="78" height="9" rx="4.5" fill="#E6E6E6"/>
<rect x="168" y="71" width="78" height="9" rx="4.5" fill="#E6E6E6"/>
</svg>
