<svg width="415" height="80" viewBox="0 0 415 80" fill="none" xmlns="http://www.w3.org/2000/svg">
<path d="M26.3672 26.1016V32.2539C26.3672 34.9232 26.0824 37.2262 25.5127 39.1631C24.943 41.0837 24.1211 42.6624 23.0469 43.8994C21.9889 45.1201 20.7275 46.0234 19.2627 46.6094C17.7979 47.1953 16.1702 47.4883 14.3799 47.4883C12.9476 47.4883 11.613 47.3092 10.376 46.9512C9.139 46.5768 8.02409 45.999 7.03125 45.2178C6.05469 44.4365 5.20833 43.4518 4.49219 42.2637C3.79232 41.0592 3.25521 39.627 2.88086 37.9668C2.50651 36.3066 2.31934 34.4023 2.31934 32.2539V26.1016C2.31934 23.4323 2.60417 21.1455 3.17383 19.2412C3.75977 17.3206 4.58171 15.75 5.63965 14.5293C6.71387 13.3086 7.9834 12.4134 9.44824 11.8438C10.9131 11.2578 12.5407 10.9648 14.3311 10.9648C15.7633 10.9648 17.0898 11.152 18.3105 11.5264C19.5475 11.8844 20.6624 12.446 21.6553 13.2109C22.6481 13.9759 23.4945 14.9606 24.1943 16.165C24.8942 17.3532 25.4313 18.7773 25.8057 20.4375C26.18 22.0814 26.3672 23.9694 26.3672 26.1016ZM19.3115 33.1816V25.1494C19.3115 23.8636 19.2383 22.7406 19.0918 21.7803C18.9616 20.82 18.7581 20.0062 18.4814 19.3389C18.2048 18.6553 17.863 18.1019 17.4561 17.6787C17.0492 17.2555 16.5853 16.9463 16.0645 16.751C15.5436 16.5557 14.9658 16.458 14.3311 16.458C13.5335 16.458 12.8255 16.6126 12.207 16.9219C11.6048 17.2311 11.0921 17.7275 10.6689 18.4111C10.2458 19.0785 9.92025 19.9736 9.69238 21.0967C9.48079 22.2035 9.375 23.5544 9.375 25.1494V33.1816C9.375 34.4674 9.4401 35.5986 9.57031 36.5752C9.7168 37.5518 9.92839 38.39 10.2051 39.0898C10.498 39.7734 10.8398 40.335 11.2305 40.7744C11.6374 41.1976 12.1012 41.5068 12.6221 41.7021C13.1592 41.8975 13.7451 41.9951 14.3799 41.9951C15.1611 41.9951 15.8529 41.8405 16.4551 41.5312C17.0736 41.2057 17.5944 40.7012 18.0176 40.0176C18.457 39.3177 18.7826 38.4062 18.9941 37.2832C19.2057 36.1602 19.3115 34.793 19.3115 33.1816ZM36.1328 41.6533H36.5967C38.5498 41.6533 40.2262 41.4173 41.626 40.9453C43.042 40.457 44.2057 39.7572 45.1172 38.8457C46.0286 37.9342 46.7041 36.8193 47.1436 35.501C47.583 34.1663 47.8027 32.6527 47.8027 30.96V24.2217C47.8027 22.9359 47.6725 21.8047 47.4121 20.8281C47.168 19.8516 46.8099 19.0459 46.3379 18.4111C45.8822 17.7601 45.3451 17.2718 44.7266 16.9463C44.1243 16.6208 43.457 16.458 42.7246 16.458C41.9434 16.458 41.2516 16.6533 40.6494 17.0439C40.0472 17.4183 39.5345 17.931 39.1113 18.582C38.7044 19.2331 38.387 19.9818 38.1592 20.8281C37.9476 21.6582 37.8418 22.529 37.8418 23.4404C37.8418 24.3519 37.9476 25.2227 38.1592 26.0527C38.3708 26.8665 38.6882 27.5908 39.1113 28.2256C39.5345 28.8441 40.0635 29.3405 40.6982 29.7148C41.333 30.0729 42.0817 30.252 42.9443 30.252C43.7744 30.252 44.515 30.0973 45.166 29.7881C45.8333 29.4626 46.3949 29.0394 46.8506 28.5186C47.3226 27.9977 47.6807 27.4199 47.9248 26.7852C48.1852 26.1504 48.3154 25.5075 48.3154 24.8564L50.6348 26.126C50.6348 27.2653 50.3906 28.3883 49.9023 29.4951C49.4141 30.6019 48.7305 31.611 47.8516 32.5225C46.9889 33.4176 45.988 34.1338 44.8486 34.6709C43.7093 35.208 42.4886 35.4766 41.1865 35.4766C39.5264 35.4766 38.0534 35.1755 36.7676 34.5732C35.4818 33.9548 34.3913 33.1084 33.4961 32.0342C32.6172 30.9437 31.9499 29.6742 31.4941 28.2256C31.0384 26.777 30.8105 25.2064 30.8105 23.5137C30.8105 21.7884 31.0872 20.1689 31.6406 18.6553C32.2103 17.1416 33.016 15.807 34.0576 14.6514C35.1156 13.4958 36.377 12.5924 37.8418 11.9414C39.3229 11.2741 40.9668 10.9404 42.7734 10.9404C44.5801 10.9404 46.224 11.2904 47.7051 11.9902C49.1862 12.6901 50.4557 13.6829 51.5137 14.9688C52.5716 16.2383 53.3854 17.7601 53.9551 19.5342C54.541 21.3083 54.834 23.2777 54.834 25.4424V27.8838C54.834 30.195 54.5817 32.3434 54.0771 34.3291C53.5889 36.3148 52.8483 38.1133 51.8555 39.7246C50.8789 41.3197 49.6582 42.6868 48.1934 43.8262C46.7448 44.9655 45.0602 45.8363 43.1396 46.4385C41.2191 47.0407 39.0706 47.3418 36.6943 47.3418H36.1328V41.6533Z" fill="#666666"/>
<rect x="70" y="12.5" width="75" height="34" rx="16" fill="#E5F6FF"/>
<path d="M92.5 28.2539C92.4688 28.2539 92.4375 28.25 92.4062 28.2422C92.375 28.2266 92.3477 28.2031 92.3242 28.1719L88 23.8477L83.6758 28.1719C83.6289 28.2266 83.5703 28.2539 83.5 28.2539C83.4297 28.2539 83.3711 28.2266 83.3242 28.1719C83.2773 28.125 83.2539 28.0703 83.2539 28.0078C83.2539 27.9375 83.2773 27.875 83.3242 27.8203L87.8242 23.3203C87.8711 23.2734 87.9297 23.25 88 23.25C88.0703 23.25 88.1289 23.2734 88.1758 23.3203L92.6758 27.8203C92.7227 27.875 92.7461 27.9375 92.7461 28.0078C92.7461 28.0703 92.7227 28.125 92.6758 28.1719C92.6523 28.2031 92.625 28.2266 92.5938 28.2422C92.5625 28.25 92.5312 28.2539 92.5 28.2539ZM88 35.25C87.9297 35.25 87.8711 35.2227 87.8242 35.168C87.7773 35.1211 87.7539 35.0664 87.7539 35.0039V23.4961C87.7539 23.4336 87.7773 23.3789 87.8242 23.332C87.8711 23.2773 87.9297 23.25 88 23.25C88.0703 23.25 88.1289 23.2773 88.1758 23.332C88.2227 23.3789 88.2461 23.4336 88.2461 23.4961V35.0039C88.2461 35.0664 88.2227 35.1211 88.1758 35.168C88.1289 35.2227 88.0703 35.25 88 35.25Z" fill="#0066FF"/>
<path d="M103.477 23.125L105.477 27L107.477 23.125H110.383L107.148 28.7656L110.469 34.5H107.539L105.477 30.5547L103.422 34.5H100.484L103.812 28.7656L100.57 23.125H103.477ZM113.664 23.125L115.664 27L117.664 23.125H120.57L117.336 28.7656L120.656 34.5H117.727L115.664 30.5547L113.609 34.5H110.672L114 28.7656L110.758 23.125H113.664ZM121.484 25.9141V25.3125C121.484 24.8802 121.578 24.487 121.766 24.1328C121.953 23.7786 122.232 23.4948 122.602 23.2812C122.977 23.0677 123.435 22.9609 123.977 22.9609C124.539 22.9609 125.005 23.0677 125.375 23.2812C125.745 23.4948 126.021 23.7786 126.203 24.1328C126.391 24.487 126.484 24.8802 126.484 25.3125V25.9141C126.484 26.3359 126.391 26.724 126.203 27.0781C126.021 27.4323 125.745 27.7161 125.375 27.9297C125.01 28.1432 124.552 28.25 124 28.25C123.448 28.25 122.984 28.1432 122.609 27.9297C122.24 27.7161 121.958 27.4323 121.766 27.0781C121.578 26.724 121.484 26.3359 121.484 25.9141ZM123.078 25.3125V25.9141C123.078 26.0859 123.112 26.2474 123.18 26.3984C123.247 26.5495 123.349 26.6719 123.484 26.7656C123.62 26.8594 123.789 26.9062 123.992 26.9062C124.201 26.9062 124.37 26.8594 124.5 26.7656C124.63 26.6719 124.727 26.5495 124.789 26.3984C124.857 26.2474 124.891 26.0859 124.891 25.9141V25.3125C124.891 25.1354 124.857 24.9714 124.789 24.8203C124.727 24.6641 124.628 24.5391 124.492 24.4453C124.357 24.3516 124.185 24.3047 123.977 24.3047C123.779 24.3047 123.612 24.3516 123.477 24.4453C123.346 24.5391 123.247 24.6641 123.18 24.8203C123.112 24.9714 123.078 25.1354 123.078 25.3125ZM126.906 32.3125V31.7109C126.906 31.2839 127 30.8932 127.188 30.5391C127.38 30.1849 127.661 29.901 128.031 29.6875C128.406 29.474 128.867 29.3672 129.414 29.3672C129.971 29.3672 130.435 29.474 130.805 29.6875C131.174 29.901 131.451 30.1849 131.633 30.5391C131.82 30.8932 131.914 31.2839 131.914 31.7109V32.3125C131.914 32.7396 131.82 33.1302 131.633 33.4844C131.451 33.8385 131.174 34.1224 130.805 34.3359C130.44 34.5495 129.984 34.6562 129.438 34.6562C128.88 34.6562 128.414 34.5495 128.039 34.3359C127.664 34.1224 127.38 33.8385 127.188 33.4844C127 33.1302 126.906 32.7396 126.906 32.3125ZM128.508 31.7109V32.3125C128.508 32.4896 128.547 32.6536 128.625 32.8047C128.703 32.9557 128.812 33.0781 128.953 33.1719C129.094 33.2656 129.253 33.3125 129.43 33.3125C129.674 33.3125 129.859 33.2656 129.984 33.1719C130.115 33.0781 130.203 32.9557 130.25 32.8047C130.297 32.6536 130.32 32.4896 130.32 32.3125V31.7109C130.32 31.5339 130.286 31.3698 130.219 31.2188C130.156 31.0677 130.057 30.9453 129.922 30.8516C129.786 30.7578 129.617 30.7109 129.414 30.7109C129.211 30.7109 129.042 30.7578 128.906 30.8516C128.771 30.9453 128.669 31.0677 128.602 31.2188C128.539 31.3698 128.508 31.5339 128.508 31.7109ZM130.023 24.7578L124.469 33.6484L123.305 33.0469L128.859 24.1562L130.023 24.7578Z" fill="#0066FF"/>
<rect y="71" width="78" height="9" rx="4.5" fill="#E6E6E6"/>
<rect x="84" y="71" width="78" height="9" rx="4.5" fill="#E6E6E6"/>
<rect x="168" y="71" width="78" height="9" rx="4.5" fill="#E6E6E6"/>
</svg>
