<svg width="699" height="467" viewBox="0 0 699 467" fill="none" xmlns="http://www.w3.org/2000/svg">
<path fill-rule="evenodd" clip-rule="evenodd" d="M24 30V0H337V30H24Z" fill="#FA9E9E" fill-opacity="0.4"/>
<path fill-rule="evenodd" clip-rule="evenodd" d="M126.525 105.137C101.805 96.334 69.5099 90 24 90V30C75.2621 30 114.505 37.166 146.652 48.6134C178.827 60.0706 202.506 75.3435 222.512 89.5264C226.634 92.4488 230.566 95.2875 234.363 98.0284C267.08 121.646 289.734 138 337 138V198C269.639 198 232.421 170.893 199.084 146.612C195.289 143.848 191.544 141.12 187.811 138.474C169.732 125.657 151.217 113.929 126.525 105.137Z" fill="#FA9E9E" fill-opacity="0.4"/>
<path fill-rule="evenodd" clip-rule="evenodd" d="M225.878 153.448C182.276 176.059 128.916 198 24 198V108C112.628 108 151.878 90.4408 184.445 73.5521C188.149 71.631 191.876 69.6473 195.661 67.6328C229.626 49.5551 268.245 30 337 30V119C291.134 119 269.848 130.25 237.889 147.141C234.059 149.166 230.075 151.271 225.878 153.448Z" fill="#FA9E9E" fill-opacity="0.4"/>
<path fill-rule="evenodd" clip-rule="evenodd" d="M337 466H24V198H337V466Z" fill="#FA9E9E" fill-opacity="0.4"/>
<path d="M0 0H24V90H0V0Z" fill="#EB4747"/>
<path d="M0 108H24V466H0V108Z" fill="#EB4747"/>
<path fill-rule="evenodd" clip-rule="evenodd" d="M675.002 93H361V0H675.002V93Z" fill="#66A3FF" fill-opacity="0.4"/>
<path fill-rule="evenodd" clip-rule="evenodd" d="M577.146 436.293C527.489 451.521 470.989 466 361 466V138C431.246 138 455.833 130.439 478.909 123.344C479.601 123.131 480.292 122.918 480.982 122.707C481.94 122.413 482.902 122.118 483.867 121.821C526.864 108.621 577.744 93 676 93V421C626.421 421 609.491 426.258 583.777 434.243C581.635 434.908 579.433 435.592 577.146 436.293Z" fill="#66A3FF" fill-opacity="0.4"/>
<path fill-rule="evenodd" clip-rule="evenodd" d="M455.058 168.325C430.853 137.975 401.524 119 361 119V93C411.506 93 447.7 117.4 475.385 152.113C502.626 186.268 522.377 231.315 540.53 274.458C542.029 278.021 543.517 281.57 544.998 285.101C561.784 325.139 577.565 362.775 597.302 391.402C618.472 422.106 642.501 440 675 440V466C630.533 466 599.587 440.519 575.897 406.161C554.535 375.177 537.705 334.996 521.23 295.663C519.673 291.946 518.119 288.236 516.565 284.542C498.217 240.935 479.709 199.232 455.058 168.325Z" fill="#66A3FF" fill-opacity="0.4"/>
<rect x="337" width="24" height="119" fill="#0D69F2"/>
<rect x="337" y="138" width="24" height="328" fill="#0D69F2"/>
<rect x="675" y="1" width="24" height="421" fill="#40BF62"/>
<rect x="675" y="441" width="24" height="26" fill="#40BF62"/>
</svg>
