<svg width="64" height="64" viewBox="0 0 64 64" fill="none" xmlns="http://www.w3.org/2000/svg">
<path d="M0 32C0 14.3269 14.3269 0 32 0V0C49.6731 0 64 14.3269 64 32V32C64 49.6731 49.6731 64 32 64V64C14.3269 64 0 49.6731 0 32V32Z" fill="white"/>
<path fill-rule="evenodd" clip-rule="evenodd" d="M32 64C49.6731 64 64 49.6731 64 32C64 14.3269 49.6731 0 32 0C14.3269 0 0 14.3269 0 32C0 49.6731 14.3269 64 32 64ZM38.4742 39.1629L39.5 45.0843C37.27 46.2163 35.0845 47 32.3192 47C24.4249 47 20.5 41.2528 20.5 31.5435C20.5 21.9649 24.6033 16 32.1408 16C35.1291 16 37.1807 16.6096 39.0094 17.6545L38.0282 23.8371C36.1995 22.618 34.9953 22.0084 33.0775 22.0084C29.8216 22.0084 28.0376 25.2739 28.0376 31.5C28.0376 37.7697 29.8662 40.9916 33.6573 40.9916C35.1737 40.9916 36.6009 40.382 38.4742 39.1629Z" fill="#33414A"/>
</svg>
