<svg width="727" height="154" viewBox="0 0 727 154" fill="none" xmlns="http://www.w3.org/2000/svg">
<path d="M60.7871 93.479C53.937 97.041 47.2241 99.507 38.7301 99.507C14.4811 99.507 2.42505 81.423 2.42505 50.872C2.42505 20.732 15.029 1.96295 38.182 1.96295C47.361 1.96295 53.6631 3.88095 59.2801 7.16895L56.2661 26.623C50.6491 22.787 46.9501 20.869 41.0591 20.869C31.0581 20.869 25.578 31.144 25.578 50.735C25.578 70.463 31.1951 80.601 42.8401 80.601C47.4981 80.601 51.882 78.683 57.6361 74.847L60.7871 93.479Z" fill="#001466"/>
<path d="M87.4806 12.375C87.4806 18.677 82.4116 23.609 76.2466 23.609C69.9446 23.609 65.0126 18.677 65.0126 12.375C65.0126 6.07296 69.9446 1.27795 76.2466 1.27795C82.4116 1.27795 87.4806 6.07296 87.4806 12.375ZM86.1106 98H66.2456V30.87H86.1106V98Z" fill="#001466"/>
<path d="M131.019 97.726C128.279 98.411 124.306 99.096 119.648 99.096C104.852 99.096 98.1388 93.89 98.1388 77.313V47.721H90.4668V30.87H98.1388V10.457L117.182 7.30595V30.87H127.868L130.608 47.721H117.182V74.847C117.182 79.642 118.963 81.834 123.484 81.834C124.991 81.834 127.183 81.697 128.416 81.423L131.019 97.726Z" fill="#001466"/>
<path d="M157.388 12.375C157.388 18.677 152.319 23.609 146.154 23.609C139.852 23.609 134.92 18.677 134.92 12.375C134.92 6.07296 139.852 1.27795 146.154 1.27795C152.319 1.27795 157.388 6.07296 157.388 12.375ZM156.018 98H136.153V30.87H156.018V98Z" fill="#001466"/>
<path d="M210.927 98H161.196V84.3L185.582 46.762H165.169L162.566 30.87H209.557V44.707L185.034 82.108H208.324L210.927 98Z" fill="#001466"/>
<path d="M264.915 63.065C264.915 65.257 264.641 69.093 264.504 70.326H231.487C232.72 79.916 237.241 84.437 244.913 84.437C250.941 84.437 256.421 82.793 262.586 79.368L264.778 93.479C259.024 96.904 250.804 99.37 241.351 99.37C222.171 99.37 211.759 87.451 211.759 64.572C211.759 44.844 221.486 29.5 239.159 29.5C256.969 29.5 264.915 43.611 264.915 63.065ZM246.42 58.407C246.283 48.132 243.269 42.926 238.885 42.926C234.775 42.926 231.898 47.447 231.213 58.407H246.42Z" fill="#001466"/>
<path d="M323.1 98H303.235V52.105C303.235 49.228 301.728 47.173 298.851 47.173C296.248 47.173 293.508 48.68 290.905 50.735V98H271.04V30.87H287.891L289.124 37.994C293.919 33.473 299.81 29.5 306.934 29.5C318.031 29.5 323.1 35.665 323.1 46.625V98Z" fill="#001466"/>
<path d="M387.677 93.479C380.827 97.041 374.114 99.507 365.62 99.507C341.371 99.507 329.315 81.423 329.315 50.872C329.315 20.732 341.919 1.96295 365.072 1.96295C374.251 1.96295 380.553 3.88095 386.17 7.16895L383.156 26.623C377.539 22.787 373.84 20.869 367.949 20.869C357.948 20.869 352.468 31.144 352.468 50.735C352.468 70.463 358.085 80.601 369.73 80.601C374.388 80.601 378.772 78.683 384.526 74.847L387.677 93.479Z" fill="#001466"/>
<path d="M446.584 64.435C446.584 87.04 435.076 99.37 418.225 99.37C401.374 99.37 390.003 87.314 390.003 64.572C390.003 41.967 401.511 29.5 418.362 29.5C435.213 29.5 446.584 41.83 446.584 64.435ZM426.993 64.572C426.993 53.064 424.253 45.94 418.225 45.94C412.334 45.94 409.594 52.927 409.594 64.435C409.594 76.08 412.471 82.93 418.362 82.93C424.253 82.93 426.993 76.08 426.993 64.572Z" fill="#001466"/>
<path d="M504.556 98H484.691V52.105C484.691 49.228 483.184 47.173 480.307 47.173C477.704 47.173 474.964 48.68 472.361 50.735V98H452.496V30.87H469.347L470.58 37.994C475.375 33.473 481.266 29.5 488.39 29.5C499.487 29.5 504.556 35.665 504.556 46.625V98Z" fill="#001466"/>
<path d="M548.719 97.726C545.979 98.411 542.006 99.096 537.348 99.096C522.552 99.096 515.839 93.89 515.839 77.313V47.721H508.167V30.87H515.839V10.457L534.882 7.30595V30.87H545.568L548.308 47.721H534.882V74.847C534.882 79.642 536.663 81.834 541.184 81.834C542.691 81.834 544.883 81.697 546.116 81.423L548.719 97.726Z" fill="#001466"/>
<path d="M601.255 98H584.267L583.171 91.15C578.513 95.945 573.307 99.233 566.594 99.233C557.552 99.233 551.113 93.342 551.113 81.149C551.113 66.216 562.484 58.681 581.527 55.667V53.201C581.527 47.173 579.061 44.981 573.307 44.981C569.334 44.981 564.128 46.625 557.415 50.05L554.949 34.706C562.347 31.692 569.197 29.774 578.787 29.774C594.405 29.774 601.255 36.213 601.255 52.242V98ZM581.527 81.423V65.942C572.622 68.682 569.471 73.066 569.471 78.546C569.471 82.656 571.526 84.985 574.403 84.985C576.732 84.985 579.061 83.752 581.527 81.423Z" fill="#001466"/>
<path d="M652.234 94.301C647.85 97.178 642.096 99.233 635.109 99.233C616.751 99.233 606.613 87.04 606.613 64.572C606.613 42.104 617.71 29.774 634.972 29.774C642.37 29.774 647.713 31.555 651.549 33.61L648.809 50.872C644.836 48.269 641.959 47.036 637.849 47.036C630.451 47.036 626.341 53.064 626.341 64.435C626.341 76.08 630.725 81.971 638.808 81.971C642.37 81.971 645.11 80.875 649.768 78.135L652.234 94.301Z" fill="#001466"/>
<path d="M695.389 97.726C692.649 98.411 688.676 99.096 684.018 99.096C669.222 99.096 662.509 93.89 662.509 77.313V47.721H654.837V30.87H662.509V10.457L681.552 7.30595V30.87H692.238L694.978 47.721H681.552V74.847C681.552 79.642 683.333 81.834 687.854 81.834C689.361 81.834 691.553 81.697 692.786 81.423L695.389 97.726Z" fill="#001466"/>
<path d="M724.738 38.583C724.738 45.423 719.836 50.667 713.11 50.667C706.327 50.667 701.482 45.423 701.482 38.583C701.482 31.743 706.384 26.499 713.11 26.499C719.893 26.499 724.738 31.743 724.738 38.583ZM722.914 38.583C722.914 32.484 718.867 28.038 713.11 28.038C707.296 28.038 703.306 32.484 703.306 38.583C703.306 44.739 707.353 49.071 713.11 49.071C718.867 49.071 722.914 44.739 722.914 38.583ZM719.038 44.91L715.276 45.48L712.597 40.122H712.312V45.366H708.664V30.945H712.597C715.96 30.945 718.183 32.37 718.183 35.448C718.183 37.5 717.214 38.64 716.017 39.381L719.038 44.91ZM714.706 35.676C714.706 34.308 713.908 33.681 712.654 33.681H712.312V37.671H712.597C714.022 37.671 714.706 37.044 714.706 35.676Z" fill="#001466"/>
<path d="M28.9919 145.568C28.9919 149.92 25.8559 152 20.6719 152H14.3359V129.92H20.7679C25.7279 129.92 28.0959 132.16 28.0959 135.648C28.0959 137.952 26.8159 139.456 24.8959 140.256C27.3599 141.024 28.9919 142.624 28.9919 145.568ZM24.1599 136C24.1599 134.24 23.1039 133.152 20.5439 133.152H18.3999V139.008H20.3519C22.8479 139.008 24.1599 137.888 24.1599 136ZM24.9279 145.44C24.9279 143.2 23.4239 142.016 20.6079 142.016H18.3999V148.768H20.6719C23.3599 148.768 24.9279 147.648 24.9279 145.44Z" fill="#001466"/>
<path d="M57.4732 129.92L49.5052 143.552V152H45.2492V143.584L37.5372 130.4L41.9532 129.696L47.4892 139.648L52.8652 129.92H57.4732Z" fill="#001466"/>
<path d="M95.8472 145.696C95.8472 150.016 92.6792 152.256 88.4232 152.256C85.7352 152.256 83.4312 151.648 81.4792 150.72L82.1192 146.848C83.9752 147.936 86.2792 148.8 88.4872 148.8C90.4392 148.8 91.7832 147.872 91.7832 146.112C91.7832 144.48 91.0152 143.808 87.8152 142.432C83.5272 140.672 81.7992 139.264 81.7992 135.84C81.7992 131.936 84.8072 129.664 88.9352 129.664C91.4312 129.664 93.1592 130.176 94.7592 131.008L94.1192 134.848C92.5192 133.792 90.6312 133.12 88.9032 133.12C86.7912 133.12 85.8632 134.144 85.8632 135.488C85.8632 136.896 86.5672 137.568 89.6392 138.848C94.1832 140.704 95.8472 142.272 95.8472 145.696Z" fill="#001466"/>
<path d="M131.758 152H127.534L126.35 135.712L120.814 152.064H117.038L111.47 135.712L110.35 152H106.542L108.238 129.92H113.614L119.214 146.592L124.782 129.92H130.062L131.758 152Z" fill="#001466"/>
<path d="M141.791 152L150.079 129.824H154.591L162.687 151.456L158.431 152.224L156.319 146.4H147.967L146.047 152H141.791ZM152.159 134.4L149.119 142.944H155.135L152.159 134.4Z" fill="#001466"/>
<path d="M189.641 151.424L185.161 152.224L179.401 143.552H177.609V152H173.385V129.92H180.233C185.161 129.92 188.137 132.256 188.137 136.544C188.137 139.776 186.409 141.792 183.657 142.752L189.641 151.424ZM183.977 136.768C183.977 134.56 182.569 133.312 179.913 133.312H177.577V140.32H179.721C182.345 140.32 183.977 139.072 183.977 136.768Z" fill="#001466"/>
<path d="M215.823 133.6H208.943V152H204.719V133.6H198.063V129.92H215.215L215.823 133.6Z" fill="#001466"/>
<path d="M238.878 133.6H230.75V139.232H236.958L237.566 142.88H230.75V152H226.526V129.92H238.878V133.6Z" fill="#001466"/>
<path d="M269.422 140.928C269.422 147.744 265.358 152.416 259.022 152.416C252.75 152.416 248.686 147.808 248.686 140.992C248.686 134.144 252.782 129.504 259.086 129.504C265.422 129.504 269.422 134.112 269.422 140.928ZM265.134 140.96C265.134 136.128 262.83 133.024 259.054 133.024C255.278 133.024 253.006 136.128 253.006 140.96C253.006 145.792 255.278 148.896 259.054 148.896C262.862 148.896 265.134 145.792 265.134 140.96Z" fill="#001466"/>
<path d="M297.173 151.424L292.693 152.224L286.933 143.552H285.141V152H280.917V129.92H287.765C292.693 129.92 295.669 132.256 295.669 136.544C295.669 139.776 293.941 141.792 291.189 142.752L297.173 151.424ZM291.509 136.768C291.509 134.56 290.101 133.312 287.445 133.312H285.109V140.32H287.253C289.877 140.32 291.509 139.072 291.509 136.768Z" fill="#001466"/>
<path d="M323.381 150.496C321.653 151.616 319.381 152.384 316.853 152.384C310.453 152.384 306.421 147.872 306.421 140.992C306.421 134.144 310.549 129.536 316.981 129.536C319.477 129.536 321.397 130.112 323.029 131.136L322.421 135.136C320.981 134.048 319.285 133.184 317.141 133.184C313.141 133.184 310.741 136.192 310.741 140.96C310.741 145.76 313.237 148.704 317.205 148.704C319.285 148.704 321.109 147.936 322.805 146.784L323.381 150.496Z" fill="#001466"/>
<path d="M347.835 152H334.683V129.92H347.515V133.504H338.875V138.784H345.531L346.107 142.336H338.875V148.416H347.835V152Z" fill="#001466"/>
<path d="M372.971 136.96C372.971 141.376 369.931 144.384 365.707 144.384C361.419 144.384 358.475 141.408 358.475 136.96C358.475 132.544 361.483 129.504 365.739 129.504C369.995 129.504 372.971 132.512 372.971 136.96ZM371.947 136.96C371.947 132.736 369.163 130.368 365.739 130.368C362.251 130.368 359.499 132.736 359.499 136.96C359.499 141.152 362.283 143.52 365.707 143.52C369.195 143.52 371.947 141.152 371.947 136.96ZM369.483 140.576L367.563 140.896L365.387 137.664H364.779V140.8H362.955V132.576H365.771C367.659 132.576 368.811 133.472 368.811 135.072C368.811 136.256 368.171 136.992 367.243 137.344L369.483 140.576ZM366.987 135.2C366.987 134.464 366.507 134.048 365.643 134.048H364.779V136.384H365.611C366.475 136.384 366.987 136 366.987 135.2Z" fill="#001466"/>
</svg>
