<svg viewBox="0 0 692 99" fill="none" xmlns="http://www.w3.org/2000/svg">
<path d="M57.936 92.128L54.808 73.632C49.096 77.44 44.744 79.344 40.12 79.344C28.56 79.344 22.984 69.28 22.984 49.696C22.984 30.248 28.424 20.048 38.352 20.048C44.2 20.048 47.872 21.952 53.448 25.76L56.44 6.44797C50.864 3.18397 44.608 1.27998 35.496 1.27998C12.512 1.27998 0 19.912 0 49.832C0 80.16 11.968 98.112 36.04 98.112C44.472 98.112 51.136 95.664 57.936 92.128Z" fill="#001466"/>
<path d="M84.7067 11.616C84.7067 5.35998 79.6748 0.599976 73.5547 0.599976C67.2988 0.599976 62.4027 5.35998 62.4027 11.616C62.4027 17.872 67.2988 22.768 73.5547 22.768C79.6748 22.768 84.7067 17.872 84.7067 11.616ZM83.3467 96.616V29.976H63.6267V96.616H83.3467Z" fill="#001466"/>
<path d="M128.199 96.344L125.615 80.16C124.391 80.432 122.215 80.568 120.719 80.568C116.231 80.568 114.463 78.392 114.463 73.632V46.704H127.791L125.071 29.976H114.463V6.58397L95.5591 9.71197V29.976H87.9431V46.704H95.5591V76.08C95.5591 92.536 102.223 97.704 116.911 97.704C121.535 97.704 125.479 97.024 128.199 96.344Z" fill="#001466"/>
<path d="M154.648 11.616C154.648 5.35998 149.616 0.599976 143.496 0.599976C137.24 0.599976 132.344 5.35998 132.344 11.616C132.344 17.872 137.24 22.768 143.496 22.768C149.616 22.768 154.648 17.872 154.648 11.616ZM153.288 96.616V29.976H133.568V96.616H153.288Z" fill="#001466"/>
<path d="M208.068 96.616L205.484 80.84H182.364L206.708 43.712V29.976H160.06L162.644 45.752H182.908L158.7 83.016V96.616H208.068Z" fill="#001466"/>
<path d="M261.934 61.936C261.934 42.624 254.046 28.616 236.366 28.616C218.822 28.616 209.166 43.848 209.166 63.432C209.166 86.144 219.502 97.976 238.542 97.976C247.926 97.976 256.086 95.528 261.798 92.128L259.622 78.12C253.502 81.52 248.062 83.152 242.078 83.152C234.462 83.152 229.974 78.664 228.75 69.144H261.526C261.662 67.92 261.934 64.112 261.934 61.936ZM243.574 57.312H228.478C229.158 46.432 232.014 41.944 236.094 41.944C240.446 41.944 243.438 47.112 243.574 57.312Z" fill="#001466"/>
<path d="M319.967 96.616V45.616C319.967 34.736 314.935 28.616 303.919 28.616C296.847 28.616 290.999 32.56 286.239 37.048L285.015 29.976H268.287V96.616H288.007V49.696C290.591 47.656 293.311 46.16 295.895 46.16C298.751 46.16 300.247 48.2 300.247 51.056V96.616H319.967Z" fill="#001466"/>
<path d="M384.343 92.128L381.215 73.632C375.503 77.44 371.151 79.344 366.527 79.344C354.967 79.344 349.391 69.28 349.391 49.696C349.391 30.248 354.831 20.048 364.759 20.048C370.607 20.048 374.279 21.952 379.855 25.76L382.847 6.44797C377.271 3.18397 371.015 1.27998 361.903 1.27998C338.919 1.27998 326.407 19.912 326.407 49.832C326.407 80.16 338.375 98.112 362.447 98.112C370.879 98.112 377.543 95.664 384.343 92.128Z" fill="#001466"/>
<path d="M443.093 63.296C443.093 40.856 431.805 28.616 415.077 28.616C398.349 28.616 386.925 40.992 386.925 63.432C386.925 86.008 398.213 97.976 414.941 97.976C431.669 97.976 443.093 85.736 443.093 63.296ZM423.645 63.432C423.645 74.856 420.925 81.656 415.077 81.656C409.229 81.656 406.373 74.856 406.373 63.296C406.373 51.872 409.093 44.936 414.941 44.936C420.925 44.936 423.645 52.008 423.645 63.432Z" fill="#001466"/>
<path d="M500.914 96.616V45.616C500.914 34.736 495.882 28.616 484.866 28.616C477.794 28.616 471.946 32.56 467.186 37.048L465.962 29.976H449.234V96.616H468.954V49.696C471.538 47.656 474.258 46.16 476.842 46.16C479.698 46.16 481.194 48.2 481.194 51.056V96.616H500.914Z" fill="#001466"/>
<path d="M545.026 96.344L542.442 80.16C541.218 80.432 539.042 80.568 537.546 80.568C533.058 80.568 531.29 78.392 531.29 73.632V46.704H544.618L541.898 29.976H531.29V6.58397L512.386 9.71197V29.976H504.77V46.704H512.386V76.08C512.386 92.536 519.05 97.704 533.738 97.704C538.362 97.704 542.306 97.024 545.026 96.344Z" fill="#001466"/>
<path d="M597.451 96.616V51.192C597.451 35.28 590.651 28.888 575.147 28.888C565.627 28.888 558.827 30.792 551.483 33.784L553.931 49.016C560.595 45.616 565.763 43.984 569.707 43.984C575.419 43.984 577.867 46.16 577.867 52.144V54.592C558.963 57.584 547.675 65.064 547.675 79.888C547.675 91.992 554.067 97.84 563.043 97.84C569.707 97.84 574.875 94.576 579.499 89.816L580.587 96.616H597.451ZM577.867 80.16C575.419 82.472 573.107 83.696 570.795 83.696C567.939 83.696 565.899 81.384 565.899 77.304C565.899 71.864 569.027 67.512 577.867 64.792V80.16Z" fill="#001466"/>
<path d="M648.33 92.944L645.882 76.896C641.258 79.616 638.538 80.704 635.002 80.704C626.978 80.704 622.626 74.856 622.626 63.296C622.626 52.008 626.706 46.024 634.05 46.024C638.13 46.024 640.986 47.248 644.93 49.832L647.65 32.696C643.842 30.656 638.538 28.888 631.194 28.888C614.058 28.888 603.042 41.128 603.042 63.432C603.042 85.736 613.106 97.84 631.33 97.84C638.266 97.84 643.978 95.8 648.33 92.944Z" fill="#001466"/>
<path d="M691.442 96.344L688.858 80.16C687.634 80.432 685.458 80.568 683.962 80.568C679.474 80.568 677.706 78.392 677.706 73.632V46.704H691.034L688.314 29.976H677.706V6.58397L658.802 9.71197V29.976H651.186V46.704H658.802V76.08C658.802 92.536 665.466 97.704 680.154 97.704C684.778 97.704 688.722 97.024 691.442 96.344Z" fill="#001466"/>
</svg>
