<svg width="723" height="152" viewBox="0 0 723 152" fill="none" xmlns="http://www.w3.org/2000/svg">
<path d="M58.7871 92.479C51.9371 96.041 45.2241 98.507 36.7301 98.507C12.4811 98.507 0.425049 80.423 0.425049 49.872C0.425049 19.732 13.029 0.962953 36.182 0.962953C45.361 0.962953 51.6631 2.88095 57.2801 6.16895L54.2661 25.623C48.6491 21.787 44.9501 19.869 39.0591 19.869C29.0581 19.869 23.578 30.144 23.578 49.735C23.578 69.463 29.1951 79.601 40.8401 79.601C45.4981 79.601 49.8821 77.683 55.6361 73.847L58.7871 92.479Z" fill="#001466"/>
<path d="M85.4806 11.375C85.4806 17.677 80.4116 22.609 74.2466 22.609C67.9446 22.609 63.0126 17.677 63.0126 11.375C63.0126 5.07296 67.9446 0.277954 74.2466 0.277954C80.4116 0.277954 85.4806 5.07296 85.4806 11.375ZM84.1106 97H64.2456V29.87H84.1106V97Z" fill="#001466"/>
<path d="M129.019 96.726C126.279 97.411 122.306 98.096 117.648 98.096C102.852 98.096 96.1388 92.89 96.1388 76.313V46.721H88.4668V29.87H96.1388V9.45695L115.182 6.30595V29.87H125.868L128.608 46.721H115.182V73.847C115.182 78.642 116.963 80.834 121.484 80.834C122.991 80.834 125.183 80.697 126.416 80.423L129.019 96.726Z" fill="#001466"/>
<path d="M155.388 11.375C155.388 17.677 150.319 22.609 144.154 22.609C137.852 22.609 132.92 17.677 132.92 11.375C132.92 5.07296 137.852 0.277954 144.154 0.277954C150.319 0.277954 155.388 5.07296 155.388 11.375ZM154.018 97H134.153V29.87H154.018V97Z" fill="#001466"/>
<path d="M208.927 97H159.196V83.3L183.582 45.762H163.169L160.566 29.87H207.557V43.707L183.034 81.108H206.324L208.927 97Z" fill="#001466"/>
<path d="M262.915 62.065C262.915 64.257 262.641 68.093 262.504 69.326H229.487C230.72 78.916 235.241 83.437 242.913 83.437C248.941 83.437 254.421 81.793 260.586 78.368L262.778 92.479C257.024 95.904 248.804 98.37 239.351 98.37C220.171 98.37 209.759 86.451 209.759 63.572C209.759 43.844 219.486 28.5 237.159 28.5C254.969 28.5 262.915 42.611 262.915 62.065ZM244.42 57.407C244.283 47.132 241.269 41.926 236.885 41.926C232.775 41.926 229.898 46.447 229.213 57.407H244.42Z" fill="#001466"/>
<path d="M321.1 97H301.235V51.105C301.235 48.228 299.728 46.173 296.851 46.173C294.248 46.173 291.508 47.68 288.905 49.735V97H269.04V29.87H285.891L287.124 36.994C291.919 32.473 297.81 28.5 304.934 28.5C316.031 28.5 321.1 34.665 321.1 45.625V97Z" fill="#001466"/>
<path d="M385.677 92.479C378.827 96.041 372.114 98.507 363.62 98.507C339.371 98.507 327.315 80.423 327.315 49.872C327.315 19.732 339.919 0.962953 363.072 0.962953C372.251 0.962953 378.553 2.88095 384.17 6.16895L381.156 25.623C375.539 21.787 371.84 19.869 365.949 19.869C355.948 19.869 350.468 30.144 350.468 49.735C350.468 69.463 356.085 79.601 367.73 79.601C372.388 79.601 376.772 77.683 382.526 73.847L385.677 92.479Z" fill="#001466"/>
<path d="M444.584 63.435C444.584 86.04 433.076 98.37 416.225 98.37C399.374 98.37 388.003 86.314 388.003 63.572C388.003 40.967 399.511 28.5 416.362 28.5C433.213 28.5 444.584 40.83 444.584 63.435ZM424.993 63.572C424.993 52.064 422.253 44.94 416.225 44.94C410.334 44.94 407.594 51.927 407.594 63.435C407.594 75.08 410.471 81.93 416.362 81.93C422.253 81.93 424.993 75.08 424.993 63.572Z" fill="#001466"/>
<path d="M502.556 97H482.691V51.105C482.691 48.228 481.184 46.173 478.307 46.173C475.704 46.173 472.964 47.68 470.361 49.735V97H450.496V29.87H467.347L468.58 36.994C473.375 32.473 479.266 28.5 486.39 28.5C497.487 28.5 502.556 34.665 502.556 45.625V97Z" fill="#001466"/>
<path d="M546.719 96.726C543.979 97.411 540.006 98.096 535.348 98.096C520.552 98.096 513.839 92.89 513.839 76.313V46.721H506.167V29.87H513.839V9.45695L532.882 6.30595V29.87H543.568L546.308 46.721H532.882V73.847C532.882 78.642 534.663 80.834 539.184 80.834C540.691 80.834 542.883 80.697 544.116 80.423L546.719 96.726Z" fill="#001466"/>
<path d="M599.255 97H582.267L581.171 90.15C576.513 94.945 571.307 98.233 564.594 98.233C555.552 98.233 549.113 92.342 549.113 80.149C549.113 65.216 560.484 57.681 579.527 54.667V52.201C579.527 46.173 577.061 43.981 571.307 43.981C567.334 43.981 562.128 45.625 555.415 49.05L552.949 33.706C560.347 30.692 567.197 28.774 576.787 28.774C592.405 28.774 599.255 35.213 599.255 51.242V97ZM579.527 80.423V64.942C570.622 67.682 567.471 72.066 567.471 77.546C567.471 81.656 569.526 83.985 572.403 83.985C574.732 83.985 577.061 82.752 579.527 80.423Z" fill="#001466"/>
<path d="M650.234 93.301C645.85 96.178 640.096 98.233 633.109 98.233C614.751 98.233 604.613 86.04 604.613 63.572C604.613 41.104 615.71 28.774 632.972 28.774C640.37 28.774 645.713 30.555 649.549 32.61L646.809 49.872C642.836 47.269 639.959 46.036 635.849 46.036C628.451 46.036 624.341 52.064 624.341 63.435C624.341 75.08 628.725 80.971 636.808 80.971C640.37 80.971 643.11 79.875 647.768 77.135L650.234 93.301Z" fill="#001466"/>
<path d="M693.389 96.726C690.649 97.411 686.676 98.096 682.018 98.096C667.222 98.096 660.509 92.89 660.509 76.313V46.721H652.837V29.87H660.509V9.45695L679.552 6.30595V29.87H690.238L692.978 46.721H679.552V73.847C679.552 78.642 681.333 80.834 685.854 80.834C687.361 80.834 689.553 80.697 690.786 80.423L693.389 96.726Z" fill="#001466"/>
<path d="M722.738 37.583C722.738 44.423 717.836 49.667 711.11 49.667C704.327 49.667 699.482 44.423 699.482 37.583C699.482 30.743 704.384 25.499 711.11 25.499C717.893 25.499 722.738 30.743 722.738 37.583ZM720.914 37.583C720.914 31.484 716.867 27.038 711.11 27.038C705.296 27.038 701.306 31.484 701.306 37.583C701.306 43.739 705.353 48.071 711.11 48.071C716.867 48.071 720.914 43.739 720.914 37.583ZM717.038 43.91L713.276 44.48L710.597 39.122H710.312V44.366H706.664V29.945H710.597C713.96 29.945 716.183 31.37 716.183 34.448C716.183 36.5 715.214 37.64 714.017 38.381L717.038 43.91ZM712.706 34.676C712.706 33.308 711.908 32.681 710.654 32.681H710.312V36.671H710.597C712.022 36.671 712.706 36.044 712.706 34.676Z" fill="#001466"/>
<path d="M195.656 144.568C195.656 148.92 192.52 151 187.336 151H181V128.92H187.432C192.392 128.92 194.76 131.16 194.76 134.648C194.76 136.952 193.48 138.456 191.56 139.256C194.024 140.024 195.656 141.624 195.656 144.568ZM190.824 135C190.824 133.24 189.768 132.152 187.208 132.152H185.064V138.008H187.016C189.512 138.008 190.824 136.888 190.824 135ZM191.592 144.44C191.592 142.2 190.088 141.016 187.272 141.016H185.064V147.768H187.336C190.024 147.768 191.592 146.648 191.592 144.44Z" fill="#001466"/>
<path d="M224.137 128.92L216.169 142.552V151H211.913V142.584L204.201 129.4L208.617 128.696L214.153 138.648L219.529 128.92H224.137Z" fill="#001466"/>
<path d="M262.511 144.696C262.511 149.016 259.343 151.256 255.087 151.256C252.399 151.256 250.095 150.648 248.143 149.72L248.783 145.848C250.639 146.936 252.943 147.8 255.151 147.8C257.103 147.8 258.447 146.872 258.447 145.112C258.447 143.48 257.679 142.808 254.479 141.432C250.191 139.672 248.463 138.264 248.463 134.84C248.463 130.936 251.471 128.664 255.599 128.664C258.095 128.664 259.823 129.176 261.423 130.008L260.783 133.848C259.183 132.792 257.295 132.12 255.567 132.12C253.455 132.12 252.527 133.144 252.527 134.488C252.527 135.896 253.231 136.568 256.303 137.848C260.847 139.704 262.511 141.272 262.511 144.696Z" fill="#001466"/>
<path d="M298.422 151H294.198L293.014 134.712L287.478 151.064H283.702L278.134 134.712L277.014 151H273.206L274.902 128.92H280.278L285.878 145.592L291.446 128.92H296.726L298.422 151Z" fill="#001466"/>
<path d="M308.455 151L316.743 128.824H321.255L329.351 150.456L325.095 151.224L322.983 145.4H314.631L312.711 151H308.455ZM318.823 133.4L315.783 141.944H321.799L318.823 133.4Z" fill="#001466"/>
<path d="M356.305 150.424L351.825 151.224L346.065 142.552H344.273V151H340.049V128.92H346.897C351.825 128.92 354.801 131.256 354.801 135.544C354.801 138.776 353.073 140.792 350.321 141.752L356.305 150.424ZM350.641 135.768C350.641 133.56 349.233 132.312 346.577 132.312H344.241V139.32H346.385C349.009 139.32 350.641 138.072 350.641 135.768Z" fill="#001466"/>
<path d="M382.487 132.6H375.607V151H371.383V132.6H364.727V128.92H381.879L382.487 132.6Z" fill="#001466"/>
<path d="M405.542 132.6H397.414V138.232H403.622L404.23 141.88H397.414V151H393.19V128.92H405.542V132.6Z" fill="#001466"/>
<path d="M436.086 139.928C436.086 146.744 432.022 151.416 425.686 151.416C419.414 151.416 415.35 146.808 415.35 139.992C415.35 133.144 419.446 128.504 425.75 128.504C432.086 128.504 436.086 133.112 436.086 139.928ZM431.798 139.96C431.798 135.128 429.494 132.024 425.718 132.024C421.942 132.024 419.67 135.128 419.67 139.96C419.67 144.792 421.942 147.896 425.718 147.896C429.526 147.896 431.798 144.792 431.798 139.96Z" fill="#001466"/>
<path d="M463.837 150.424L459.357 151.224L453.597 142.552H451.805V151H447.581V128.92H454.429C459.357 128.92 462.333 131.256 462.333 135.544C462.333 138.776 460.605 140.792 457.853 141.752L463.837 150.424ZM458.173 135.768C458.173 133.56 456.765 132.312 454.109 132.312H451.773V139.32H453.917C456.541 139.32 458.173 138.072 458.173 135.768Z" fill="#001466"/>
<path d="M490.045 149.496C488.317 150.616 486.045 151.384 483.517 151.384C477.117 151.384 473.085 146.872 473.085 139.992C473.085 133.144 477.213 128.536 483.645 128.536C486.141 128.536 488.061 129.112 489.693 130.136L489.085 134.136C487.645 133.048 485.949 132.184 483.805 132.184C479.805 132.184 477.405 135.192 477.405 139.96C477.405 144.76 479.901 147.704 483.869 147.704C485.949 147.704 487.773 146.936 489.469 145.784L490.045 149.496Z" fill="#001466"/>
<path d="M514.5 151H501.348V128.92H514.18V132.504H505.539V137.784H512.195L512.772 141.336H505.539V147.416H514.5V151Z" fill="#001466"/>
<path d="M539.635 135.96C539.635 140.376 536.595 143.384 532.371 143.384C528.083 143.384 525.139 140.408 525.139 135.96C525.139 131.544 528.147 128.504 532.403 128.504C536.659 128.504 539.635 131.512 539.635 135.96ZM538.611 135.96C538.611 131.736 535.827 129.368 532.403 129.368C528.915 129.368 526.163 131.736 526.163 135.96C526.163 140.152 528.947 142.52 532.371 142.52C535.859 142.52 538.611 140.152 538.611 135.96ZM536.147 139.576L534.227 139.896L532.051 136.664H531.443V139.8H529.619V131.576H532.435C534.323 131.576 535.475 132.472 535.475 134.072C535.475 135.256 534.835 135.992 533.907 136.344L536.147 139.576ZM533.651 134.2C533.651 133.464 533.171 133.048 532.307 133.048H531.443V135.384H532.275C533.139 135.384 533.651 135 533.651 134.2Z" fill="#001466"/>
</svg>
