<svg width="28" height="28" viewBox="0 0 28 28" fill="none" xmlns="http://www.w3.org/2000/svg">
<path fill-rule="evenodd" clip-rule="evenodd" d="M22.75 8.75L22.75 5.25L19.25 5.25L19.25 8.75L22.75 8.75ZM24.5 12.25C25.4665 12.25 26.25 11.4665 26.25 10.5L26.25 3.5C26.25 2.5335 25.4665 1.75 24.5 1.75L17.5 1.75C16.5335 1.75 15.75 2.5335 15.75 3.5L15.75 10.5C15.75 11.4665 16.5335 12.25 17.5 12.25L24.5 12.25Z" fill="#001466"/>
<path fill-rule="evenodd" clip-rule="evenodd" d="M8.75 8.75L8.75 5.25L5.25 5.25L5.25 8.75L8.75 8.75ZM10.5 12.25C11.4665 12.25 12.25 11.4665 12.25 10.5L12.25 3.5C12.25 2.5335 11.4665 1.75 10.5 1.75H3.5C2.5335 1.75 1.75 2.5335 1.75 3.5V10.5C1.75 11.4665 2.5335 12.25 3.5 12.25L10.5 12.25Z" fill="#001466"/>
<path fill-rule="evenodd" clip-rule="evenodd" d="M8.75 22.75L8.75 19.25L5.25 19.25L5.25 22.75L8.75 22.75ZM10.5 26.25C11.4665 26.25 12.25 25.4665 12.25 24.5L12.25 17.5C12.25 16.5335 11.4665 15.75 10.5 15.75L3.5 15.75C2.5335 15.75 1.75 16.5335 1.75 17.5L1.75 24.5C1.75 25.4665 2.5335 26.25 3.5 26.25L10.5 26.25Z" fill="#001466"/>
<ellipse cx="21" cy="21" rx="5.6875" ry="5.6875" transform="rotate(-180 21 21)" fill="#0066FF"/>
</svg>
