<svg viewBox="0 0 740 152" fill="none" xmlns="http://www.w3.org/2000/svg">
<path d="M57.9729 92.1292L54.8429 73.6329C49.1273 77.441 44.7725 79.345 40.1456 79.345C28.5782 79.345 22.9986 69.2809 22.9986 49.6966C22.9986 30.2484 28.4421 20.0482 38.3764 20.0482C44.2282 20.0482 47.9025 21.9523 53.482 25.7603L56.4759 6.44805C50.8964 3.18401 44.6364 1.27998 35.5186 1.27998C12.52 1.27998 0 19.9122 0 49.8326C0 80.161 11.9756 98.1133 36.063 98.1133C44.5003 98.1133 51.1686 95.6652 57.9729 92.1292Z" fill="#001466"/>
<path d="M84.7607 11.6161C84.7607 5.36004 79.7255 0.599976 73.6016 0.599976C67.3416 0.599976 62.4425 5.36004 62.4425 11.6161C62.4425 17.8722 67.3416 22.7683 73.6016 22.7683C79.7255 22.7683 84.7607 17.8722 84.7607 11.6161ZM83.3998 96.6172V29.9764H63.6673V96.6172H83.3998Z" fill="#001466"/>
<path d="M128.281 96.3452L125.695 80.161C124.47 80.433 122.293 80.569 120.796 80.569C116.305 80.569 114.536 78.393 114.536 73.6329V46.7046H127.873L125.151 29.9764H114.536V6.58405L95.62 9.71209V29.9764H87.9991V46.7046H95.62V76.081C95.62 92.5372 102.288 97.7053 116.986 97.7053C121.613 97.7053 125.559 97.0252 128.281 96.3452Z" fill="#001466"/>
<path d="M154.746 11.6161C154.746 5.36004 149.711 0.599976 143.587 0.599976C137.327 0.599976 132.428 5.36004 132.428 11.6161C132.428 17.8722 137.327 22.7683 143.587 22.7683C149.711 22.7683 154.746 17.8722 154.746 11.6161ZM153.386 96.6172V29.9764H133.653V96.6172H153.386Z" fill="#001466"/>
<path d="M208.201 96.6172L205.615 80.841H182.48L206.84 43.7125V29.9764H160.162L162.748 45.7526H183.025L158.801 83.0171V96.6172H208.201Z" fill="#001466"/>
<path d="M262.101 61.9368C262.101 42.6245 254.208 28.6163 236.516 28.6163C218.961 28.6163 209.299 43.8485 209.299 63.4328C209.299 86.1451 219.642 97.9773 238.694 97.9773C248.084 97.9773 256.249 95.5292 261.965 92.1292L259.787 78.121C253.663 81.521 248.22 83.1531 242.232 83.1531C234.611 83.1531 230.12 78.665 228.896 69.1449H261.692C261.829 67.9209 262.101 64.1128 262.101 61.9368ZM243.729 57.3127H228.623C229.304 46.4326 232.162 41.9445 236.244 41.9445C240.599 41.9445 243.593 47.1126 243.729 57.3127Z" fill="#001466"/>
<path d="M320.17 96.6172V45.6166C320.17 34.7364 315.135 28.6163 304.112 28.6163C297.036 28.6163 291.184 32.5604 286.421 37.0485L285.196 29.9764H268.457V96.6172H288.19V49.6966C290.776 47.6566 293.497 46.1606 296.083 46.1606C298.941 46.1606 300.438 48.2006 300.438 51.0566V96.6172H320.17Z" fill="#001466"/>
<path d="M384.588 92.1292L381.458 73.6329C375.743 77.441 371.388 79.345 366.761 79.345C355.193 79.345 349.614 69.2809 349.614 49.6966C349.614 30.2484 355.057 20.0482 364.992 20.0482C370.843 20.0482 374.518 21.9523 380.097 25.7603L383.091 6.44805C377.512 3.18401 371.252 1.27998 362.134 1.27998C339.135 1.27998 326.615 19.9122 326.615 49.8326C326.615 80.161 338.591 98.1133 362.678 98.1133C371.116 98.1133 377.784 95.6652 384.588 92.1292Z" fill="#001466"/>
<path d="M443.375 63.2968C443.375 40.8565 432.08 28.6163 415.342 28.6163C398.603 28.6163 387.172 40.9925 387.172 63.4328C387.172 86.0091 398.467 97.9773 415.206 97.9773C431.944 97.9773 443.375 85.7371 443.375 63.2968ZM423.915 63.4328C423.915 74.857 421.193 81.657 415.342 81.657C409.49 81.657 406.632 74.857 406.632 63.2968C406.632 51.8727 409.354 44.9366 415.206 44.9366C421.193 44.9366 423.915 52.0087 423.915 63.4328Z" fill="#001466"/>
<path d="M501.233 96.6172V45.6166C501.233 34.7364 496.197 28.6163 485.174 28.6163C478.098 28.6163 472.246 32.5604 467.483 37.0485L466.258 29.9764H449.52V96.6172H469.252V49.6966C471.838 47.6566 474.56 46.1606 477.145 46.1606C480.003 46.1606 481.5 48.2006 481.5 51.0566V96.6172H501.233Z" fill="#001466"/>
<path d="M545.373 96.3452L542.788 80.161C541.563 80.433 539.386 80.569 537.889 80.569C533.398 80.569 531.629 78.393 531.629 73.6329V46.7046H544.965L542.243 29.9764H531.629V6.58405L512.713 9.71209V29.9764H505.092V46.7046H512.713V76.081C512.713 92.5372 519.381 97.7053 534.078 97.7053C538.705 97.7053 542.652 97.0252 545.373 96.3452Z" fill="#001466"/>
<path d="M597.832 96.6172V51.1926C597.832 35.2804 591.027 28.8883 575.513 28.8883C565.987 28.8883 559.183 30.7924 551.834 33.7844L554.284 49.0166C560.952 45.6166 566.123 43.9845 570.07 43.9845C575.786 43.9845 578.235 46.1606 578.235 52.1447V54.5927C559.319 57.5847 548.024 65.0648 548.024 79.889C548.024 91.9932 554.42 97.8413 563.402 97.8413C570.07 97.8413 575.241 94.5772 579.868 89.8171L580.957 96.6172H597.832ZM578.235 80.161C575.786 82.4731 573.472 83.6971 571.159 83.6971C568.301 83.6971 566.26 81.385 566.26 77.305C566.26 71.8649 569.389 67.5129 578.235 64.7928V80.161Z" fill="#001466"/>
<path d="M648.743 92.9452L646.293 76.897C641.666 79.617 638.945 80.705 635.406 80.705C627.377 80.705 623.023 74.857 623.023 63.2968C623.023 52.0087 627.105 46.0246 634.454 46.0246C638.536 46.0246 641.394 47.2486 645.341 49.8326L648.062 32.6964C644.252 30.6564 638.945 28.8883 631.596 28.8883C614.449 28.8883 603.426 41.1285 603.426 63.4328C603.426 85.7371 613.496 97.8413 631.732 97.8413C638.672 97.8413 644.388 95.8012 648.743 92.9452Z" fill="#001466"/>
<path d="M691.882 96.3452L689.297 80.161C688.072 80.433 685.895 80.569 684.398 80.569C679.907 80.569 678.138 78.393 678.138 73.6329V46.7046H691.474L688.752 29.9764H678.138V6.58405L659.222 9.71209V29.9764H651.601V46.7046H659.222V76.081C659.222 92.5372 665.89 97.7053 680.587 97.7053C685.214 97.7053 689.161 97.0252 691.882 96.3452Z" fill="#001466"/>
<path d="M26.6729 144.178C26.6729 141.234 25.0399 139.634 22.5743 138.866C24.4955 138.066 25.7763 136.562 25.7763 134.258C25.7763 130.77 23.4068 128.53 18.4437 128.53H12.0076V150.61H18.3476C23.5349 150.61 26.6729 148.53 26.6729 144.178ZM21.8378 134.61C21.8378 136.498 20.525 137.618 18.0274 137.618H16.0742V131.762H18.2195C20.7812 131.762 21.8378 132.85 21.8378 134.61ZM22.6063 144.05C22.6063 146.258 21.0373 147.378 18.3476 147.378H16.0742V140.626H18.2836C21.1014 140.626 22.6063 141.81 22.6063 144.05Z" fill="#001466"/>
<path d="M55.1723 128.53H50.5614L45.1819 138.258L39.6424 128.306L35.2236 129.01L42.9405 142.194V150.61H47.1992V142.162L55.1723 128.53Z" fill="#001466"/>
<path d="M93.5707 144.306C93.5707 140.882 91.9057 139.314 87.3588 137.458C84.2848 136.178 83.5804 135.506 83.5804 134.098C83.5804 132.754 84.5089 131.73 86.6223 131.73C88.3514 131.73 90.2406 132.402 91.8416 133.458L92.482 129.618C90.881 128.786 89.1519 128.274 86.6543 128.274C82.5237 128.274 79.5138 130.546 79.5138 134.45C79.5138 137.874 81.2429 139.282 85.5336 141.042C88.7356 142.418 89.5041 143.09 89.5041 144.722C89.5041 146.482 88.1593 147.41 86.206 147.41C83.9966 147.41 81.6912 146.546 79.834 145.458L79.1936 149.33C81.1468 150.258 83.4523 150.866 86.142 150.866C90.4007 150.866 93.5707 148.626 93.5707 144.306Z" fill="#001466"/>
<path d="M129.504 150.61L127.807 128.53H122.524L116.952 145.202L111.349 128.53H105.969L104.272 150.61H108.082L109.203 134.322L114.775 150.674H118.553L124.093 134.322L125.277 150.61H129.504Z" fill="#001466"/>
<path d="M139.543 150.61H143.802L145.723 145.01H154.081L156.194 150.834L160.453 150.066L152.352 128.434H147.837L139.543 150.61ZM149.918 133.01L152.896 141.554H146.876L149.918 133.01Z" fill="#001466"/>
<path d="M187.424 150.034L181.436 141.362C184.19 140.402 185.919 138.386 185.919 135.154C185.919 130.866 182.941 128.53 178.01 128.53H171.158V150.61H175.384V142.162H177.177L182.941 150.834L187.424 150.034ZM181.756 135.378C181.756 137.682 180.123 138.93 177.498 138.93H175.352V131.922H177.69C180.347 131.922 181.756 133.17 181.756 135.378Z" fill="#001466"/>
<path d="M213.623 132.21L213.014 128.53H195.852V132.21H202.512V150.61H206.738V132.21H213.623Z" fill="#001466"/>
<path d="M236.693 132.21V128.53H224.333V150.61H228.559V141.49H235.38L234.771 137.842H228.559V132.21H236.693Z" fill="#001466"/>
<path d="M267.256 139.538C267.256 132.722 263.253 128.114 256.913 128.114C250.605 128.114 246.507 132.754 246.507 139.602C246.507 146.418 250.573 151.026 256.849 151.026C263.189 151.026 267.256 146.354 267.256 139.538ZM262.965 139.57C262.965 144.402 260.692 147.506 256.881 147.506C253.103 147.506 250.829 144.402 250.829 139.57C250.829 134.738 253.103 131.634 256.881 131.634C260.66 131.634 262.965 134.738 262.965 139.57Z" fill="#001466"/>
<path d="M295.025 150.034L289.037 141.362C291.791 140.402 293.52 138.386 293.52 135.154C293.52 130.866 290.542 128.53 285.611 128.53H278.759V150.61H282.985V142.162H284.778L290.542 150.834L295.025 150.034ZM289.357 135.378C289.357 137.682 287.724 138.93 285.099 138.93H282.953V131.922H285.291C287.948 131.922 289.357 133.17 289.357 135.378Z" fill="#001466"/>
<path d="M321.249 149.106L320.673 145.394C318.976 146.546 317.151 147.314 315.069 147.314C311.099 147.314 308.601 144.37 308.601 139.57C308.601 134.802 311.003 131.794 315.005 131.794C317.15 131.794 318.848 132.658 320.288 133.746L320.897 129.746C319.264 128.722 317.343 128.146 314.845 128.146C308.409 128.146 304.278 132.754 304.278 139.602C304.278 146.482 308.313 150.994 314.717 150.994C317.247 150.994 319.52 150.226 321.249 149.106Z" fill="#001466"/>
<path d="M345.719 150.61V147.026H336.754V140.946H343.99L343.414 137.394H336.754V132.114H345.399V128.53H332.559V150.61H345.719Z" fill="#001466"/>
<path d="M370.871 135.57C370.871 131.122 367.893 128.114 363.634 128.114C359.376 128.114 356.366 131.154 356.366 135.57C356.366 140.018 359.312 142.994 363.602 142.994C367.829 142.994 370.871 139.986 370.871 135.57ZM369.846 135.57C369.846 139.762 367.092 142.13 363.602 142.13C360.176 142.13 357.39 139.762 357.39 135.57C357.39 131.346 360.144 128.978 363.634 128.978C367.06 128.978 369.846 131.346 369.846 135.57ZM367.381 139.186L365.139 135.954C366.068 135.602 366.708 134.866 366.708 133.682C366.708 132.082 365.556 131.186 363.666 131.186H360.849V139.41H362.674V136.274H363.282L365.459 139.506L367.381 139.186ZM364.883 133.81C364.883 134.61 364.371 134.994 363.506 134.994H362.674V132.658H363.538C364.403 132.658 364.883 133.074 364.883 133.81Z" fill="#001466"/>
<path d="M717.009 33.0935H712.691V46.5754H708.065V33.0935H704V29.6H716.392L717.009 33.0935Z" fill="#001466"/>
<path d="M736.454 46.5754H732.024L731.548 34.6188L729.22 46.6H724.706L722.351 34.6188L721.847 46.5754H717.809L718.566 29.6H724.875L727.118 40.8923L729.389 29.6H735.669L736.454 46.5754Z" fill="#001466"/>
</svg>
