<svg viewBox="0 0 692 152" fill="none" xmlns="http://www.w3.org/2000/svg">
<path d="M57.936 92.128L54.808 73.632C49.096 77.44 44.744 79.344 40.12 79.344C28.56 79.344 22.984 69.28 22.984 49.696C22.984 30.248 28.424 20.048 38.352 20.048C44.2 20.048 47.872 21.952 53.448 25.76L56.44 6.44797C50.864 3.18397 44.608 1.27998 35.496 1.27998C12.512 1.27998 0 19.912 0 49.832C0 80.16 11.968 98.112 36.04 98.112C44.472 98.112 51.136 95.664 57.936 92.128Z" fill="#001466"/>
<path d="M84.7067 11.616C84.7067 5.35998 79.6748 0.599976 73.5547 0.599976C67.2988 0.599976 62.4027 5.35998 62.4027 11.616C62.4027 17.872 67.2988 22.768 73.5547 22.768C79.6748 22.768 84.7067 17.872 84.7067 11.616ZM83.3467 96.616V29.976H63.6267V96.616H83.3467Z" fill="#001466"/>
<path d="M128.199 96.344L125.615 80.16C124.391 80.432 122.215 80.568 120.719 80.568C116.231 80.568 114.463 78.392 114.463 73.632V46.704H127.791L125.071 29.976H114.463V6.58397L95.5591 9.71197V29.976H87.9431V46.704H95.5591V76.08C95.5591 92.536 102.223 97.704 116.911 97.704C121.535 97.704 125.479 97.024 128.199 96.344Z" fill="#001466"/>
<path d="M154.648 11.616C154.648 5.35998 149.616 0.599976 143.496 0.599976C137.24 0.599976 132.344 5.35998 132.344 11.616C132.344 17.872 137.24 22.768 143.496 22.768C149.616 22.768 154.648 17.872 154.648 11.616ZM153.288 96.616V29.976H133.568V96.616H153.288Z" fill="#001466"/>
<path d="M208.068 96.616L205.484 80.84H182.364L206.708 43.712V29.976H160.06L162.644 45.752H182.908L158.7 83.016V96.616H208.068Z" fill="#001466"/>
<path d="M261.934 61.936C261.934 42.624 254.046 28.616 236.366 28.616C218.822 28.616 209.166 43.848 209.166 63.432C209.166 86.144 219.502 97.976 238.542 97.976C247.926 97.976 256.086 95.528 261.798 92.128L259.622 78.12C253.502 81.52 248.062 83.152 242.078 83.152C234.462 83.152 229.974 78.664 228.75 69.144H261.526C261.662 67.92 261.934 64.112 261.934 61.936ZM243.574 57.312H228.478C229.158 46.432 232.014 41.944 236.094 41.944C240.446 41.944 243.438 47.112 243.574 57.312Z" fill="#001466"/>
<path d="M319.967 96.616V45.616C319.967 34.736 314.935 28.616 303.919 28.616C296.847 28.616 290.999 32.56 286.239 37.048L285.015 29.976H268.287V96.616H288.007V49.696C290.591 47.656 293.311 46.16 295.895 46.16C298.751 46.16 300.247 48.2 300.247 51.056V96.616H319.967Z" fill="#001466"/>
<path d="M384.343 92.128L381.215 73.632C375.503 77.44 371.151 79.344 366.527 79.344C354.967 79.344 349.391 69.28 349.391 49.696C349.391 30.248 354.831 20.048 364.759 20.048C370.607 20.048 374.279 21.952 379.855 25.76L382.847 6.44797C377.271 3.18397 371.015 1.27998 361.903 1.27998C338.919 1.27998 326.407 19.912 326.407 49.832C326.407 80.16 338.375 98.112 362.447 98.112C370.879 98.112 377.543 95.664 384.343 92.128Z" fill="#001466"/>
<path d="M443.093 63.296C443.093 40.856 431.805 28.616 415.077 28.616C398.349 28.616 386.925 40.992 386.925 63.432C386.925 86.008 398.213 97.976 414.941 97.976C431.669 97.976 443.093 85.736 443.093 63.296ZM423.645 63.432C423.645 74.856 420.925 81.656 415.077 81.656C409.229 81.656 406.373 74.856 406.373 63.296C406.373 51.872 409.093 44.936 414.941 44.936C420.925 44.936 423.645 52.008 423.645 63.432Z" fill="#001466"/>
<path d="M500.914 96.616V45.616C500.914 34.736 495.882 28.616 484.866 28.616C477.794 28.616 471.946 32.56 467.186 37.048L465.962 29.976H449.234V96.616H468.954V49.696C471.538 47.656 474.258 46.16 476.842 46.16C479.698 46.16 481.194 48.2 481.194 51.056V96.616H500.914Z" fill="#001466"/>
<path d="M545.026 96.344L542.442 80.16C541.218 80.432 539.042 80.568 537.546 80.568C533.058 80.568 531.29 78.392 531.29 73.632V46.704H544.618L541.898 29.976H531.29V6.58397L512.386 9.71197V29.976H504.77V46.704H512.386V76.08C512.386 92.536 519.05 97.704 533.738 97.704C538.362 97.704 542.306 97.024 545.026 96.344Z" fill="#001466"/>
<path d="M597.451 96.616V51.192C597.451 35.28 590.651 28.888 575.147 28.888C565.627 28.888 558.827 30.792 551.483 33.784L553.931 49.016C560.595 45.616 565.763 43.984 569.707 43.984C575.419 43.984 577.867 46.16 577.867 52.144V54.592C558.963 57.584 547.675 65.064 547.675 79.888C547.675 91.992 554.067 97.84 563.043 97.84C569.707 97.84 574.875 94.576 579.499 89.816L580.587 96.616H597.451ZM577.867 80.16C575.419 82.472 573.107 83.696 570.795 83.696C567.939 83.696 565.899 81.384 565.899 77.304C565.899 71.864 569.027 67.512 577.867 64.792V80.16Z" fill="#001466"/>
<path d="M648.33 92.944L645.882 76.896C641.258 79.616 638.538 80.704 635.002 80.704C626.978 80.704 622.626 74.856 622.626 63.296C622.626 52.008 626.706 46.024 634.05 46.024C638.13 46.024 640.986 47.248 644.93 49.832L647.65 32.696C643.842 30.656 638.538 28.888 631.194 28.888C614.058 28.888 603.042 41.128 603.042 63.432C603.042 85.736 613.106 97.84 631.33 97.84C638.266 97.84 643.978 95.8 648.33 92.944Z" fill="#001466"/>
<path d="M691.442 96.344L688.858 80.16C687.634 80.432 685.458 80.568 683.962 80.568C679.474 80.568 677.706 78.392 677.706 73.632V46.704H691.034L688.314 29.976H677.706V6.58397L658.802 9.71197V29.976H651.186V46.704H658.802V76.08C658.802 92.536 665.466 97.704 680.154 97.704C684.778 97.704 688.722 97.024 691.442 96.344Z" fill="#001466"/>
<path d="M180.992 144.176C180.992 141.232 179.36 139.632 176.896 138.864C178.816 138.064 180.096 136.56 180.096 134.256C180.096 130.768 177.728 128.528 172.768 128.528H166.336V150.608H172.672C177.856 150.608 180.992 148.528 180.992 144.176ZM176.16 134.608C176.16 136.496 174.848 137.616 172.352 137.616H170.4V131.76H172.544C175.104 131.76 176.16 132.848 176.16 134.608ZM176.928 144.048C176.928 146.256 175.36 147.376 172.672 147.376H170.4V140.624H172.608C175.424 140.624 176.928 141.808 176.928 144.048Z" fill="#001466"/>
<path d="M209.473 128.528H204.865L199.489 138.256L193.953 128.304L189.537 129.008L197.249 142.192V150.608H201.505V142.16L209.473 128.528Z" fill="#001466"/>
<path d="M247.847 144.304C247.847 140.88 246.183 139.312 241.639 137.456C238.567 136.176 237.863 135.504 237.863 134.096C237.863 132.752 238.791 131.728 240.903 131.728C242.631 131.728 244.519 132.4 246.119 133.456L246.759 129.616C245.159 128.784 243.431 128.272 240.935 128.272C236.807 128.272 233.799 130.544 233.799 134.448C233.799 137.872 235.527 139.28 239.815 141.04C243.015 142.416 243.783 143.088 243.783 144.72C243.783 146.48 242.439 147.408 240.487 147.408C238.279 147.408 235.975 146.544 234.119 145.456L233.479 149.328C235.431 150.256 237.735 150.864 240.423 150.864C244.679 150.864 247.847 148.624 247.847 144.304Z" fill="#001466"/>
<path d="M283.758 150.608L282.062 128.528H276.782L271.214 145.2L265.614 128.528H260.238L258.542 150.608H262.35L263.47 134.32L269.038 150.672H272.814L278.35 134.32L279.534 150.608H283.758Z" fill="#001466"/>
<path d="M293.791 150.608H298.047L299.967 145.008H308.319L310.431 150.832L314.687 150.064L306.591 128.432H302.079L293.791 150.608ZM304.159 133.008L307.135 141.552H301.119L304.159 133.008Z" fill="#001466"/>
<path d="M341.641 150.032L335.657 141.36C338.409 140.4 340.137 138.384 340.137 135.152C340.137 130.864 337.161 128.528 332.233 128.528H325.385V150.608H329.609V142.16H331.401L337.161 150.832L341.641 150.032ZM335.977 135.376C335.977 137.68 334.345 138.928 331.721 138.928H329.577V131.92H331.913C334.569 131.92 335.977 133.168 335.977 135.376Z" fill="#001466"/>
<path d="M367.823 132.208L367.215 128.528H350.063V132.208H356.719V150.608H360.943V132.208H367.823Z" fill="#001466"/>
<path d="M390.878 132.208V128.528H378.526V150.608H382.75V141.488H389.566L388.958 137.84H382.75V132.208H390.878Z" fill="#001466"/>
<path d="M421.422 139.536C421.422 132.72 417.422 128.112 411.086 128.112C404.782 128.112 400.686 132.752 400.686 139.6C400.686 146.416 404.75 151.024 411.022 151.024C417.358 151.024 421.422 146.352 421.422 139.536ZM417.134 139.568C417.134 144.4 414.862 147.504 411.054 147.504C407.278 147.504 405.006 144.4 405.006 139.568C405.006 134.736 407.278 131.632 411.054 131.632C414.83 131.632 417.134 134.736 417.134 139.568Z" fill="#001466"/>
<path d="M449.173 150.032L443.189 141.36C445.941 140.4 447.669 138.384 447.669 135.152C447.669 130.864 444.693 128.528 439.765 128.528H432.917V150.608H437.141V142.16H438.933L444.693 150.832L449.173 150.032ZM443.509 135.376C443.509 137.68 441.877 138.928 439.253 138.928H437.109V131.92H439.445C442.101 131.92 443.509 133.168 443.509 135.376Z" fill="#001466"/>
<path d="M475.381 149.104L474.805 145.392C473.109 146.544 471.285 147.312 469.205 147.312C465.237 147.312 462.741 144.368 462.741 139.568C462.741 134.8 465.141 131.792 469.141 131.792C471.285 131.792 472.981 132.656 474.421 133.744L475.029 129.744C473.397 128.72 471.477 128.144 468.981 128.144C462.549 128.144 458.421 132.752 458.421 139.6C458.421 146.48 462.453 150.992 468.853 150.992C471.381 150.992 473.653 150.224 475.381 149.104Z" fill="#001466"/>
<path d="M499.835 150.608V147.024H490.875V140.944H498.107L497.531 137.392H490.875V132.112H499.515V128.528H486.683V150.608H499.835Z" fill="#001466"/>
<path d="M524.971 135.568C524.971 131.12 521.995 128.112 517.739 128.112C513.483 128.112 510.475 131.152 510.475 135.568C510.475 140.016 513.419 142.992 517.707 142.992C521.931 142.992 524.971 139.984 524.971 135.568ZM523.947 135.568C523.947 139.76 521.195 142.128 517.707 142.128C514.283 142.128 511.499 139.76 511.499 135.568C511.499 131.344 514.251 128.976 517.739 128.976C521.163 128.976 523.947 131.344 523.947 135.568ZM521.483 139.184L519.243 135.952C520.171 135.6 520.811 134.864 520.811 133.68C520.811 132.08 519.659 131.184 517.771 131.184H514.955V139.408H516.779V136.272H517.387L519.563 139.504L521.483 139.184ZM518.987 133.808C518.987 134.608 518.475 134.992 517.611 134.992H516.779V132.656H517.643C518.507 132.656 518.987 133.072 518.987 133.808Z" fill="#001466"/>
</svg>
