<svg viewBox="0 0 692 152" fill="none" xmlns="http://www.w3.org/2000/svg">
<path d="M57.936 92.1292L54.808 73.6329C49.096 77.441 44.744 79.345 40.12 79.345C28.56 79.345 22.984 69.2809 22.984 49.6966C22.984 30.2484 28.424 20.0482 38.352 20.0482C44.2 20.0482 47.872 21.9523 53.448 25.7603L56.44 6.44805C50.864 3.18401 44.608 1.27998 35.496 1.27998C12.512 1.27998 0 19.9122 0 49.8326C0 80.161 11.968 98.1133 36.04 98.1133C44.472 98.1133 51.136 95.6652 57.936 92.1292Z" fill="#001466"/>
<path d="M84.7067 11.6161C84.7067 5.36004 79.6748 0.599976 73.5547 0.599976C67.2988 0.599976 62.4027 5.36004 62.4027 11.6161C62.4027 17.8722 67.2988 22.7683 73.5547 22.7683C79.6748 22.7683 84.7067 17.8722 84.7067 11.6161ZM83.3467 96.6172V29.9764H63.6267V96.6172H83.3467Z" fill="#001466"/>
<path d="M128.199 96.3452L125.615 80.161C124.391 80.433 122.215 80.569 120.719 80.569C116.231 80.569 114.463 78.393 114.463 73.6329V46.7046H127.791L125.071 29.9764H114.463V6.58405L95.5591 9.71209V29.9764H87.9431V46.7046H95.5591V76.081C95.5591 92.5372 102.223 97.7053 116.911 97.7053C121.535 97.7053 125.479 97.0252 128.199 96.3452Z" fill="#001466"/>
<path d="M154.648 11.6161C154.648 5.36004 149.616 0.599976 143.496 0.599976C137.24 0.599976 132.344 5.36004 132.344 11.6161C132.344 17.8722 137.24 22.7683 143.496 22.7683C149.616 22.7683 154.648 17.8722 154.648 11.6161ZM153.288 96.6172V29.9764H133.568V96.6172H153.288Z" fill="#001466"/>
<path d="M208.068 96.6172L205.484 80.841H182.364L206.708 43.7125V29.9764H160.06L162.644 45.7526H182.908L158.7 83.0171V96.6172H208.068Z" fill="#001466"/>
<path d="M261.934 61.9368C261.934 42.6245 254.046 28.6163 236.366 28.6163C218.822 28.6163 209.166 43.8485 209.166 63.4328C209.166 86.1451 219.502 97.9773 238.542 97.9773C247.926 97.9773 256.086 95.5292 261.798 92.1292L259.622 78.121C253.502 81.521 248.062 83.1531 242.078 83.1531C234.462 83.1531 229.974 78.665 228.75 69.1449H261.526C261.662 67.9209 261.934 64.1128 261.934 61.9368ZM243.574 57.3127H228.478C229.158 46.4326 232.014 41.9445 236.094 41.9445C240.446 41.9445 243.438 47.1126 243.574 57.3127Z" fill="#001466"/>
<path d="M319.967 96.6172V45.6166C319.967 34.7364 314.935 28.6163 303.919 28.6163C296.847 28.6163 290.999 32.5604 286.239 37.0485L285.015 29.9764H268.287V96.6172H288.007V49.6966C290.591 47.6566 293.311 46.1606 295.895 46.1606C298.751 46.1606 300.247 48.2006 300.247 51.0566V96.6172H319.967Z" fill="#001466"/>
<path d="M384.343 92.1292L381.215 73.6329C375.503 77.441 371.151 79.345 366.527 79.345C354.967 79.345 349.391 69.2809 349.391 49.6966C349.391 30.2484 354.831 20.0482 364.759 20.0482C370.607 20.0482 374.279 21.9523 379.855 25.7603L382.847 6.44805C377.271 3.18401 371.015 1.27998 361.903 1.27998C338.919 1.27998 326.407 19.9122 326.407 49.8326C326.407 80.161 338.375 98.1133 362.447 98.1133C370.879 98.1133 377.543 95.6652 384.343 92.1292Z" fill="#001466"/>
<path d="M443.093 63.2968C443.093 40.8565 431.805 28.6163 415.077 28.6163C398.349 28.6163 386.925 40.9925 386.925 63.4328C386.925 86.0091 398.213 97.9773 414.941 97.9773C431.669 97.9773 443.093 85.7371 443.093 63.2968ZM423.645 63.4328C423.645 74.857 420.925 81.657 415.077 81.657C409.229 81.657 406.373 74.857 406.373 63.2968C406.373 51.8727 409.093 44.9366 414.941 44.9366C420.925 44.9366 423.645 52.0087 423.645 63.4328Z" fill="#001466"/>
<path d="M500.914 96.6172V45.6166C500.914 34.7364 495.882 28.6163 484.866 28.6163C477.794 28.6163 471.946 32.5604 467.186 37.0485L465.962 29.9764H449.234V96.6172H468.954V49.6966C471.538 47.6566 474.258 46.1606 476.842 46.1606C479.698 46.1606 481.194 48.2006 481.194 51.0566V96.6172H500.914Z" fill="#001466"/>
<path d="M545.026 96.3452L542.442 80.161C541.218 80.433 539.042 80.569 537.546 80.569C533.058 80.569 531.29 78.393 531.29 73.6329V46.7046H544.618L541.898 29.9764H531.29V6.58405L512.386 9.71209V29.9764H504.77V46.7046H512.386V76.081C512.386 92.5372 519.05 97.7053 533.738 97.7053C538.362 97.7053 542.306 97.0252 545.026 96.3452Z" fill="#001466"/>
<path d="M597.451 96.6172V51.1926C597.451 35.2804 590.651 28.8883 575.147 28.8883C565.627 28.8883 558.827 30.7924 551.483 33.7844L553.931 49.0166C560.595 45.6166 565.763 43.9845 569.707 43.9845C575.419 43.9845 577.867 46.1606 577.867 52.1447V54.5927C558.963 57.5847 547.675 65.0648 547.675 79.889C547.675 91.9932 554.067 97.8413 563.043 97.8413C569.707 97.8413 574.875 94.5772 579.499 89.8171L580.587 96.6172H597.451ZM577.867 80.161C575.419 82.4731 573.107 83.6971 570.795 83.6971C567.939 83.6971 565.899 81.385 565.899 77.305C565.899 71.8649 569.027 67.5129 577.867 64.7928V80.161Z" fill="#001466"/>
<path d="M648.33 92.9452L645.882 76.897C641.258 79.617 638.538 80.705 635.002 80.705C626.978 80.705 622.626 74.857 622.626 63.2968C622.626 52.0087 626.706 46.0246 634.05 46.0246C638.13 46.0246 640.986 47.2486 644.93 49.8326L647.65 32.6964C643.842 30.6564 638.538 28.8883 631.194 28.8883C614.058 28.8883 603.042 41.1285 603.042 63.4328C603.042 85.7371 613.106 97.8413 631.33 97.8413C638.266 97.8413 643.978 95.8012 648.33 92.9452Z" fill="#001466"/>
<path d="M691.442 96.3452L688.858 80.161C687.634 80.433 685.458 80.569 683.962 80.569C679.474 80.569 677.706 78.393 677.706 73.6329V46.7046H691.034L688.314 29.9764H677.706V6.58405L658.802 9.71209V29.9764H651.186V46.7046H658.802V76.081C658.802 92.5372 665.466 97.7053 680.154 97.7053C684.778 97.7053 688.722 97.0252 691.442 96.3452Z" fill="#001466"/>
<path d="M26.656 144.178C26.656 141.234 25.024 139.634 22.56 138.866C24.48 138.066 25.76 136.562 25.76 134.258C25.76 130.77 23.392 128.53 18.432 128.53H12V150.61H18.336C23.52 150.61 26.656 148.53 26.656 144.178ZM21.824 134.61C21.824 136.498 20.512 137.618 18.016 137.618H16.064V131.762H18.208C20.768 131.762 21.824 132.85 21.824 134.61ZM22.592 144.05C22.592 146.258 21.024 147.378 18.336 147.378H16.064V140.626H18.272C21.088 140.626 22.592 141.81 22.592 144.05Z" fill="#001466"/>
<path d="M55.1373 128.53H50.5293L45.1533 138.258L39.6173 128.306L35.2013 129.01L42.9132 142.194V150.61H47.1693V142.162L55.1373 128.53Z" fill="#001466"/>
<path d="M93.5113 144.306C93.5113 140.882 91.8473 139.314 87.3033 137.458C84.2313 136.178 83.5273 135.506 83.5273 134.098C83.5273 132.754 84.4553 131.73 86.5673 131.73C88.2952 131.73 90.1833 132.402 91.7832 133.458L92.4232 129.618C90.8232 128.786 89.0953 128.274 86.5993 128.274C82.4713 128.274 79.4632 130.546 79.4632 134.45C79.4632 137.874 81.1912 139.282 85.4792 141.042C88.6792 142.418 89.4473 143.09 89.4473 144.722C89.4473 146.482 88.1033 147.41 86.1513 147.41C83.9433 147.41 81.6393 146.546 79.7832 145.458L79.1432 149.33C81.0953 150.258 83.3992 150.866 86.0872 150.866C90.3432 150.866 93.5113 148.626 93.5113 144.306Z" fill="#001466"/>
<path d="M129.422 150.61L127.726 128.53H122.446L116.878 145.202L111.278 128.53H105.902L104.206 150.61H108.014L109.134 134.322L114.702 150.674H118.478L124.014 134.322L125.198 150.61H129.422Z" fill="#001466"/>
<path d="M139.455 150.61H143.711L145.631 145.01H153.983L156.095 150.834L160.351 150.066L152.255 128.434H147.743L139.455 150.61ZM149.823 133.01L152.799 141.554H146.783L149.823 133.01Z" fill="#001466"/>
<path d="M187.305 150.034L181.321 141.362C184.073 140.402 185.801 138.386 185.801 135.154C185.801 130.866 182.825 128.53 177.897 128.53H171.049V150.61H175.273V142.162H177.065L182.825 150.834L187.305 150.034ZM181.641 135.378C181.641 137.682 180.009 138.93 177.385 138.93H175.241V131.922H177.577C180.233 131.922 181.641 133.17 181.641 135.378Z" fill="#001466"/>
<path d="M213.487 132.21L212.879 128.53H195.727V132.21H202.383V150.61H206.607V132.21H213.487Z" fill="#001466"/>
<path d="M236.542 132.21V128.53H224.19V150.61H228.414V141.49H235.23L234.622 137.842H228.414V132.21H236.542Z" fill="#001466"/>
<path d="M267.086 139.538C267.086 132.722 263.086 128.114 256.75 128.114C250.446 128.114 246.35 132.754 246.35 139.602C246.35 146.418 250.414 151.026 256.686 151.026C263.022 151.026 267.086 146.354 267.086 139.538ZM262.798 139.57C262.798 144.402 260.526 147.506 256.718 147.506C252.942 147.506 250.67 144.402 250.67 139.57C250.67 134.738 252.942 131.634 256.718 131.634C260.494 131.634 262.798 134.738 262.798 139.57Z" fill="#001466"/>
<path d="M294.837 150.034L288.853 141.362C291.605 140.402 293.333 138.386 293.333 135.154C293.333 130.866 290.357 128.53 285.429 128.53H278.581V150.61H282.805V142.162H284.597L290.357 150.834L294.837 150.034ZM289.173 135.378C289.173 137.682 287.541 138.93 284.917 138.93H282.773V131.922H285.109C287.765 131.922 289.173 133.17 289.173 135.378Z" fill="#001466"/>
<path d="M321.045 149.106L320.469 145.394C318.773 146.546 316.949 147.314 314.869 147.314C310.901 147.314 308.405 144.37 308.405 139.57C308.405 134.802 310.805 131.794 314.805 131.794C316.949 131.794 318.645 132.658 320.085 133.746L320.693 129.746C319.061 128.722 317.141 128.146 314.645 128.146C308.213 128.146 304.085 132.754 304.085 139.602C304.085 146.482 308.117 150.994 314.517 150.994C317.045 150.994 319.317 150.226 321.045 149.106Z" fill="#001466"/>
<path d="M345.5 150.61V147.026H336.539V140.946H343.772L343.195 137.394H336.539V132.114H345.18V128.53H332.348V150.61H345.5Z" fill="#001466"/>
<path d="M370.635 135.57C370.635 131.122 367.659 128.114 363.403 128.114C359.147 128.114 356.139 131.154 356.139 135.57C356.139 140.018 359.083 142.994 363.371 142.994C367.595 142.994 370.635 139.986 370.635 135.57ZM369.611 135.57C369.611 139.762 366.859 142.13 363.371 142.13C359.947 142.13 357.163 139.762 357.163 135.57C357.163 131.346 359.915 128.978 363.403 128.978C366.827 128.978 369.611 131.346 369.611 135.57ZM367.147 139.186L364.907 135.954C365.835 135.602 366.475 134.866 366.475 133.682C366.475 132.082 365.323 131.186 363.435 131.186H360.619V139.41H362.443V136.274H363.051L365.227 139.506L367.147 139.186ZM364.651 133.81C364.651 134.61 364.139 134.994 363.275 134.994H362.443V132.658H363.307C364.171 132.658 364.651 133.074 364.651 133.81Z" fill="#001466"/>
</svg>
