<svg viewBox="0 0 100 100" fill="none" xmlns="http://www.w3.org/2000/svg">
<rect x="1" y="1" width="98" height="98" rx="49" fill="white" stroke="#CCCCCC" stroke-width="2" stroke-dasharray="8 4"/>
<path d="M69.1797 31.3203H30.8203C30.612 31.3203 30.4167 31.4115 30.2344 31.5938C30.0781 31.75 30 31.9453 30 32.1797V70.5C30 70.7344 30.0781 70.9297 30.2344 71.086C30.4167 71.2422 30.612 71.3203 30.8203 71.3203H69.1797C69.388 71.3203 69.5703 71.2422 69.7266 71.086C69.9089 70.9297 70 70.7344 70 70.5V32.1797C70 31.9453 69.9089 31.75 69.7266 31.5938C69.5703 31.4115 69.388 31.3203 69.1797 31.3203ZM68.3203 33V59.0938L58.1641 46.6328C58.0859 46.5287 57.9818 46.4506 57.8516 46.3985C57.7474 46.3464 57.6302 46.3203 57.5 46.3203C57.3698 46.3203 57.2526 46.3464 57.1484 46.3985C57.0443 46.4506 56.9531 46.5287 56.875 46.6328L53.5156 50.6172L44.8047 39.9922C44.6484 39.7839 44.4271 39.6797 44.1406 39.6797C43.8802 39.6797 43.6719 39.7839 43.5156 39.9922L31.6797 54.4453V33H68.3203ZM31.6797 69.6797V57.1016L44.1797 41.8282L58.5156 59.3672C58.5938 59.4714 58.6849 59.5495 58.7891 59.6016C58.9193 59.6537 59.0495 59.6797 59.1797 59.6797C59.2578 59.6797 59.3359 59.6667 59.4141 59.6407C59.5182 59.5886 59.6094 59.5365 59.6875 59.4844C59.8698 59.3282 59.974 59.1459 60 58.9375C60.026 58.7032 59.9609 58.4948 59.8047 58.3125L54.6094 51.9453L57.5 48.4688L68.3203 61.711V69.6797H31.6797Z" fill="#B3B3B3"/>
</svg>
