<svg width="50" height="67" viewBox="0 0 50 67" fill="none" xmlns="http://www.w3.org/2000/svg">
<g filter="url(#filter0_ddd_15554_50308)">
<mask id="path-2-outside-1_15554_50308" maskUnits="userSpaceOnUse" x="5" y="4" width="40" height="55" fill="black">
<rect fill="white" x="5" y="4" width="40" height="55"/>
<path d="M25 6.15039C27.4414 6.15039 29.7363 6.6224 31.8848 7.56641C34.0332 8.47786 35.9049 9.7474 37.5 11.375C39.1276 12.9701 40.3971 14.8418 41.3086 16.9902C42.2526 19.1387 42.7246 21.4336 42.7246 23.875C42.7246 26.2513 41.8783 29.1973 40.1855 32.7129C38.4928 36.2285 36.6048 39.6628 34.5215 43.0156C32.4707 46.3685 30.5501 49.2819 28.7598 51.7559C26.9694 54.1973 25.9928 55.5319 25.8301 55.7598C25.7324 55.89 25.6022 55.9876 25.4395 56.0527C25.3092 56.1178 25.1628 56.1504 25 56.1504C24.8372 56.1504 24.6745 56.1178 24.5117 56.0527C24.3815 55.9876 24.2676 55.89 24.1699 55.7598C24.0072 55.5319 23.0306 54.1973 21.2402 51.7559C19.4499 49.2819 17.513 46.3685 15.4297 43.0156C13.3789 39.6628 11.5072 36.2285 9.81445 32.7129C8.12174 29.1973 7.27539 26.2513 7.27539 23.875C7.27539 21.4336 7.73112 19.1387 8.64258 16.9902C9.58659 14.8418 10.8561 12.9701 12.4512 11.375C14.0788 9.7474 15.9668 8.47786 18.1152 7.56641C20.2637 6.6224 22.5586 6.15039 25 6.15039ZM18.3594 30.5156C20.2148 32.3385 22.4284 33.25 25 33.25C27.5716 33.25 29.7689 32.3385 31.5918 30.5156C33.4473 28.6602 34.375 26.4466 34.375 23.875C34.375 21.3034 33.4473 19.1061 31.5918 17.2832C29.7689 15.4277 27.5716 14.5 25 14.5C22.4284 14.5 20.2148 15.4277 18.3594 17.2832C16.5365 19.1061 15.625 21.3034 15.625 23.875C15.625 26.4466 16.5365 28.6602 18.3594 30.5156Z"/>
</mask>
<path d="M25 6.15039C27.4414 6.15039 29.7363 6.6224 31.8848 7.56641C34.0332 8.47786 35.9049 9.7474 37.5 11.375C39.1276 12.9701 40.3971 14.8418 41.3086 16.9902C42.2526 19.1387 42.7246 21.4336 42.7246 23.875C42.7246 26.2513 41.8783 29.1973 40.1855 32.7129C38.4928 36.2285 36.6048 39.6628 34.5215 43.0156C32.4707 46.3685 30.5501 49.2819 28.7598 51.7559C26.9694 54.1973 25.9928 55.5319 25.8301 55.7598C25.7324 55.89 25.6022 55.9876 25.4395 56.0527C25.3092 56.1178 25.1628 56.1504 25 56.1504C24.8372 56.1504 24.6745 56.1178 24.5117 56.0527C24.3815 55.9876 24.2676 55.89 24.1699 55.7598C24.0072 55.5319 23.0306 54.1973 21.2402 51.7559C19.4499 49.2819 17.513 46.3685 15.4297 43.0156C13.3789 39.6628 11.5072 36.2285 9.81445 32.7129C8.12174 29.1973 7.27539 26.2513 7.27539 23.875C7.27539 21.4336 7.73112 19.1387 8.64258 16.9902C9.58659 14.8418 10.8561 12.9701 12.4512 11.375C14.0788 9.7474 15.9668 8.47786 18.1152 7.56641C20.2637 6.6224 22.5586 6.15039 25 6.15039ZM18.3594 30.5156C20.2148 32.3385 22.4284 33.25 25 33.25C27.5716 33.25 29.7689 32.3385 31.5918 30.5156C33.4473 28.6602 34.375 26.4466 34.375 23.875C34.375 21.3034 33.4473 19.1061 31.5918 17.2832C29.7689 15.4277 27.5716 14.5 25 14.5C22.4284 14.5 20.2148 15.4277 18.3594 17.2832C16.5365 19.1061 15.625 21.3034 15.625 23.875C15.625 26.4466 16.5365 28.6602 18.3594 30.5156Z" fill="#80C6FF"/>
<path d="M31.8848 7.56641L31.0802 9.39744L31.0919 9.40258L31.1037 9.40757L31.8848 7.56641ZM37.5 11.375L36.0716 12.7749L36.0857 12.7893L36.1001 12.8034L37.5 11.375ZM41.3086 16.9902L39.4674 17.7713L39.4724 17.7831L39.4776 17.7948L41.3086 16.9902ZM34.5215 43.0156L32.8227 41.9601L32.8153 41.9721L34.5215 43.0156ZM28.7598 51.7559L30.3726 52.9386L30.38 52.9284L28.7598 51.7559ZM25.8301 55.7598L27.4301 56.9598L27.444 56.9412L27.4575 56.9222L25.8301 55.7598ZM25.4395 56.0527L24.6967 54.1958L24.6194 54.2267L24.545 54.2639L25.4395 56.0527ZM24.5117 56.0527L23.6173 57.8416L23.6917 57.8788L23.7689 57.9097L24.5117 56.0527ZM24.1699 55.7598L22.5425 56.9222L22.556 56.9412L22.5699 56.9598L24.1699 55.7598ZM21.2402 51.7559L19.62 52.9284L19.6274 52.9386L21.2402 51.7559ZM15.4297 43.0156L13.7235 44.0592L13.7309 44.0712L15.4297 43.0156ZM8.64258 16.9902L6.81154 16.1857L6.8064 16.1974L6.80141 16.2091L8.64258 16.9902ZM12.4512 11.375L13.8654 12.7892L12.4512 11.375ZM18.1152 7.56641L18.8963 9.40757L18.9081 9.40258L18.9198 9.39744L18.1152 7.56641ZM18.3594 30.5156L16.9327 31.9173L16.9451 31.9299L16.9577 31.9423L18.3594 30.5156ZM31.5918 30.5156L33.006 31.9298L31.5918 30.5156ZM31.5918 17.2832L30.1651 18.6848L30.1775 18.6975L30.1902 18.7099L31.5918 17.2832ZM18.3594 17.2832L16.9452 15.869L18.3594 17.2832ZM25 8.15039C27.1758 8.15039 29.1956 8.56937 31.0802 9.39744L32.6893 5.73537C30.277 4.67542 27.707 4.15039 25 4.15039V8.15039ZM31.1037 9.40757C33.0153 10.2186 34.6656 11.3402 36.0716 12.7749L38.9284 9.97514C37.1443 8.15461 35.0511 6.73715 32.6659 5.72524L31.1037 9.40757ZM36.1001 12.8034C37.5348 14.2094 38.6564 15.8597 39.4674 17.7713L43.1498 16.2091C42.1379 13.8239 40.7204 11.7307 38.8999 9.94657L36.1001 12.8034ZM39.4776 17.7948C40.3056 19.6794 40.7246 21.6992 40.7246 23.875H44.7246C44.7246 21.168 44.1996 18.598 43.1396 16.1857L39.4776 17.7948ZM40.7246 23.875C40.7246 25.8178 40.0196 28.4473 38.3835 31.8453L41.9875 33.5805C43.7369 29.9472 44.7246 26.6848 44.7246 23.875H40.7246ZM38.3835 31.8453C36.7222 35.2957 34.8687 38.6673 32.8227 41.9601L36.2203 44.0712C38.3409 40.6583 40.2635 37.1613 41.9875 33.5805L38.3835 31.8453ZM32.8153 41.9721C30.7843 45.2926 28.8925 48.1611 27.1395 50.5833L30.38 52.9284C32.2078 50.4027 34.1571 47.4444 36.2276 44.0592L32.8153 41.9721ZM27.147 50.5731C25.3633 53.0055 24.3749 54.3561 24.2026 54.5973L27.4575 56.9222C27.6108 56.7077 28.5756 55.3891 30.3726 52.9386L27.147 50.5731ZM24.2301 54.5598C24.3695 54.3739 24.5461 54.256 24.6967 54.1958L26.1822 57.9097C26.6583 57.7192 27.0954 57.406 27.4301 56.9598L24.2301 54.5598ZM24.545 54.2639C24.7239 54.1745 24.8893 54.1504 25 54.1504V58.1504C25.4362 58.1504 25.8946 58.0612 26.3339 57.8416L24.545 54.2639ZM25 54.1504C25.1107 54.1504 25.1994 54.1737 25.2545 54.1958L23.7689 57.9097C24.1496 58.062 24.5638 58.1504 25 58.1504V54.1504ZM25.4061 54.2639C25.585 54.3533 25.7035 54.4712 25.7699 54.5598L22.5699 56.9598C22.8316 57.3087 23.178 57.622 23.6173 57.8416L25.4061 54.2639ZM25.7974 54.5973C25.6251 54.3561 24.6367 53.0055 22.853 50.5731L19.6274 52.9386C21.4244 55.3891 22.3892 56.7077 22.5425 56.9222L25.7974 54.5973ZM22.8605 50.5833C21.1042 48.1565 19.1937 45.2839 17.1285 41.9601L13.7309 44.0712C15.8323 47.4531 17.7955 50.4073 19.62 52.9284L22.8605 50.5833ZM17.1358 41.9721C15.1197 38.6758 13.28 35.3002 11.6165 31.8453L8.01245 33.5805C9.73436 37.1568 11.6381 40.6497 13.7235 44.0592L17.1358 41.9721ZM11.6165 31.8453C9.9804 28.4473 9.27539 25.8178 9.27539 23.875H5.27539C5.27539 26.6848 6.26309 29.9472 8.01245 33.5805L11.6165 31.8453ZM9.27539 23.875C9.27539 21.6894 9.68192 19.6613 10.4837 17.7713L6.80141 16.2091C5.78032 18.616 5.27539 21.1778 5.27539 23.875H9.27539ZM10.4736 17.7948C11.3218 15.8644 12.453 14.2016 13.8654 12.7892L11.037 9.96079C9.25927 11.7385 7.85135 13.8192 6.81154 16.1857L10.4736 17.7948ZM13.8654 12.7892C15.3088 11.3458 16.981 10.2201 18.8963 9.40757L17.3341 5.72524C14.9526 6.73561 12.8488 8.14895 11.037 9.96079L13.8654 12.7892ZM18.9198 9.39744C20.8044 8.56937 22.8242 8.15039 25 8.15039V4.15039C22.293 4.15039 19.723 4.67542 17.3107 5.73537L18.9198 9.39744ZM16.9577 31.9423C19.1824 34.1279 21.8974 35.25 25 35.25V31.25C22.9594 31.25 21.2473 30.5491 19.761 29.089L16.9577 31.9423ZM25 35.25C28.1035 35.25 30.8091 34.1268 33.006 31.9298L30.1776 29.1014C28.7287 30.5503 27.0397 31.25 25 31.25V35.25ZM33.006 31.9298C35.228 29.7079 36.375 26.989 36.375 23.875H32.375C32.375 25.9042 31.6666 27.6124 30.1776 29.1014L33.006 31.9298ZM36.375 23.875C36.375 20.7599 35.2267 18.0506 32.9934 15.8565L30.1902 18.7099C31.6678 20.1616 32.375 21.8469 32.375 23.875H36.375ZM33.0185 15.8816C30.8244 13.6483 28.1151 12.5 25 12.5V16.5C27.0281 16.5 28.7134 17.2072 30.1651 18.6848L33.0185 15.8816ZM25 12.5C21.886 12.5 19.1671 13.647 16.9452 15.869L19.7736 18.6974C21.2626 17.2084 22.9708 16.5 25 16.5V12.5ZM16.9452 15.869C14.7482 18.0659 13.625 20.7715 13.625 23.875H17.625C17.625 21.8353 18.3247 20.1463 19.7736 18.6974L16.9452 15.869ZM13.625 23.875C13.625 26.9776 14.7471 29.6926 16.9327 31.9173L19.786 29.114C18.3259 27.6277 17.625 25.9156 17.625 23.875H13.625Z" fill="white" mask="url(#path-2-outside-1_15554_50308)"/>
</g>
<defs>
<filter id="filter0_ddd_15554_50308" x="0.275391" y="0.150391" width="49.4492" height="64" filterUnits="userSpaceOnUse" color-interpolation-filters="sRGB">
<feFlood flood-opacity="0" result="BackgroundImageFix"/>
<feColorMatrix in="SourceAlpha" type="matrix" values="0 0 0 0 0 0 0 0 0 0 0 0 0 0 0 0 0 0 127 0" result="hardAlpha"/>
<feOffset dy="1"/>
<feGaussianBlur stdDeviation="2.5"/>
<feColorMatrix type="matrix" values="0 0 0 0 0 0 0 0 0 0 0 0 0 0 0 0 0 0 0.12 0"/>
<feBlend mode="normal" in2="BackgroundImageFix" result="effect1_dropShadow_15554_50308"/>
<feColorMatrix in="SourceAlpha" type="matrix" values="0 0 0 0 0 0 0 0 0 0 0 0 0 0 0 0 0 0 127 0" result="hardAlpha"/>
<feOffset dy="2"/>
<feGaussianBlur stdDeviation="1"/>
<feColorMatrix type="matrix" values="0 0 0 0 0 0 0 0 0 0 0 0 0 0 0 0 0 0 0.14 0"/>
<feBlend mode="normal" in2="effect1_dropShadow_15554_50308" result="effect2_dropShadow_15554_50308"/>
<feColorMatrix in="SourceAlpha" type="matrix" values="0 0 0 0 0 0 0 0 0 0 0 0 0 0 0 0 0 0 127 0" result="hardAlpha"/>
<feMorphology radius="2" operator="erode" in="SourceAlpha" result="effect3_dropShadow_15554_50308"/>
<feOffset dy="3"/>
<feGaussianBlur stdDeviation="0.5"/>
<feColorMatrix type="matrix" values="0 0 0 0 0 0 0 0 0 0 0 0 0 0 0 0 0 0 0.02 0"/>
<feBlend mode="normal" in2="effect2_dropShadow_15554_50308" result="effect3_dropShadow_15554_50308"/>
<feBlend mode="normal" in="SourceGraphic" in2="effect3_dropShadow_15554_50308" result="shape"/>
</filter>
</defs>
</svg>
